G75*
G70*
%OFA0B0*%
%FSLAX24Y24*%
%IPPOS*%
%LPD*%
%AMOC8*
5,1,8,0,0,1.08239X$1,22.5*
%
%ADD10C,0.0000*%
%ADD11C,0.0640*%
%ADD12OC8,0.0640*%
%ADD13C,0.0680*%
%ADD14OC8,0.0595*%
%ADD15R,0.0595X0.0595*%
%ADD16C,0.0095*%
%ADD17R,0.1064X0.1064*%
%ADD18R,0.1025X0.0867*%
%ADD19R,0.0989X0.0277*%
%ADD20R,0.1580X0.1080*%
%ADD21C,0.0474*%
%ADD22R,0.0671X0.0568*%
%ADD23R,0.0474X0.0671*%
%ADD24R,0.0671X0.0474*%
%ADD25R,0.0568X0.0671*%
%ADD26C,0.0480*%
D10*
X000800Y000500D02*
X000800Y027470D01*
X027792Y027470D01*
X027842Y000500D01*
X000800Y000500D01*
X002997Y022634D02*
X002999Y022661D01*
X003005Y022688D01*
X003014Y022714D01*
X003027Y022738D01*
X003043Y022761D01*
X003062Y022780D01*
X003084Y022797D01*
X003108Y022811D01*
X003133Y022821D01*
X003160Y022828D01*
X003187Y022831D01*
X003215Y022830D01*
X003242Y022825D01*
X003268Y022817D01*
X003292Y022805D01*
X003315Y022789D01*
X003336Y022771D01*
X003353Y022750D01*
X003368Y022726D01*
X003379Y022701D01*
X003387Y022675D01*
X003391Y022648D01*
X003391Y022620D01*
X003387Y022593D01*
X003379Y022567D01*
X003368Y022542D01*
X003353Y022518D01*
X003336Y022497D01*
X003315Y022479D01*
X003293Y022463D01*
X003268Y022451D01*
X003242Y022443D01*
X003215Y022438D01*
X003187Y022437D01*
X003160Y022440D01*
X003133Y022447D01*
X003108Y022457D01*
X003084Y022471D01*
X003062Y022488D01*
X003043Y022507D01*
X003027Y022530D01*
X003014Y022554D01*
X003005Y022580D01*
X002999Y022607D01*
X002997Y022634D01*
X002997Y024366D02*
X002999Y024393D01*
X003005Y024420D01*
X003014Y024446D01*
X003027Y024470D01*
X003043Y024493D01*
X003062Y024512D01*
X003084Y024529D01*
X003108Y024543D01*
X003133Y024553D01*
X003160Y024560D01*
X003187Y024563D01*
X003215Y024562D01*
X003242Y024557D01*
X003268Y024549D01*
X003292Y024537D01*
X003315Y024521D01*
X003336Y024503D01*
X003353Y024482D01*
X003368Y024458D01*
X003379Y024433D01*
X003387Y024407D01*
X003391Y024380D01*
X003391Y024352D01*
X003387Y024325D01*
X003379Y024299D01*
X003368Y024274D01*
X003353Y024250D01*
X003336Y024229D01*
X003315Y024211D01*
X003293Y024195D01*
X003268Y024183D01*
X003242Y024175D01*
X003215Y024170D01*
X003187Y024169D01*
X003160Y024172D01*
X003133Y024179D01*
X003108Y024189D01*
X003084Y024203D01*
X003062Y024220D01*
X003043Y024239D01*
X003027Y024262D01*
X003014Y024286D01*
X003005Y024312D01*
X002999Y024339D01*
X002997Y024366D01*
D11*
X004300Y018700D03*
X023300Y002650D03*
D12*
X023300Y001650D03*
X022300Y001650D03*
X021300Y001650D03*
X021300Y002650D03*
X022300Y002650D03*
X020300Y002650D03*
X019300Y002650D03*
X019300Y001650D03*
X020300Y001650D03*
X018300Y001650D03*
X018300Y002650D03*
X017300Y002650D03*
X016300Y002650D03*
X016300Y001650D03*
X017300Y001650D03*
X015300Y001650D03*
X014300Y001650D03*
X014300Y002650D03*
X015300Y002650D03*
X013300Y002650D03*
X012300Y002650D03*
X012300Y001650D03*
X013300Y001650D03*
X011300Y001650D03*
X011300Y002650D03*
X010300Y002650D03*
X009300Y002650D03*
X009300Y001650D03*
X010300Y001650D03*
X008300Y001650D03*
X007300Y001650D03*
X007300Y002650D03*
X008300Y002650D03*
X006300Y002650D03*
X006300Y001650D03*
X005300Y001650D03*
X004300Y001650D03*
X004300Y002650D03*
X005300Y002650D03*
X005300Y018700D03*
X005300Y019700D03*
X004300Y019700D03*
X006300Y019700D03*
X006300Y018700D03*
X007300Y018700D03*
X008300Y018700D03*
X008300Y019700D03*
X007300Y019700D03*
X009300Y019700D03*
X010300Y019700D03*
X010300Y018700D03*
X009300Y018700D03*
X011300Y018700D03*
X011300Y019700D03*
X012300Y019700D03*
X013300Y019700D03*
X013300Y018700D03*
X012300Y018700D03*
X014300Y018700D03*
X015300Y018700D03*
X015300Y019700D03*
X014300Y019700D03*
X016300Y019700D03*
X017300Y019700D03*
X017300Y018700D03*
X016300Y018700D03*
X018300Y018700D03*
X018300Y019700D03*
X019300Y019700D03*
X020300Y019700D03*
X020300Y018700D03*
X019300Y018700D03*
X021300Y018700D03*
X022300Y018700D03*
X022300Y019700D03*
X021300Y019700D03*
X023300Y019700D03*
X023300Y018700D03*
X022300Y024500D03*
X021300Y024500D03*
X021300Y025500D03*
X022300Y025500D03*
X020300Y025500D03*
X019300Y025500D03*
X019300Y024500D03*
X020300Y024500D03*
X018300Y024500D03*
X018300Y025500D03*
X017300Y025500D03*
X016300Y025500D03*
X016300Y024500D03*
X017300Y024500D03*
X015300Y024500D03*
X015300Y025500D03*
D13*
X008100Y025950D02*
X008100Y026550D01*
X007100Y026550D02*
X007100Y025950D01*
X006100Y025950D02*
X006100Y026550D01*
D14*
X003300Y017500D03*
X003300Y016500D03*
X003300Y015500D03*
X002300Y015500D03*
X002300Y016500D03*
X002300Y014500D03*
X003300Y014500D03*
X003300Y013500D03*
X003300Y012500D03*
X003300Y011500D03*
X003300Y010500D03*
X003300Y009500D03*
X003300Y008500D03*
X003300Y007500D03*
X002300Y007500D03*
X002300Y008500D03*
X002300Y006500D03*
X003300Y006500D03*
X003300Y005500D03*
X003300Y004500D03*
X003300Y003500D03*
X003300Y002500D03*
X023300Y006500D03*
X024300Y006500D03*
X024300Y005500D03*
X024300Y004500D03*
X024300Y003500D03*
X024300Y002500D03*
X025300Y002500D03*
X025300Y003500D03*
X025300Y004500D03*
X025300Y005500D03*
X025300Y006500D03*
X025300Y007500D03*
X025300Y008500D03*
X025300Y009500D03*
X025300Y010500D03*
X025300Y011500D03*
X025300Y012500D03*
X025300Y013500D03*
X025300Y014500D03*
X025300Y015500D03*
X025300Y016500D03*
X025300Y017500D03*
X024300Y017500D03*
X024300Y016500D03*
X024300Y015500D03*
X023300Y015500D03*
X023300Y016500D03*
X023300Y014500D03*
X024300Y014500D03*
X024300Y013500D03*
X024300Y012500D03*
X024300Y011500D03*
X024300Y010500D03*
X024300Y009500D03*
X024300Y008500D03*
X024300Y007500D03*
X023300Y007500D03*
X023300Y008500D03*
X026300Y011500D03*
X026300Y012500D03*
X026300Y013500D03*
X026300Y005500D03*
X026300Y004500D03*
X026300Y003500D03*
D15*
X026300Y002500D03*
X023300Y009500D03*
X026300Y010500D03*
X023300Y017500D03*
X002300Y017500D03*
X002300Y009500D03*
D16*
X006856Y022563D02*
X006856Y022863D01*
X006856Y022563D02*
X006760Y022563D01*
X006760Y022863D01*
X006856Y022863D01*
X006856Y022657D02*
X006760Y022657D01*
X006760Y022751D02*
X006856Y022751D01*
X006856Y022845D02*
X006760Y022845D01*
X007053Y022863D02*
X007053Y022563D01*
X006957Y022563D01*
X006957Y022863D01*
X007053Y022863D01*
X007053Y022657D02*
X006957Y022657D01*
X006957Y022751D02*
X007053Y022751D01*
X007053Y022845D02*
X006957Y022845D01*
X007250Y022863D02*
X007250Y022563D01*
X007154Y022563D01*
X007154Y022863D01*
X007250Y022863D01*
X007250Y022657D02*
X007154Y022657D01*
X007154Y022751D02*
X007250Y022751D01*
X007250Y022845D02*
X007154Y022845D01*
X007446Y022863D02*
X007446Y022563D01*
X007350Y022563D01*
X007350Y022863D01*
X007446Y022863D01*
X007446Y022657D02*
X007350Y022657D01*
X007350Y022751D02*
X007446Y022751D01*
X007446Y022845D02*
X007350Y022845D01*
X007643Y022863D02*
X007643Y022563D01*
X007547Y022563D01*
X007547Y022863D01*
X007643Y022863D01*
X007643Y022657D02*
X007547Y022657D01*
X007547Y022751D02*
X007643Y022751D01*
X007643Y022845D02*
X007547Y022845D01*
X007840Y022863D02*
X007840Y022563D01*
X007744Y022563D01*
X007744Y022863D01*
X007840Y022863D01*
X007840Y022657D02*
X007744Y022657D01*
X007744Y022751D02*
X007840Y022751D01*
X007840Y022845D02*
X007744Y022845D01*
X007937Y022960D02*
X008237Y022960D01*
X007937Y022960D02*
X007937Y023056D01*
X008237Y023056D01*
X008237Y022960D01*
X008237Y023054D02*
X007937Y023054D01*
X007937Y023157D02*
X008237Y023157D01*
X007937Y023157D02*
X007937Y023253D01*
X008237Y023253D01*
X008237Y023157D01*
X008237Y023251D02*
X007937Y023251D01*
X007937Y023354D02*
X008237Y023354D01*
X007937Y023354D02*
X007937Y023450D01*
X008237Y023450D01*
X008237Y023354D01*
X008237Y023448D02*
X007937Y023448D01*
X007937Y023550D02*
X008237Y023550D01*
X007937Y023550D02*
X007937Y023646D01*
X008237Y023646D01*
X008237Y023550D01*
X008237Y023644D02*
X007937Y023644D01*
X007937Y023747D02*
X008237Y023747D01*
X007937Y023747D02*
X007937Y023843D01*
X008237Y023843D01*
X008237Y023747D01*
X008237Y023841D02*
X007937Y023841D01*
X007937Y023944D02*
X008237Y023944D01*
X007937Y023944D02*
X007937Y024040D01*
X008237Y024040D01*
X008237Y023944D01*
X008237Y024038D02*
X007937Y024038D01*
X007744Y024137D02*
X007744Y024437D01*
X007840Y024437D01*
X007840Y024137D01*
X007744Y024137D01*
X007744Y024231D02*
X007840Y024231D01*
X007840Y024325D02*
X007744Y024325D01*
X007744Y024419D02*
X007840Y024419D01*
X007547Y024437D02*
X007547Y024137D01*
X007547Y024437D02*
X007643Y024437D01*
X007643Y024137D01*
X007547Y024137D01*
X007547Y024231D02*
X007643Y024231D01*
X007643Y024325D02*
X007547Y024325D01*
X007547Y024419D02*
X007643Y024419D01*
X007350Y024437D02*
X007350Y024137D01*
X007350Y024437D02*
X007446Y024437D01*
X007446Y024137D01*
X007350Y024137D01*
X007350Y024231D02*
X007446Y024231D01*
X007446Y024325D02*
X007350Y024325D01*
X007350Y024419D02*
X007446Y024419D01*
X007154Y024437D02*
X007154Y024137D01*
X007154Y024437D02*
X007250Y024437D01*
X007250Y024137D01*
X007154Y024137D01*
X007154Y024231D02*
X007250Y024231D01*
X007250Y024325D02*
X007154Y024325D01*
X007154Y024419D02*
X007250Y024419D01*
X006957Y024437D02*
X006957Y024137D01*
X006957Y024437D02*
X007053Y024437D01*
X007053Y024137D01*
X006957Y024137D01*
X006957Y024231D02*
X007053Y024231D01*
X007053Y024325D02*
X006957Y024325D01*
X006957Y024419D02*
X007053Y024419D01*
X006760Y024437D02*
X006760Y024137D01*
X006760Y024437D02*
X006856Y024437D01*
X006856Y024137D01*
X006760Y024137D01*
X006760Y024231D02*
X006856Y024231D01*
X006856Y024325D02*
X006760Y024325D01*
X006760Y024419D02*
X006856Y024419D01*
X006663Y024040D02*
X006363Y024040D01*
X006663Y024040D02*
X006663Y023944D01*
X006363Y023944D01*
X006363Y024040D01*
X006363Y024038D02*
X006663Y024038D01*
X006663Y023843D02*
X006363Y023843D01*
X006663Y023843D02*
X006663Y023747D01*
X006363Y023747D01*
X006363Y023843D01*
X006363Y023841D02*
X006663Y023841D01*
X006663Y023646D02*
X006363Y023646D01*
X006663Y023646D02*
X006663Y023550D01*
X006363Y023550D01*
X006363Y023646D01*
X006363Y023644D02*
X006663Y023644D01*
X006663Y023450D02*
X006363Y023450D01*
X006663Y023450D02*
X006663Y023354D01*
X006363Y023354D01*
X006363Y023450D01*
X006363Y023448D02*
X006663Y023448D01*
X006663Y023253D02*
X006363Y023253D01*
X006663Y023253D02*
X006663Y023157D01*
X006363Y023157D01*
X006363Y023253D01*
X006363Y023251D02*
X006663Y023251D01*
X006663Y023056D02*
X006363Y023056D01*
X006663Y023056D02*
X006663Y022960D01*
X006363Y022960D01*
X006363Y023056D01*
X006363Y023054D02*
X006663Y023054D01*
D17*
X007300Y023500D03*
D18*
X004178Y021768D03*
X004178Y025232D03*
D19*
X004400Y024130D03*
X004400Y023815D03*
X004400Y023500D03*
X004400Y023185D03*
X004400Y022870D03*
D20*
X002013Y021768D03*
X002013Y025232D03*
D21*
X003194Y024366D03*
X003194Y022634D03*
D22*
X005550Y022374D03*
X005550Y021626D03*
X002100Y019874D03*
X002100Y019126D03*
X001900Y003874D03*
X001900Y003126D03*
X026800Y016126D03*
X026800Y016874D03*
D23*
X009300Y023586D03*
X009300Y024414D03*
D24*
X007614Y021700D03*
X006786Y021700D03*
D25*
X016876Y021750D03*
X017624Y021750D03*
D26*
X018300Y021750D03*
X018150Y022700D03*
X016450Y017700D03*
X018350Y015500D03*
X017750Y013200D03*
X021600Y009600D03*
X021100Y008550D03*
X021050Y007500D03*
X020250Y004150D03*
X018800Y001250D03*
X017800Y001250D03*
X017150Y003750D03*
X009250Y004750D03*
X008300Y003850D03*
X004350Y006550D03*
X001900Y004450D03*
X005000Y014400D03*
X008300Y017650D03*
X005800Y021050D03*
X005700Y023150D03*
X005400Y023900D03*
X005950Y024550D03*
X006700Y024900D03*
X007750Y024800D03*
X008550Y024800D03*
X008650Y022700D03*
X003400Y020950D03*
X022000Y016500D03*
X025300Y018350D03*
X026800Y015300D03*
X026200Y014450D03*
X026300Y009750D03*
X026500Y008100D03*
M02*
