G75*
G70*
%OFA0B0*%
%FSLAX24Y24*%
%IPPOS*%
%LPD*%
%AMOC8*
5,1,8,0,0,1.08239X$1,22.5*
%
%ADD10C,0.0000*%
%ADD11C,0.0560*%
%ADD12OC8,0.0560*%
%ADD13C,0.0600*%
%ADD14OC8,0.0515*%
%ADD15R,0.0515X0.0515*%
%ADD16C,0.0055*%
%ADD17R,0.0984X0.0984*%
%ADD18R,0.0945X0.0787*%
%ADD19R,0.0909X0.0197*%
%ADD20R,0.1500X0.1000*%
%ADD21R,0.0591X0.0488*%
%ADD22R,0.0394X0.0591*%
%ADD23R,0.0591X0.0394*%
%ADD24R,0.0488X0.0591*%
%ADD25C,0.0100*%
%ADD26C,0.0400*%
%ADD27C,0.0120*%
D10*
X000800Y000500D02*
X000800Y027470D01*
X027792Y027470D01*
X027842Y000500D01*
X000800Y000500D01*
X002997Y022634D02*
X002999Y022661D01*
X003005Y022688D01*
X003014Y022714D01*
X003027Y022738D01*
X003043Y022761D01*
X003062Y022780D01*
X003084Y022797D01*
X003108Y022811D01*
X003133Y022821D01*
X003160Y022828D01*
X003187Y022831D01*
X003215Y022830D01*
X003242Y022825D01*
X003268Y022817D01*
X003292Y022805D01*
X003315Y022789D01*
X003336Y022771D01*
X003353Y022750D01*
X003368Y022726D01*
X003379Y022701D01*
X003387Y022675D01*
X003391Y022648D01*
X003391Y022620D01*
X003387Y022593D01*
X003379Y022567D01*
X003368Y022542D01*
X003353Y022518D01*
X003336Y022497D01*
X003315Y022479D01*
X003293Y022463D01*
X003268Y022451D01*
X003242Y022443D01*
X003215Y022438D01*
X003187Y022437D01*
X003160Y022440D01*
X003133Y022447D01*
X003108Y022457D01*
X003084Y022471D01*
X003062Y022488D01*
X003043Y022507D01*
X003027Y022530D01*
X003014Y022554D01*
X003005Y022580D01*
X002999Y022607D01*
X002997Y022634D01*
X002997Y024366D02*
X002999Y024393D01*
X003005Y024420D01*
X003014Y024446D01*
X003027Y024470D01*
X003043Y024493D01*
X003062Y024512D01*
X003084Y024529D01*
X003108Y024543D01*
X003133Y024553D01*
X003160Y024560D01*
X003187Y024563D01*
X003215Y024562D01*
X003242Y024557D01*
X003268Y024549D01*
X003292Y024537D01*
X003315Y024521D01*
X003336Y024503D01*
X003353Y024482D01*
X003368Y024458D01*
X003379Y024433D01*
X003387Y024407D01*
X003391Y024380D01*
X003391Y024352D01*
X003387Y024325D01*
X003379Y024299D01*
X003368Y024274D01*
X003353Y024250D01*
X003336Y024229D01*
X003315Y024211D01*
X003293Y024195D01*
X003268Y024183D01*
X003242Y024175D01*
X003215Y024170D01*
X003187Y024169D01*
X003160Y024172D01*
X003133Y024179D01*
X003108Y024189D01*
X003084Y024203D01*
X003062Y024220D01*
X003043Y024239D01*
X003027Y024262D01*
X003014Y024286D01*
X003005Y024312D01*
X002999Y024339D01*
X002997Y024366D01*
D11*
X004300Y018700D03*
X023300Y002650D03*
D12*
X023300Y001650D03*
X022300Y001650D03*
X021300Y001650D03*
X021300Y002650D03*
X022300Y002650D03*
X020300Y002650D03*
X019300Y002650D03*
X019300Y001650D03*
X020300Y001650D03*
X018300Y001650D03*
X018300Y002650D03*
X017300Y002650D03*
X016300Y002650D03*
X016300Y001650D03*
X017300Y001650D03*
X015300Y001650D03*
X014300Y001650D03*
X014300Y002650D03*
X015300Y002650D03*
X013300Y002650D03*
X012300Y002650D03*
X012300Y001650D03*
X013300Y001650D03*
X011300Y001650D03*
X011300Y002650D03*
X010300Y002650D03*
X009300Y002650D03*
X009300Y001650D03*
X010300Y001650D03*
X008300Y001650D03*
X007300Y001650D03*
X007300Y002650D03*
X008300Y002650D03*
X006300Y002650D03*
X006300Y001650D03*
X005300Y001650D03*
X004300Y001650D03*
X004300Y002650D03*
X005300Y002650D03*
X005300Y018700D03*
X005300Y019700D03*
X004300Y019700D03*
X006300Y019700D03*
X006300Y018700D03*
X007300Y018700D03*
X008300Y018700D03*
X008300Y019700D03*
X007300Y019700D03*
X009300Y019700D03*
X010300Y019700D03*
X010300Y018700D03*
X009300Y018700D03*
X011300Y018700D03*
X011300Y019700D03*
X012300Y019700D03*
X013300Y019700D03*
X013300Y018700D03*
X012300Y018700D03*
X014300Y018700D03*
X015300Y018700D03*
X015300Y019700D03*
X014300Y019700D03*
X016300Y019700D03*
X017300Y019700D03*
X017300Y018700D03*
X016300Y018700D03*
X018300Y018700D03*
X018300Y019700D03*
X019300Y019700D03*
X020300Y019700D03*
X020300Y018700D03*
X019300Y018700D03*
X021300Y018700D03*
X022300Y018700D03*
X022300Y019700D03*
X021300Y019700D03*
X023300Y019700D03*
X023300Y018700D03*
X022300Y024500D03*
X021300Y024500D03*
X021300Y025500D03*
X022300Y025500D03*
X020300Y025500D03*
X019300Y025500D03*
X019300Y024500D03*
X020300Y024500D03*
X018300Y024500D03*
X018300Y025500D03*
X017300Y025500D03*
X016300Y025500D03*
X016300Y024500D03*
X017300Y024500D03*
X015300Y024500D03*
X015300Y025500D03*
D13*
X008100Y025950D02*
X008100Y026550D01*
X007100Y026550D02*
X007100Y025950D01*
X006100Y025950D02*
X006100Y026550D01*
D14*
X003300Y017500D03*
X003300Y016500D03*
X003300Y015500D03*
X002300Y015500D03*
X002300Y016500D03*
X002300Y014500D03*
X003300Y014500D03*
X003300Y013500D03*
X003300Y012500D03*
X003300Y011500D03*
X003300Y010500D03*
X003300Y009500D03*
X003300Y008500D03*
X003300Y007500D03*
X002300Y007500D03*
X002300Y008500D03*
X002300Y006500D03*
X003300Y006500D03*
X003300Y005500D03*
X003300Y004500D03*
X003300Y003500D03*
X003300Y002500D03*
X023300Y006500D03*
X024300Y006500D03*
X024300Y005500D03*
X024300Y004500D03*
X024300Y003500D03*
X024300Y002500D03*
X025300Y002500D03*
X025300Y003500D03*
X025300Y004500D03*
X025300Y005500D03*
X025300Y006500D03*
X025300Y007500D03*
X025300Y008500D03*
X025300Y009500D03*
X025300Y010500D03*
X025300Y011500D03*
X025300Y012500D03*
X025300Y013500D03*
X025300Y014500D03*
X025300Y015500D03*
X025300Y016500D03*
X025300Y017500D03*
X024300Y017500D03*
X024300Y016500D03*
X024300Y015500D03*
X023300Y015500D03*
X023300Y016500D03*
X023300Y014500D03*
X024300Y014500D03*
X024300Y013500D03*
X024300Y012500D03*
X024300Y011500D03*
X024300Y010500D03*
X024300Y009500D03*
X024300Y008500D03*
X024300Y007500D03*
X023300Y007500D03*
X023300Y008500D03*
X026300Y011500D03*
X026300Y012500D03*
X026300Y013500D03*
X026300Y005500D03*
X026300Y004500D03*
X026300Y003500D03*
D15*
X026300Y002500D03*
X023300Y009500D03*
X026300Y010500D03*
X023300Y017500D03*
X002300Y017500D03*
X002300Y009500D03*
D16*
X006836Y022583D02*
X006836Y022843D01*
X006836Y022583D02*
X006780Y022583D01*
X006780Y022843D01*
X006836Y022843D01*
X006836Y022637D02*
X006780Y022637D01*
X006780Y022691D02*
X006836Y022691D01*
X006836Y022745D02*
X006780Y022745D01*
X006780Y022799D02*
X006836Y022799D01*
X007033Y022843D02*
X007033Y022583D01*
X006977Y022583D01*
X006977Y022843D01*
X007033Y022843D01*
X007033Y022637D02*
X006977Y022637D01*
X006977Y022691D02*
X007033Y022691D01*
X007033Y022745D02*
X006977Y022745D01*
X006977Y022799D02*
X007033Y022799D01*
X007230Y022843D02*
X007230Y022583D01*
X007174Y022583D01*
X007174Y022843D01*
X007230Y022843D01*
X007230Y022637D02*
X007174Y022637D01*
X007174Y022691D02*
X007230Y022691D01*
X007230Y022745D02*
X007174Y022745D01*
X007174Y022799D02*
X007230Y022799D01*
X007426Y022843D02*
X007426Y022583D01*
X007370Y022583D01*
X007370Y022843D01*
X007426Y022843D01*
X007426Y022637D02*
X007370Y022637D01*
X007370Y022691D02*
X007426Y022691D01*
X007426Y022745D02*
X007370Y022745D01*
X007370Y022799D02*
X007426Y022799D01*
X007623Y022843D02*
X007623Y022583D01*
X007567Y022583D01*
X007567Y022843D01*
X007623Y022843D01*
X007623Y022637D02*
X007567Y022637D01*
X007567Y022691D02*
X007623Y022691D01*
X007623Y022745D02*
X007567Y022745D01*
X007567Y022799D02*
X007623Y022799D01*
X007820Y022843D02*
X007820Y022583D01*
X007764Y022583D01*
X007764Y022843D01*
X007820Y022843D01*
X007820Y022637D02*
X007764Y022637D01*
X007764Y022691D02*
X007820Y022691D01*
X007820Y022745D02*
X007764Y022745D01*
X007764Y022799D02*
X007820Y022799D01*
X007957Y022980D02*
X008217Y022980D01*
X007957Y022980D02*
X007957Y023036D01*
X008217Y023036D01*
X008217Y022980D01*
X008217Y023034D02*
X007957Y023034D01*
X007957Y023177D02*
X008217Y023177D01*
X007957Y023177D02*
X007957Y023233D01*
X008217Y023233D01*
X008217Y023177D01*
X008217Y023231D02*
X007957Y023231D01*
X007957Y023374D02*
X008217Y023374D01*
X007957Y023374D02*
X007957Y023430D01*
X008217Y023430D01*
X008217Y023374D01*
X008217Y023428D02*
X007957Y023428D01*
X007957Y023570D02*
X008217Y023570D01*
X007957Y023570D02*
X007957Y023626D01*
X008217Y023626D01*
X008217Y023570D01*
X008217Y023624D02*
X007957Y023624D01*
X007957Y023767D02*
X008217Y023767D01*
X007957Y023767D02*
X007957Y023823D01*
X008217Y023823D01*
X008217Y023767D01*
X008217Y023821D02*
X007957Y023821D01*
X007957Y023964D02*
X008217Y023964D01*
X007957Y023964D02*
X007957Y024020D01*
X008217Y024020D01*
X008217Y023964D01*
X008217Y024018D02*
X007957Y024018D01*
X007764Y024157D02*
X007764Y024417D01*
X007820Y024417D01*
X007820Y024157D01*
X007764Y024157D01*
X007764Y024211D02*
X007820Y024211D01*
X007820Y024265D02*
X007764Y024265D01*
X007764Y024319D02*
X007820Y024319D01*
X007820Y024373D02*
X007764Y024373D01*
X007567Y024417D02*
X007567Y024157D01*
X007567Y024417D02*
X007623Y024417D01*
X007623Y024157D01*
X007567Y024157D01*
X007567Y024211D02*
X007623Y024211D01*
X007623Y024265D02*
X007567Y024265D01*
X007567Y024319D02*
X007623Y024319D01*
X007623Y024373D02*
X007567Y024373D01*
X007370Y024417D02*
X007370Y024157D01*
X007370Y024417D02*
X007426Y024417D01*
X007426Y024157D01*
X007370Y024157D01*
X007370Y024211D02*
X007426Y024211D01*
X007426Y024265D02*
X007370Y024265D01*
X007370Y024319D02*
X007426Y024319D01*
X007426Y024373D02*
X007370Y024373D01*
X007174Y024417D02*
X007174Y024157D01*
X007174Y024417D02*
X007230Y024417D01*
X007230Y024157D01*
X007174Y024157D01*
X007174Y024211D02*
X007230Y024211D01*
X007230Y024265D02*
X007174Y024265D01*
X007174Y024319D02*
X007230Y024319D01*
X007230Y024373D02*
X007174Y024373D01*
X006977Y024417D02*
X006977Y024157D01*
X006977Y024417D02*
X007033Y024417D01*
X007033Y024157D01*
X006977Y024157D01*
X006977Y024211D02*
X007033Y024211D01*
X007033Y024265D02*
X006977Y024265D01*
X006977Y024319D02*
X007033Y024319D01*
X007033Y024373D02*
X006977Y024373D01*
X006780Y024417D02*
X006780Y024157D01*
X006780Y024417D02*
X006836Y024417D01*
X006836Y024157D01*
X006780Y024157D01*
X006780Y024211D02*
X006836Y024211D01*
X006836Y024265D02*
X006780Y024265D01*
X006780Y024319D02*
X006836Y024319D01*
X006836Y024373D02*
X006780Y024373D01*
X006643Y024020D02*
X006383Y024020D01*
X006643Y024020D02*
X006643Y023964D01*
X006383Y023964D01*
X006383Y024020D01*
X006383Y024018D02*
X006643Y024018D01*
X006643Y023823D02*
X006383Y023823D01*
X006643Y023823D02*
X006643Y023767D01*
X006383Y023767D01*
X006383Y023823D01*
X006383Y023821D02*
X006643Y023821D01*
X006643Y023626D02*
X006383Y023626D01*
X006643Y023626D02*
X006643Y023570D01*
X006383Y023570D01*
X006383Y023626D01*
X006383Y023624D02*
X006643Y023624D01*
X006643Y023430D02*
X006383Y023430D01*
X006643Y023430D02*
X006643Y023374D01*
X006383Y023374D01*
X006383Y023430D01*
X006383Y023428D02*
X006643Y023428D01*
X006643Y023233D02*
X006383Y023233D01*
X006643Y023233D02*
X006643Y023177D01*
X006383Y023177D01*
X006383Y023233D01*
X006383Y023231D02*
X006643Y023231D01*
X006643Y023036D02*
X006383Y023036D01*
X006643Y023036D02*
X006643Y022980D01*
X006383Y022980D01*
X006383Y023036D01*
X006383Y023034D02*
X006643Y023034D01*
D17*
X007300Y023500D03*
D18*
X004178Y021768D03*
X004178Y025232D03*
D19*
X004400Y024130D03*
X004400Y023815D03*
X004400Y023500D03*
X004400Y023185D03*
X004400Y022870D03*
D20*
X002013Y021768D03*
X002013Y025232D03*
D21*
X005550Y022374D03*
X005550Y021626D03*
X002100Y019874D03*
X002100Y019126D03*
X001900Y003874D03*
X001900Y003126D03*
X026800Y016126D03*
X026800Y016874D03*
D22*
X009300Y023586D03*
X009300Y024414D03*
D23*
X007614Y021700D03*
X006786Y021700D03*
D24*
X016876Y021750D03*
X017624Y021750D03*
D25*
X017998Y021560D02*
X018023Y021560D01*
X018113Y021470D01*
X018234Y021420D01*
X018366Y021420D01*
X018487Y021470D01*
X018580Y021563D01*
X018630Y021684D01*
X018630Y021816D01*
X018580Y021937D01*
X018487Y022030D01*
X018366Y022080D01*
X018234Y022080D01*
X018113Y022030D01*
X018023Y021940D01*
X017998Y021940D01*
X017998Y022099D01*
X017922Y022175D01*
X017326Y022175D01*
X017258Y022107D01*
X017240Y022137D01*
X017212Y022165D01*
X017178Y022185D01*
X017140Y022195D01*
X016926Y022195D01*
X016926Y021800D01*
X016826Y021800D01*
X016826Y022195D01*
X016612Y022195D01*
X016574Y022185D01*
X016540Y022165D01*
X016512Y022137D01*
X016492Y022103D01*
X016482Y022065D01*
X016482Y021800D01*
X016826Y021800D01*
X016826Y021700D01*
X016926Y021700D01*
X016926Y021305D01*
X017140Y021305D01*
X017178Y021315D01*
X017212Y021335D01*
X017240Y021363D01*
X017258Y021393D01*
X017326Y021325D01*
X017922Y021325D01*
X017998Y021401D01*
X017998Y021560D01*
X017998Y021481D02*
X018103Y021481D01*
X017979Y021382D02*
X019120Y021382D01*
X019120Y021284D02*
X015480Y021284D01*
X015480Y021325D02*
X018225Y024070D01*
X018245Y024090D01*
X018470Y024090D01*
X018710Y024330D01*
X018710Y024670D01*
X018470Y024910D01*
X018130Y024910D01*
X017890Y024670D01*
X017890Y024330D01*
X017933Y024287D01*
X017480Y023835D01*
X017480Y024100D01*
X017710Y024330D01*
X017710Y024670D01*
X017470Y024910D01*
X017130Y024910D01*
X016980Y024760D01*
X016980Y024925D01*
X017145Y025090D01*
X017470Y025090D01*
X017710Y025330D01*
X017710Y025670D01*
X017470Y025910D01*
X017130Y025910D01*
X016890Y025670D01*
X016890Y025345D01*
X016620Y025075D01*
X016620Y024760D01*
X016470Y024910D01*
X016130Y024910D01*
X015890Y024670D01*
X015890Y024345D01*
X013225Y021680D01*
X013120Y021575D01*
X013120Y020100D01*
X012890Y019870D01*
X012890Y019530D01*
X013130Y019290D01*
X013470Y019290D01*
X013710Y019530D01*
X013710Y019870D01*
X013480Y020100D01*
X013480Y021425D01*
X016145Y024090D01*
X016470Y024090D01*
X016620Y024240D01*
X016620Y024125D01*
X014120Y021625D01*
X014120Y020100D01*
X013890Y019870D01*
X013890Y019530D01*
X014130Y019290D01*
X014470Y019290D01*
X014620Y019440D01*
X014620Y019275D01*
X014455Y019110D01*
X014130Y019110D01*
X013890Y018870D01*
X013890Y018530D01*
X014130Y018290D01*
X014470Y018290D01*
X014710Y018530D01*
X014710Y018855D01*
X014875Y019020D01*
X014980Y019125D01*
X014980Y019440D01*
X015130Y019290D01*
X015470Y019290D01*
X015620Y019440D01*
X015620Y019375D01*
X015355Y019110D01*
X015130Y019110D01*
X014890Y018870D01*
X014890Y018530D01*
X015130Y018290D01*
X015470Y018290D01*
X015710Y018530D01*
X015710Y018870D01*
X015667Y018913D01*
X015875Y019120D01*
X015980Y019225D01*
X015980Y019440D01*
X016130Y019290D01*
X016455Y019290D01*
X016620Y019125D01*
X016620Y018960D01*
X016470Y019110D01*
X016130Y019110D01*
X015890Y018870D01*
X015890Y018545D01*
X005025Y007680D01*
X003668Y007680D01*
X003460Y007887D01*
X003140Y007887D01*
X002913Y007660D01*
X002913Y007340D01*
X003140Y007113D01*
X003460Y007113D01*
X003668Y007320D01*
X003815Y007320D01*
X003770Y007275D01*
X003383Y006887D01*
X003140Y006887D01*
X002913Y006660D01*
X002913Y006340D01*
X003072Y006180D01*
X002925Y006180D01*
X002820Y006075D01*
X002620Y005875D01*
X002620Y004625D01*
X002725Y004520D01*
X002925Y004320D01*
X002932Y004320D01*
X003140Y004113D01*
X003460Y004113D01*
X003687Y004340D01*
X003687Y004660D01*
X003460Y004887D01*
X003140Y004887D01*
X003003Y004751D01*
X002980Y004775D01*
X002980Y005272D01*
X003140Y005113D01*
X003460Y005113D01*
X003668Y005320D01*
X005275Y005320D01*
X017775Y017820D01*
X017865Y017820D01*
X003725Y003680D01*
X003668Y003680D01*
X003460Y003887D01*
X003140Y003887D01*
X002913Y003660D01*
X002913Y003340D01*
X003140Y003113D01*
X003458Y003113D01*
X003353Y003007D01*
X003271Y002980D01*
X003225Y002980D01*
X003203Y002957D01*
X003172Y002947D01*
X003152Y002907D01*
X003120Y002875D01*
X003120Y002868D01*
X002913Y002660D01*
X002913Y002340D01*
X003140Y002113D01*
X003460Y002113D01*
X003620Y002272D01*
X003620Y002075D01*
X003725Y001970D01*
X003890Y001805D01*
X003890Y001480D01*
X004130Y001240D01*
X004470Y001240D01*
X004710Y001480D01*
X004710Y001820D01*
X004470Y002060D01*
X004145Y002060D01*
X003980Y002225D01*
X003980Y002390D01*
X004130Y002240D01*
X004470Y002240D01*
X004620Y002390D01*
X004620Y002075D01*
X004725Y001970D01*
X004890Y001805D01*
X004890Y001480D01*
X005130Y001240D01*
X005470Y001240D01*
X005710Y001480D01*
X005710Y001820D01*
X005470Y002060D01*
X005145Y002060D01*
X004980Y002225D01*
X004980Y002390D01*
X005130Y002240D01*
X005470Y002240D01*
X005620Y002390D01*
X005620Y002075D01*
X005725Y001970D01*
X005890Y001805D01*
X005890Y001480D01*
X006130Y001240D01*
X006470Y001240D01*
X006710Y001480D01*
X006710Y001820D01*
X006470Y002060D01*
X006145Y002060D01*
X005980Y002225D01*
X005980Y002390D01*
X006130Y002240D01*
X006470Y002240D01*
X006620Y002390D01*
X006620Y002075D01*
X006725Y001970D01*
X006890Y001805D01*
X006890Y001480D01*
X007130Y001240D01*
X007470Y001240D01*
X007710Y001480D01*
X007710Y001820D01*
X007470Y002060D01*
X007145Y002060D01*
X006980Y002225D01*
X006980Y002390D01*
X007130Y002240D01*
X007470Y002240D01*
X007620Y002390D01*
X007620Y002075D01*
X007725Y001970D01*
X007890Y001805D01*
X007890Y001480D01*
X008130Y001240D01*
X008470Y001240D01*
X008710Y001480D01*
X008710Y001820D01*
X008470Y002060D01*
X008145Y002060D01*
X007980Y002225D01*
X007980Y002390D01*
X008130Y002240D01*
X008470Y002240D01*
X008710Y002480D01*
X008710Y002707D01*
X008711Y002707D01*
X008762Y002742D01*
X008765Y002756D01*
X009169Y003120D01*
X009175Y003120D01*
X009224Y003169D01*
X009276Y003216D01*
X009276Y003222D01*
X009620Y003565D01*
X009620Y002910D01*
X009470Y003060D01*
X009130Y003060D01*
X008890Y002820D01*
X008890Y002480D01*
X009130Y002240D01*
X009470Y002240D01*
X009620Y002390D01*
X009620Y002075D01*
X009725Y001970D01*
X009890Y001805D01*
X009890Y001480D01*
X010130Y001240D01*
X010470Y001240D01*
X010710Y001480D01*
X010710Y001820D01*
X010470Y002060D01*
X010145Y002060D01*
X009980Y002225D01*
X009980Y002390D01*
X010130Y002240D01*
X010470Y002240D01*
X010620Y002390D01*
X010620Y002075D01*
X010725Y001970D01*
X010890Y001805D01*
X010890Y001480D01*
X011130Y001240D01*
X011470Y001240D01*
X011710Y001480D01*
X011710Y001820D01*
X011470Y002060D01*
X011145Y002060D01*
X010980Y002225D01*
X010980Y002390D01*
X011130Y002240D01*
X011470Y002240D01*
X011620Y002390D01*
X011620Y002075D01*
X011725Y001970D01*
X011890Y001805D01*
X011890Y001480D01*
X012130Y001240D01*
X012470Y001240D01*
X012710Y001480D01*
X012710Y001820D01*
X012470Y002060D01*
X012145Y002060D01*
X011980Y002225D01*
X011980Y002390D01*
X012130Y002240D01*
X012470Y002240D01*
X012620Y002390D01*
X012620Y002075D01*
X012725Y001970D01*
X012890Y001805D01*
X012890Y001480D01*
X013130Y001240D01*
X013470Y001240D01*
X013710Y001480D01*
X013710Y001820D01*
X013470Y002060D01*
X013145Y002060D01*
X012980Y002225D01*
X012980Y002390D01*
X013130Y002240D01*
X013470Y002240D01*
X013620Y002390D01*
X013620Y002075D01*
X013725Y001970D01*
X013890Y001805D01*
X013890Y001480D01*
X014130Y001240D01*
X014470Y001240D01*
X014710Y001480D01*
X014710Y001820D01*
X014470Y002060D01*
X014145Y002060D01*
X013980Y002225D01*
X013980Y002390D01*
X014130Y002240D01*
X014470Y002240D01*
X014620Y002390D01*
X014620Y002075D01*
X014725Y001970D01*
X014890Y001805D01*
X014890Y001480D01*
X015130Y001240D01*
X015470Y001240D01*
X015710Y001480D01*
X015710Y001820D01*
X015470Y002060D01*
X015145Y002060D01*
X014980Y002225D01*
X014980Y002390D01*
X015130Y002240D01*
X015470Y002240D01*
X015670Y002440D01*
X015670Y002025D01*
X015775Y001920D01*
X015890Y001805D01*
X015890Y001480D01*
X016130Y001240D01*
X016470Y001240D01*
X016710Y001480D01*
X016710Y001820D01*
X016470Y002060D01*
X016145Y002060D01*
X016030Y002175D01*
X016030Y002340D01*
X016130Y002240D01*
X016470Y002240D01*
X016620Y002390D01*
X016620Y002075D01*
X016725Y001970D01*
X016890Y001805D01*
X016890Y001480D01*
X017130Y001240D01*
X017470Y001240D01*
X017710Y001480D01*
X017710Y001820D01*
X017470Y002060D01*
X017145Y002060D01*
X016980Y002225D01*
X016980Y002390D01*
X017130Y002240D01*
X017470Y002240D01*
X017710Y002480D01*
X017710Y002820D01*
X017667Y002863D01*
X019625Y004820D01*
X024072Y004820D01*
X023932Y004680D01*
X019975Y004680D01*
X019870Y004575D01*
X018620Y003325D01*
X018620Y002910D01*
X018470Y003060D01*
X018130Y003060D01*
X017890Y002820D01*
X017890Y002480D01*
X018130Y002240D01*
X018470Y002240D01*
X018620Y002390D01*
X018620Y002125D01*
X018725Y002020D01*
X018725Y002020D01*
X018908Y001838D01*
X018890Y001820D01*
X018890Y001480D01*
X019130Y001240D01*
X019470Y001240D01*
X019710Y001480D01*
X019710Y001820D01*
X019470Y002060D01*
X019195Y002060D01*
X018980Y002275D01*
X018980Y002390D01*
X019130Y002240D01*
X019470Y002240D01*
X019710Y002480D01*
X019710Y002805D01*
X020825Y003920D01*
X020915Y003920D01*
X020225Y003230D01*
X020120Y003125D01*
X020120Y003050D01*
X019890Y002820D01*
X019890Y002480D01*
X020130Y002240D01*
X020435Y002240D01*
X020255Y002060D01*
X020130Y002060D01*
X019890Y001820D01*
X019890Y001480D01*
X020130Y001240D01*
X020470Y001240D01*
X020710Y001480D01*
X020710Y001820D01*
X020617Y001913D01*
X020875Y002170D01*
X020980Y002275D01*
X020980Y002390D01*
X021130Y002240D01*
X021470Y002240D01*
X021710Y002480D01*
X021710Y002805D01*
X022075Y003170D01*
X023625Y003170D01*
X023975Y002820D01*
X024072Y002820D01*
X023913Y002660D01*
X023913Y002340D01*
X024120Y002132D01*
X024120Y001325D01*
X023975Y001180D01*
X021875Y001180D01*
X021642Y001412D01*
X021710Y001480D01*
X021710Y001820D01*
X021470Y002060D01*
X021130Y002060D01*
X020890Y001820D01*
X020890Y001480D01*
X021130Y001240D01*
X021305Y001240D01*
X021595Y000950D01*
X001250Y000950D01*
X001250Y021138D01*
X002816Y021138D01*
X002893Y021214D01*
X002893Y022058D01*
X003065Y021987D01*
X003322Y021987D01*
X003560Y022085D01*
X003576Y022101D01*
X003576Y021320D01*
X003652Y021244D01*
X004704Y021244D01*
X004780Y021320D01*
X004780Y022215D01*
X004704Y022291D01*
X003752Y022291D01*
X003841Y022505D01*
X003841Y022665D01*
X003854Y022652D01*
X003888Y022632D01*
X003926Y022622D01*
X004400Y022622D01*
X004874Y022622D01*
X004912Y022632D01*
X004946Y022652D01*
X004974Y022680D01*
X004994Y022714D01*
X005004Y022752D01*
X005004Y022870D01*
X004400Y022870D01*
X004400Y022622D01*
X004400Y022870D01*
X004400Y022870D01*
X004400Y022870D01*
X003796Y022870D01*
X003796Y022870D01*
X004400Y022870D01*
X004400Y022870D01*
X005004Y022870D01*
X005004Y022988D01*
X004994Y023026D01*
X004984Y023043D01*
X004984Y023320D01*
X005413Y023320D01*
X005370Y023216D01*
X005370Y023084D01*
X005420Y022963D01*
X005513Y022870D01*
X005634Y022820D01*
X005766Y022820D01*
X005887Y022870D01*
X005920Y022903D01*
X005920Y022748D01*
X005903Y022758D01*
X005865Y022768D01*
X005600Y022768D01*
X005600Y022424D01*
X005500Y022424D01*
X005500Y022324D01*
X005105Y022324D01*
X005105Y022110D01*
X005115Y022072D01*
X005135Y022038D01*
X005163Y022010D01*
X005193Y021992D01*
X005125Y021924D01*
X005125Y021328D01*
X005201Y021252D01*
X005370Y021252D01*
X005370Y021225D01*
X005465Y021130D01*
X003683Y021130D01*
X003680Y021137D01*
X003587Y021230D01*
X003466Y021280D01*
X003334Y021280D01*
X003213Y021230D01*
X003123Y021140D01*
X003108Y021140D01*
X003037Y021146D01*
X003030Y021140D01*
X003021Y021140D01*
X002971Y021090D01*
X002030Y020290D01*
X002021Y020290D01*
X001979Y020248D01*
X001751Y020248D01*
X001675Y020172D01*
X001675Y019576D01*
X001743Y019508D01*
X001713Y019490D01*
X001685Y019462D01*
X001665Y019428D01*
X001655Y019390D01*
X001655Y019176D01*
X002050Y019176D01*
X002050Y019076D01*
X001655Y019076D01*
X001655Y018862D01*
X001665Y018824D01*
X001685Y018790D01*
X001713Y018762D01*
X001747Y018742D01*
X001785Y018732D01*
X002050Y018732D01*
X002050Y019076D01*
X002150Y019076D01*
X002150Y019176D01*
X002545Y019176D01*
X002545Y019390D01*
X002535Y019428D01*
X002515Y019462D01*
X002487Y019490D01*
X002457Y019508D01*
X002525Y019576D01*
X002525Y020172D01*
X002504Y020194D01*
X003145Y020739D01*
X003213Y020670D01*
X003334Y020620D01*
X003466Y020620D01*
X003587Y020670D01*
X003680Y020763D01*
X003683Y020770D01*
X005614Y020770D01*
X005734Y020720D01*
X005866Y020720D01*
X005987Y020770D01*
X006080Y020863D01*
X006130Y020984D01*
X006130Y021116D01*
X006080Y021237D01*
X005987Y021330D01*
X005975Y021335D01*
X005975Y021420D01*
X006025Y021420D01*
X006130Y021525D01*
X006280Y021675D01*
X006280Y022270D01*
X006620Y022270D01*
X006620Y022027D01*
X006437Y022027D01*
X006360Y021951D01*
X006360Y021449D01*
X006437Y021373D01*
X007135Y021373D01*
X007189Y021428D01*
X007199Y021411D01*
X007227Y021383D01*
X007261Y021363D01*
X007299Y021353D01*
X007566Y021353D01*
X007566Y021652D01*
X007663Y021652D01*
X007663Y021748D01*
X008060Y021748D01*
X008060Y021917D01*
X008049Y021955D01*
X008030Y021989D01*
X008002Y022017D01*
X007968Y022037D01*
X007929Y022047D01*
X007663Y022047D01*
X007663Y021748D01*
X007566Y021748D01*
X007566Y022047D01*
X007299Y022047D01*
X007261Y022037D01*
X007227Y022017D01*
X007199Y021989D01*
X007189Y021972D01*
X007135Y022027D01*
X006980Y022027D01*
X006980Y022070D01*
X009175Y022070D01*
X009280Y022175D01*
X009480Y022375D01*
X009480Y023160D01*
X009551Y023160D01*
X009627Y023237D01*
X009627Y023935D01*
X009562Y024000D01*
X009627Y024065D01*
X009627Y024763D01*
X009551Y024840D01*
X009480Y024840D01*
X009480Y024875D01*
X008930Y025425D01*
X008825Y025530D01*
X008264Y025530D01*
X008273Y025533D01*
X008336Y025565D01*
X008393Y025607D01*
X008443Y025657D01*
X008485Y025714D01*
X008517Y025777D01*
X008539Y025845D01*
X008550Y025915D01*
X008550Y026200D01*
X008150Y026200D01*
X008150Y026300D01*
X008050Y026300D01*
X008050Y026998D01*
X007995Y026989D01*
X007927Y026967D01*
X007864Y026935D01*
X007807Y026893D01*
X007757Y026843D01*
X007715Y026786D01*
X007683Y026723D01*
X007661Y026655D01*
X007650Y026585D01*
X007650Y026300D01*
X008050Y026300D01*
X008050Y026200D01*
X007650Y026200D01*
X007650Y025915D01*
X007661Y025845D01*
X007683Y025777D01*
X007715Y025714D01*
X007757Y025657D01*
X007807Y025607D01*
X007864Y025565D01*
X007927Y025533D01*
X007936Y025530D01*
X007210Y025530D01*
X007344Y025585D01*
X007465Y025706D01*
X007530Y025864D01*
X007530Y026636D01*
X007465Y026794D01*
X007344Y026915D01*
X007186Y026980D01*
X007014Y026980D01*
X006856Y026915D01*
X006735Y026794D01*
X006670Y026636D01*
X006670Y025864D01*
X006735Y025706D01*
X006856Y025585D01*
X006990Y025530D01*
X006210Y025530D01*
X006344Y025585D01*
X006465Y025706D01*
X006530Y025864D01*
X006530Y026636D01*
X006465Y026794D01*
X006344Y026915D01*
X006186Y026980D01*
X006014Y026980D01*
X005856Y026915D01*
X005735Y026794D01*
X005670Y026636D01*
X005670Y025864D01*
X005735Y025706D01*
X005856Y025585D01*
X005990Y025530D01*
X005725Y025530D01*
X005070Y024875D01*
X005070Y024425D01*
X004956Y024311D01*
X004908Y024358D01*
X003892Y024358D01*
X003841Y024307D01*
X003841Y024495D01*
X003752Y024709D01*
X004704Y024709D01*
X004780Y024785D01*
X004780Y025680D01*
X004704Y025756D01*
X003652Y025756D01*
X003576Y025680D01*
X003576Y024899D01*
X003560Y024915D01*
X003322Y025013D01*
X003065Y025013D01*
X002893Y024942D01*
X002893Y025786D01*
X002816Y025862D01*
X001250Y025862D01*
X001250Y027020D01*
X027343Y027020D01*
X027391Y000950D01*
X024255Y000950D01*
X024375Y001070D01*
X024480Y001175D01*
X024480Y002132D01*
X024687Y002340D01*
X024687Y002660D01*
X024528Y002820D01*
X024725Y002820D01*
X024913Y002633D01*
X024913Y002340D01*
X025140Y002113D01*
X025460Y002113D01*
X025687Y002340D01*
X025687Y002660D01*
X025460Y002887D01*
X025167Y002887D01*
X024875Y003180D01*
X024528Y003180D01*
X024687Y003340D01*
X024687Y003660D01*
X024628Y003720D01*
X024825Y003720D01*
X024913Y003633D01*
X024913Y003340D01*
X025140Y003113D01*
X025460Y003113D01*
X025687Y003340D01*
X025687Y003660D01*
X025460Y003887D01*
X025167Y003887D01*
X025080Y003975D01*
X025080Y003975D01*
X025130Y004025D01*
X025217Y004113D01*
X025460Y004113D01*
X025687Y004340D01*
X025687Y004660D01*
X025460Y004887D01*
X025140Y004887D01*
X024913Y004660D01*
X024913Y004340D01*
X024924Y004328D01*
X024875Y004280D01*
X024628Y004280D01*
X024687Y004340D01*
X024687Y004660D01*
X024528Y004820D01*
X024875Y004820D01*
X024980Y004925D01*
X025167Y005113D01*
X025460Y005113D01*
X025687Y005340D01*
X025687Y005660D01*
X025460Y005887D01*
X025140Y005887D01*
X024913Y005660D01*
X024913Y005367D01*
X024725Y005180D01*
X024528Y005180D01*
X024687Y005340D01*
X024687Y005660D01*
X024528Y005820D01*
X024875Y005820D01*
X024980Y005925D01*
X025167Y006113D01*
X025460Y006113D01*
X025687Y006340D01*
X025687Y006660D01*
X025460Y006887D01*
X025140Y006887D01*
X024913Y006660D01*
X024913Y006367D01*
X024725Y006180D01*
X024528Y006180D01*
X024687Y006340D01*
X024687Y006660D01*
X024628Y006720D01*
X024825Y006720D01*
X024930Y006825D01*
X025217Y007113D01*
X025460Y007113D01*
X025687Y007340D01*
X025687Y007660D01*
X025460Y007887D01*
X025140Y007887D01*
X024913Y007660D01*
X024913Y007340D01*
X024924Y007328D01*
X024675Y007080D01*
X024135Y007080D01*
X024167Y007113D01*
X024460Y007113D01*
X024687Y007340D01*
X024687Y007660D01*
X024628Y007720D01*
X024775Y007720D01*
X024880Y007825D01*
X025167Y008113D01*
X025460Y008113D01*
X025687Y008340D01*
X025687Y008660D01*
X025460Y008887D01*
X025140Y008887D01*
X024913Y008660D01*
X024913Y008367D01*
X024625Y008080D01*
X024135Y008080D01*
X024167Y008113D01*
X024460Y008113D01*
X024687Y008340D01*
X024687Y008660D01*
X024628Y008720D01*
X024775Y008720D01*
X024880Y008825D01*
X025167Y009113D01*
X025460Y009113D01*
X025687Y009340D01*
X025687Y009660D01*
X025460Y009887D01*
X025140Y009887D01*
X024913Y009660D01*
X024913Y009367D01*
X024625Y009080D01*
X024135Y009080D01*
X024167Y009113D01*
X024460Y009113D01*
X024687Y009340D01*
X024687Y009660D01*
X024478Y009870D01*
X024925Y009870D01*
X025167Y010113D01*
X025460Y010113D01*
X025687Y010340D01*
X025687Y010660D01*
X025460Y010887D01*
X025140Y010887D01*
X024913Y010660D01*
X024913Y010367D01*
X024775Y010230D01*
X024578Y010230D01*
X024687Y010340D01*
X024687Y010660D01*
X024528Y010820D01*
X024875Y010820D01*
X024980Y010925D01*
X025167Y011113D01*
X025460Y011113D01*
X025687Y011340D01*
X025687Y011660D01*
X025460Y011887D01*
X025140Y011887D01*
X024913Y011660D01*
X024913Y011367D01*
X024725Y011180D01*
X024528Y011180D01*
X024687Y011340D01*
X024687Y011660D01*
X024528Y011820D01*
X024875Y011820D01*
X024980Y011925D01*
X025167Y012113D01*
X025460Y012113D01*
X025687Y012340D01*
X025687Y012660D01*
X025460Y012887D01*
X025140Y012887D01*
X024913Y012660D01*
X024913Y012367D01*
X024725Y012180D01*
X024528Y012180D01*
X024687Y012340D01*
X024687Y012660D01*
X024528Y012820D01*
X024875Y012820D01*
X024980Y012925D01*
X025167Y013113D01*
X025460Y013113D01*
X025687Y013340D01*
X025687Y013660D01*
X025460Y013887D01*
X025140Y013887D01*
X024913Y013660D01*
X024913Y013367D01*
X024725Y013180D01*
X024528Y013180D01*
X024687Y013340D01*
X024687Y013660D01*
X024528Y013820D01*
X024875Y013820D01*
X024980Y013925D01*
X025167Y014113D01*
X025460Y014113D01*
X025687Y014340D01*
X025687Y014660D01*
X025460Y014887D01*
X025140Y014887D01*
X024913Y014660D01*
X024913Y014367D01*
X024725Y014180D01*
X024528Y014180D01*
X024687Y014340D01*
X024687Y014660D01*
X024628Y014720D01*
X024775Y014720D01*
X024880Y014825D01*
X025167Y015113D01*
X025460Y015113D01*
X025687Y015340D01*
X025687Y015660D01*
X025460Y015887D01*
X025140Y015887D01*
X024913Y015660D01*
X024913Y015367D01*
X024625Y015080D01*
X024135Y015080D01*
X024167Y015113D01*
X024460Y015113D01*
X024687Y015340D01*
X024687Y015660D01*
X024628Y015720D01*
X024775Y015720D01*
X024880Y015825D01*
X025167Y016113D01*
X025460Y016113D01*
X025687Y016340D01*
X025687Y016660D01*
X025460Y016887D01*
X025140Y016887D01*
X024913Y016660D01*
X024913Y016367D01*
X024625Y016080D01*
X024135Y016080D01*
X024167Y016113D01*
X024460Y016113D01*
X024687Y016340D01*
X024687Y016660D01*
X024628Y016720D01*
X024775Y016720D01*
X025167Y017113D01*
X025460Y017113D01*
X025687Y017340D01*
X025687Y017660D01*
X025460Y017887D01*
X025140Y017887D01*
X024913Y017660D01*
X024913Y017367D01*
X024625Y017080D01*
X024135Y017080D01*
X024167Y017113D01*
X024460Y017113D01*
X024687Y017340D01*
X024687Y017660D01*
X024460Y017887D01*
X024140Y017887D01*
X023913Y017660D01*
X023913Y017367D01*
X023875Y017330D01*
X023825Y017280D01*
X023707Y017280D01*
X023707Y017471D01*
X023329Y017471D01*
X023329Y017529D01*
X023271Y017529D01*
X023271Y017907D01*
X023023Y017907D01*
X022985Y017897D01*
X022950Y017878D01*
X022922Y017850D01*
X022903Y017815D01*
X022893Y017777D01*
X022893Y017529D01*
X023271Y017529D01*
X023271Y017471D01*
X022893Y017471D01*
X022893Y017280D01*
X018135Y017280D01*
X018225Y017370D01*
X022225Y017370D01*
X023145Y018290D01*
X023470Y018290D01*
X023710Y018530D01*
X023710Y018870D01*
X023470Y019110D01*
X023130Y019110D01*
X022890Y018870D01*
X022890Y018545D01*
X022075Y017730D01*
X021535Y017730D01*
X021925Y018120D01*
X022030Y018225D01*
X022030Y018390D01*
X022130Y018290D01*
X022470Y018290D01*
X022710Y018530D01*
X022710Y018870D01*
X022470Y019110D01*
X022130Y019110D01*
X022030Y019010D01*
X022030Y019175D01*
X022145Y019290D01*
X022470Y019290D01*
X022710Y019530D01*
X022710Y019870D01*
X022470Y020110D01*
X022130Y020110D01*
X021890Y019870D01*
X021890Y019545D01*
X021670Y019325D01*
X021670Y018910D01*
X021470Y019110D01*
X021245Y019110D01*
X020980Y019375D01*
X020980Y019440D01*
X021130Y019290D01*
X021470Y019290D01*
X021710Y019530D01*
X021710Y019870D01*
X021667Y019913D01*
X022480Y020725D01*
X022480Y024100D01*
X022710Y024330D01*
X022710Y024670D01*
X022470Y024910D01*
X022130Y024910D01*
X021980Y024760D01*
X021980Y025075D01*
X021710Y025345D01*
X021710Y025670D01*
X021470Y025910D01*
X021130Y025910D01*
X020890Y025670D01*
X020890Y025330D01*
X021130Y025090D01*
X021455Y025090D01*
X021620Y024925D01*
X021620Y024760D01*
X021470Y024910D01*
X021130Y024910D01*
X021030Y024810D01*
X021030Y025025D01*
X020710Y025345D01*
X020710Y025670D01*
X020470Y025910D01*
X020130Y025910D01*
X019890Y025670D01*
X019890Y025330D01*
X020130Y025090D01*
X020455Y025090D01*
X020670Y024875D01*
X020670Y024710D01*
X020470Y024910D01*
X020130Y024910D01*
X019980Y024760D01*
X019980Y025025D01*
X019875Y025130D01*
X019692Y025312D01*
X019710Y025330D01*
X019710Y025670D01*
X019470Y025910D01*
X019130Y025910D01*
X018890Y025670D01*
X018890Y025330D01*
X019130Y025090D01*
X019405Y025090D01*
X019620Y024875D01*
X019620Y024760D01*
X019470Y024910D01*
X019130Y024910D01*
X018890Y024670D01*
X018890Y024330D01*
X019120Y024100D01*
X019120Y021275D01*
X018975Y021130D01*
X016475Y021130D01*
X015620Y020275D01*
X015620Y019960D01*
X015480Y020100D01*
X015480Y021325D01*
X015537Y021382D02*
X016501Y021382D01*
X016492Y021397D02*
X016512Y021363D01*
X016540Y021335D01*
X016574Y021315D01*
X016612Y021305D01*
X016826Y021305D01*
X016826Y021700D01*
X016482Y021700D01*
X016482Y021435D01*
X016492Y021397D01*
X016482Y021481D02*
X015635Y021481D01*
X015734Y021579D02*
X016482Y021579D01*
X016482Y021678D02*
X015832Y021678D01*
X015931Y021776D02*
X016826Y021776D01*
X016826Y021678D02*
X016926Y021678D01*
X016926Y021579D02*
X016826Y021579D01*
X016826Y021481D02*
X016926Y021481D01*
X016926Y021382D02*
X016826Y021382D01*
X017251Y021382D02*
X017269Y021382D01*
X016926Y021875D02*
X016826Y021875D01*
X016826Y021973D02*
X016926Y021973D01*
X016926Y022072D02*
X016826Y022072D01*
X016826Y022170D02*
X016926Y022170D01*
X017204Y022170D02*
X017321Y022170D01*
X016817Y022663D02*
X019120Y022663D01*
X019120Y022761D02*
X016916Y022761D01*
X017014Y022860D02*
X019120Y022860D01*
X019120Y022958D02*
X017113Y022958D01*
X017211Y023057D02*
X019120Y023057D01*
X019120Y023155D02*
X017310Y023155D01*
X017408Y023254D02*
X019120Y023254D01*
X019120Y023352D02*
X017507Y023352D01*
X017605Y023451D02*
X019120Y023451D01*
X019120Y023549D02*
X017704Y023549D01*
X017802Y023648D02*
X019120Y023648D01*
X019120Y023746D02*
X017901Y023746D01*
X017999Y023845D02*
X019120Y023845D01*
X019120Y023943D02*
X018098Y023943D01*
X018196Y024042D02*
X019120Y024042D01*
X019080Y024140D02*
X018520Y024140D01*
X018618Y024239D02*
X018982Y024239D01*
X018890Y024337D02*
X018710Y024337D01*
X018710Y024436D02*
X018890Y024436D01*
X018890Y024534D02*
X018710Y024534D01*
X018710Y024633D02*
X018890Y024633D01*
X018951Y024731D02*
X018649Y024731D01*
X018550Y024830D02*
X019050Y024830D01*
X019095Y025125D02*
X018533Y025125D01*
X018478Y025070D02*
X018340Y025070D01*
X018340Y025460D01*
X018340Y025540D01*
X018730Y025540D01*
X018730Y025678D01*
X018478Y025930D01*
X018340Y025930D01*
X018340Y025540D01*
X018260Y025540D01*
X018260Y025930D01*
X018122Y025930D01*
X017870Y025678D01*
X017870Y025540D01*
X018260Y025540D01*
X018260Y025460D01*
X018340Y025460D01*
X018730Y025460D01*
X018730Y025322D01*
X018898Y025322D01*
X018890Y025421D02*
X018730Y025421D01*
X018730Y025322D02*
X018478Y025070D01*
X018340Y025125D02*
X018260Y025125D01*
X018260Y025070D02*
X018122Y025070D01*
X017870Y025322D01*
X017702Y025322D01*
X017710Y025421D02*
X017870Y025421D01*
X017870Y025460D02*
X017870Y025322D01*
X017870Y025460D02*
X018260Y025460D01*
X018260Y025070D01*
X018260Y025224D02*
X018340Y025224D01*
X018340Y025322D02*
X018260Y025322D01*
X018260Y025421D02*
X018340Y025421D01*
X018340Y025519D02*
X018890Y025519D01*
X018890Y025618D02*
X018730Y025618D01*
X018692Y025716D02*
X018936Y025716D01*
X019035Y025815D02*
X018594Y025815D01*
X018495Y025913D02*
X022105Y025913D01*
X022122Y025930D02*
X021870Y025678D01*
X021870Y025540D01*
X022260Y025540D01*
X022260Y025930D01*
X022122Y025930D01*
X022260Y025913D02*
X022340Y025913D01*
X022340Y025930D02*
X022478Y025930D01*
X022730Y025678D01*
X022730Y025540D01*
X022340Y025540D01*
X022340Y025460D01*
X022730Y025460D01*
X022730Y025322D01*
X027346Y025322D01*
X027346Y025224D02*
X022632Y025224D01*
X022730Y025322D02*
X022478Y025070D01*
X022340Y025070D01*
X022340Y025460D01*
X022260Y025460D01*
X022260Y025070D01*
X022122Y025070D01*
X021870Y025322D01*
X021732Y025322D01*
X021710Y025421D02*
X021870Y025421D01*
X021870Y025460D02*
X021870Y025322D01*
X021831Y025224D02*
X021968Y025224D01*
X021929Y025125D02*
X022067Y025125D01*
X021980Y025027D02*
X027347Y025027D01*
X027346Y025125D02*
X022533Y025125D01*
X022340Y025125D02*
X022260Y025125D01*
X022260Y025224D02*
X022340Y025224D01*
X022340Y025322D02*
X022260Y025322D01*
X022260Y025421D02*
X022340Y025421D01*
X022260Y025460D02*
X021870Y025460D01*
X021870Y025618D02*
X021710Y025618D01*
X021710Y025519D02*
X022260Y025519D01*
X022260Y025540D02*
X022260Y025460D01*
X022260Y025540D02*
X022340Y025540D01*
X022340Y025930D01*
X022340Y025815D02*
X022260Y025815D01*
X022260Y025716D02*
X022340Y025716D01*
X022340Y025618D02*
X022260Y025618D01*
X022340Y025519D02*
X027346Y025519D01*
X027346Y025421D02*
X022730Y025421D01*
X022730Y025618D02*
X027346Y025618D01*
X027345Y025716D02*
X022692Y025716D01*
X022594Y025815D02*
X027345Y025815D01*
X027345Y025913D02*
X022495Y025913D01*
X022006Y025815D02*
X021565Y025815D01*
X021664Y025716D02*
X021908Y025716D01*
X021300Y025500D02*
X021800Y025000D01*
X021800Y024100D01*
X021900Y024000D01*
X021900Y021250D01*
X020800Y020150D01*
X020800Y019300D01*
X021300Y018800D01*
X021300Y018700D01*
X021562Y019018D02*
X021670Y019018D01*
X021660Y018920D02*
X021670Y018920D01*
X021670Y019117D02*
X021238Y019117D01*
X021140Y019215D02*
X021670Y019215D01*
X021670Y019314D02*
X021493Y019314D01*
X021592Y019412D02*
X021757Y019412D01*
X021690Y019511D02*
X021856Y019511D01*
X021890Y019609D02*
X021710Y019609D01*
X021710Y019708D02*
X021890Y019708D01*
X021890Y019806D02*
X021710Y019806D01*
X021675Y019905D02*
X021925Y019905D01*
X022023Y020003D02*
X021758Y020003D01*
X021856Y020102D02*
X022122Y020102D01*
X021955Y020200D02*
X027356Y020200D01*
X027356Y020102D02*
X023478Y020102D01*
X023470Y020110D02*
X023710Y019870D01*
X023710Y019530D01*
X023470Y019290D01*
X023130Y019290D01*
X022890Y019530D01*
X022890Y019870D01*
X023130Y020110D01*
X023470Y020110D01*
X023577Y020003D02*
X027356Y020003D01*
X027356Y019905D02*
X023675Y019905D01*
X023710Y019806D02*
X027356Y019806D01*
X027357Y019708D02*
X023710Y019708D01*
X023710Y019609D02*
X027357Y019609D01*
X027357Y019511D02*
X023690Y019511D01*
X023592Y019412D02*
X027357Y019412D01*
X027357Y019314D02*
X023493Y019314D01*
X023562Y019018D02*
X027358Y019018D01*
X027358Y018920D02*
X023660Y018920D01*
X023710Y018821D02*
X027358Y018821D01*
X027358Y018723D02*
X023710Y018723D01*
X023710Y018624D02*
X027359Y018624D01*
X027359Y018526D02*
X023705Y018526D01*
X023607Y018427D02*
X027359Y018427D01*
X027359Y018329D02*
X023508Y018329D01*
X023300Y018700D02*
X022150Y017550D01*
X018150Y017550D01*
X003450Y002850D01*
X003300Y002800D01*
X003300Y002500D01*
X003018Y002766D02*
X002291Y002766D01*
X002287Y002762D02*
X002315Y002790D01*
X002335Y002824D01*
X002345Y002862D01*
X002345Y003076D01*
X001950Y003076D01*
X001950Y003176D01*
X002345Y003176D01*
X002345Y003390D01*
X002335Y003428D01*
X002315Y003462D01*
X002287Y003490D01*
X002257Y003508D01*
X002325Y003576D01*
X002325Y004172D01*
X002249Y004248D01*
X002165Y004248D01*
X002180Y004263D01*
X002230Y004384D01*
X002230Y004516D01*
X002180Y004637D01*
X002087Y004730D01*
X001966Y004780D01*
X001834Y004780D01*
X001713Y004730D01*
X001620Y004637D01*
X001570Y004516D01*
X001570Y004384D01*
X001620Y004263D01*
X001635Y004248D01*
X001551Y004248D01*
X001475Y004172D01*
X001475Y003576D01*
X001543Y003508D01*
X001513Y003490D01*
X001485Y003462D01*
X001465Y003428D01*
X001455Y003390D01*
X001455Y003176D01*
X001850Y003176D01*
X001850Y003076D01*
X001455Y003076D01*
X001455Y002862D01*
X001465Y002824D01*
X001485Y002790D01*
X001513Y002762D01*
X001547Y002742D01*
X001585Y002732D01*
X001850Y002732D01*
X001850Y003076D01*
X001950Y003076D01*
X001950Y002732D01*
X002215Y002732D01*
X002253Y002742D01*
X002287Y002762D01*
X002345Y002864D02*
X003116Y002864D01*
X003208Y002963D02*
X002345Y002963D01*
X002345Y003061D02*
X003406Y003061D01*
X003093Y003160D02*
X001950Y003160D01*
X001950Y003061D02*
X001850Y003061D01*
X001850Y002963D02*
X001950Y002963D01*
X001950Y002864D02*
X001850Y002864D01*
X001850Y002766D02*
X001950Y002766D01*
X001509Y002766D02*
X001250Y002766D01*
X001250Y002864D02*
X001455Y002864D01*
X001455Y002963D02*
X001250Y002963D01*
X001250Y003061D02*
X001455Y003061D01*
X001455Y003258D02*
X001250Y003258D01*
X001250Y003160D02*
X001850Y003160D01*
X001455Y003357D02*
X001250Y003357D01*
X001250Y003455D02*
X001481Y003455D01*
X001497Y003554D02*
X001250Y003554D01*
X001250Y003652D02*
X001475Y003652D01*
X001475Y003751D02*
X001250Y003751D01*
X001250Y003849D02*
X001475Y003849D01*
X001475Y003948D02*
X001250Y003948D01*
X001250Y004046D02*
X001475Y004046D01*
X001475Y004145D02*
X001250Y004145D01*
X001250Y004243D02*
X001546Y004243D01*
X001588Y004342D02*
X001250Y004342D01*
X001250Y004440D02*
X001570Y004440D01*
X001579Y004539D02*
X001250Y004539D01*
X001250Y004637D02*
X001620Y004637D01*
X001727Y004736D02*
X001250Y004736D01*
X001250Y004834D02*
X002620Y004834D01*
X002620Y004736D02*
X002073Y004736D01*
X002180Y004637D02*
X002620Y004637D01*
X002707Y004539D02*
X002221Y004539D01*
X002230Y004440D02*
X002805Y004440D01*
X002904Y004342D02*
X002212Y004342D01*
X002254Y004243D02*
X003009Y004243D01*
X003108Y004145D02*
X002325Y004145D01*
X002325Y004046D02*
X004091Y004046D01*
X003993Y003948D02*
X002325Y003948D01*
X002325Y003849D02*
X003101Y003849D01*
X003003Y003751D02*
X002325Y003751D01*
X002325Y003652D02*
X002913Y003652D01*
X002913Y003554D02*
X002303Y003554D01*
X002319Y003455D02*
X002913Y003455D01*
X002913Y003357D02*
X002345Y003357D01*
X002345Y003258D02*
X002994Y003258D01*
X003300Y003500D02*
X003800Y003500D01*
X018100Y017800D01*
X021350Y017800D01*
X021850Y018300D01*
X021850Y019250D01*
X022300Y019700D01*
X022592Y019412D02*
X023008Y019412D01*
X022910Y019511D02*
X022690Y019511D01*
X022710Y019609D02*
X022890Y019609D01*
X022890Y019708D02*
X022710Y019708D01*
X022710Y019806D02*
X022890Y019806D01*
X022925Y019905D02*
X022675Y019905D01*
X022577Y020003D02*
X023023Y020003D01*
X023122Y020102D02*
X022478Y020102D01*
X022152Y020397D02*
X027355Y020397D01*
X027355Y020299D02*
X022053Y020299D01*
X022250Y020496D02*
X027355Y020496D01*
X027355Y020594D02*
X022349Y020594D01*
X022447Y020693D02*
X027355Y020693D01*
X027355Y020791D02*
X022480Y020791D01*
X022480Y020890D02*
X027354Y020890D01*
X027354Y020988D02*
X022480Y020988D01*
X022480Y021087D02*
X027354Y021087D01*
X027354Y021185D02*
X022480Y021185D01*
X022480Y021284D02*
X027354Y021284D01*
X027353Y021382D02*
X022480Y021382D01*
X022480Y021481D02*
X027353Y021481D01*
X027353Y021579D02*
X022480Y021579D01*
X022480Y021678D02*
X027353Y021678D01*
X027353Y021776D02*
X022480Y021776D01*
X022480Y021875D02*
X027352Y021875D01*
X027352Y021973D02*
X022480Y021973D01*
X022480Y022072D02*
X027352Y022072D01*
X027352Y022170D02*
X022480Y022170D01*
X022480Y022269D02*
X027352Y022269D01*
X027352Y022367D02*
X022480Y022367D01*
X022480Y022466D02*
X027351Y022466D01*
X027351Y022564D02*
X022480Y022564D01*
X022480Y022663D02*
X027351Y022663D01*
X027351Y022761D02*
X022480Y022761D01*
X022480Y022860D02*
X027351Y022860D01*
X027350Y022958D02*
X022480Y022958D01*
X022480Y023057D02*
X027350Y023057D01*
X027350Y023155D02*
X022480Y023155D01*
X022480Y023254D02*
X027350Y023254D01*
X027350Y023352D02*
X022480Y023352D01*
X022480Y023451D02*
X027350Y023451D01*
X027349Y023549D02*
X022480Y023549D01*
X022480Y023648D02*
X027349Y023648D01*
X027349Y023746D02*
X022480Y023746D01*
X022480Y023845D02*
X027349Y023845D01*
X027349Y023943D02*
X022480Y023943D01*
X022480Y024042D02*
X027348Y024042D01*
X027348Y024140D02*
X022520Y024140D01*
X022618Y024239D02*
X027348Y024239D01*
X027348Y024337D02*
X022710Y024337D01*
X022710Y024436D02*
X027348Y024436D01*
X027348Y024534D02*
X022710Y024534D01*
X022710Y024633D02*
X027347Y024633D01*
X027347Y024731D02*
X022649Y024731D01*
X022550Y024830D02*
X027347Y024830D01*
X027347Y024928D02*
X021980Y024928D01*
X021980Y024830D02*
X022050Y024830D01*
X021620Y024830D02*
X021550Y024830D01*
X021617Y024928D02*
X021030Y024928D01*
X021030Y024830D02*
X021050Y024830D01*
X021028Y025027D02*
X021519Y025027D01*
X021095Y025125D02*
X020929Y025125D01*
X020997Y025224D02*
X020831Y025224D01*
X020898Y025322D02*
X020732Y025322D01*
X020710Y025421D02*
X020890Y025421D01*
X020890Y025519D02*
X020710Y025519D01*
X020710Y025618D02*
X020890Y025618D01*
X020936Y025716D02*
X020664Y025716D01*
X020565Y025815D02*
X021035Y025815D01*
X020300Y025500D02*
X020850Y024950D01*
X020850Y024150D01*
X020650Y023950D01*
X020650Y021050D01*
X019800Y020200D01*
X019800Y019200D01*
X020300Y018700D01*
X021041Y019314D02*
X021107Y019314D01*
X021008Y019412D02*
X020980Y019412D01*
X021300Y019700D02*
X021300Y019800D01*
X022300Y020800D01*
X022300Y024500D01*
X021300Y024500D02*
X021300Y021250D01*
X020300Y020250D01*
X020300Y019700D01*
X019620Y019960D02*
X019470Y020110D01*
X019130Y020110D01*
X018890Y019870D01*
X018890Y019545D01*
X018675Y019330D01*
X018538Y019330D01*
X018730Y019522D01*
X018730Y019660D01*
X018340Y019660D01*
X018340Y019740D01*
X018260Y019740D01*
X018260Y020130D01*
X018122Y020130D01*
X017870Y019878D01*
X017870Y019740D01*
X018260Y019740D01*
X018260Y019660D01*
X017870Y019660D01*
X017870Y019522D01*
X018062Y019330D01*
X017825Y019330D01*
X017725Y019230D01*
X017620Y019125D01*
X017620Y018960D01*
X017470Y019110D01*
X017398Y019110D01*
X017234Y019290D01*
X017470Y019290D01*
X017710Y019530D01*
X017710Y019870D01*
X017667Y019913D01*
X017925Y020170D01*
X019575Y020170D01*
X019620Y020215D01*
X019620Y019960D01*
X019620Y020003D02*
X019577Y020003D01*
X019620Y020102D02*
X019478Y020102D01*
X019605Y020200D02*
X019620Y020200D01*
X019500Y020350D02*
X020300Y021150D01*
X020300Y024500D01*
X020649Y024731D02*
X020670Y024731D01*
X020670Y024830D02*
X020550Y024830D01*
X020617Y024928D02*
X019980Y024928D01*
X019980Y024830D02*
X020050Y024830D01*
X019978Y025027D02*
X020519Y025027D01*
X020095Y025125D02*
X019879Y025125D01*
X019781Y025224D02*
X019997Y025224D01*
X019898Y025322D02*
X019702Y025322D01*
X019710Y025421D02*
X019890Y025421D01*
X019890Y025519D02*
X019710Y025519D01*
X019710Y025618D02*
X019890Y025618D01*
X019936Y025716D02*
X019664Y025716D01*
X019565Y025815D02*
X020035Y025815D01*
X019300Y025500D02*
X019300Y025450D01*
X019800Y024950D01*
X019800Y021150D01*
X019250Y020600D01*
X017400Y020600D01*
X016800Y020000D01*
X016800Y019500D01*
X017300Y018950D01*
X017300Y018700D01*
X016993Y018427D02*
X016980Y018427D01*
X016980Y018440D02*
X017130Y018290D01*
X017435Y018290D01*
X005325Y006180D01*
X003528Y006180D01*
X003687Y006340D01*
X003687Y006660D01*
X003676Y006672D01*
X004025Y007020D01*
X005175Y007020D01*
X016075Y017920D01*
X016625Y017920D01*
X016875Y018170D01*
X016980Y018275D01*
X016980Y018440D01*
X016980Y018329D02*
X017092Y018329D01*
X016935Y018230D02*
X017375Y018230D01*
X017277Y018132D02*
X016836Y018132D01*
X016738Y018033D02*
X017178Y018033D01*
X017080Y017935D02*
X016639Y017935D01*
X016550Y018100D02*
X016800Y018350D01*
X016800Y019200D01*
X016300Y019700D01*
X016008Y019412D02*
X015980Y019412D01*
X015980Y019314D02*
X016107Y019314D01*
X015970Y019215D02*
X016530Y019215D01*
X016620Y019117D02*
X015871Y019117D01*
X015773Y019018D02*
X016038Y019018D01*
X015940Y018920D02*
X015674Y018920D01*
X015710Y018821D02*
X015890Y018821D01*
X015890Y018723D02*
X015710Y018723D01*
X015710Y018624D02*
X015890Y018624D01*
X015871Y018526D02*
X015705Y018526D01*
X015772Y018427D02*
X015607Y018427D01*
X015674Y018329D02*
X015508Y018329D01*
X015575Y018230D02*
X013085Y018230D01*
X013145Y018290D02*
X013470Y018290D01*
X013710Y018530D01*
X013710Y018870D01*
X013470Y019110D01*
X013130Y019110D01*
X012890Y018870D01*
X012890Y018545D01*
X012480Y018135D01*
X012480Y018300D01*
X012710Y018530D01*
X012710Y018870D01*
X012470Y019110D01*
X012130Y019110D01*
X011890Y018870D01*
X011890Y018530D01*
X012120Y018300D01*
X012120Y018125D01*
X004175Y010180D01*
X003528Y010180D01*
X003687Y010340D01*
X003687Y010633D01*
X003830Y010775D01*
X003830Y010875D01*
X011245Y018290D01*
X011470Y018290D01*
X011710Y018530D01*
X011710Y018870D01*
X011470Y019110D01*
X011130Y019110D01*
X010980Y018960D01*
X010980Y019125D01*
X011145Y019290D01*
X011470Y019290D01*
X011710Y019530D01*
X011710Y019870D01*
X011470Y020110D01*
X011130Y020110D01*
X010890Y019870D01*
X010890Y019545D01*
X010620Y019275D01*
X010620Y018960D01*
X010470Y019110D01*
X010130Y019110D01*
X009980Y018960D01*
X009980Y019175D01*
X009880Y019275D01*
X009775Y019380D01*
X009588Y019380D01*
X009730Y019522D01*
X009730Y019660D01*
X009340Y019660D01*
X009340Y019740D01*
X009260Y019740D01*
X009260Y020130D01*
X009122Y020130D01*
X008870Y019878D01*
X008870Y019740D01*
X009260Y019740D01*
X009260Y019660D01*
X008870Y019660D01*
X008870Y019535D01*
X008775Y019630D01*
X008710Y019630D01*
X008710Y019870D01*
X008470Y020110D01*
X008130Y020110D01*
X007890Y019870D01*
X007890Y019530D01*
X008040Y019380D01*
X007875Y019380D01*
X007710Y019545D01*
X007710Y019870D01*
X007470Y020110D01*
X007130Y020110D01*
X006890Y019870D01*
X006890Y019530D01*
X007130Y019290D01*
X007455Y019290D01*
X007725Y019020D01*
X008040Y019020D01*
X007890Y018870D01*
X007890Y018545D01*
X005025Y015680D01*
X003668Y015680D01*
X003460Y015887D01*
X003140Y015887D01*
X002913Y015660D01*
X002913Y015340D01*
X003140Y015113D01*
X003460Y015113D01*
X003668Y015320D01*
X004965Y015320D01*
X004325Y014680D01*
X003668Y014680D01*
X003460Y014887D01*
X003140Y014887D01*
X002913Y014660D01*
X002913Y014340D01*
X003072Y014180D01*
X002575Y014180D01*
X002470Y014075D01*
X002220Y013825D01*
X002220Y012925D01*
X002325Y012820D01*
X002825Y012320D01*
X001250Y012320D01*
X001250Y012222D02*
X003030Y012222D01*
X002932Y012320D02*
X003140Y012113D01*
X003460Y012113D01*
X003687Y012340D01*
X003687Y012660D01*
X003460Y012887D01*
X003140Y012887D01*
X002953Y012701D01*
X002580Y013075D01*
X002580Y013675D01*
X002725Y013820D01*
X003072Y013820D01*
X002913Y013660D01*
X002913Y013340D01*
X003140Y013113D01*
X003460Y013113D01*
X003668Y013320D01*
X005199Y013320D01*
X005274Y013320D01*
X005275Y013320D01*
X005327Y013372D01*
X010224Y018220D01*
X010225Y018220D01*
X010277Y018272D01*
X010295Y018290D01*
X010435Y018290D01*
X003825Y011680D01*
X003668Y011680D01*
X003460Y011887D01*
X003140Y011887D01*
X002913Y011660D01*
X002913Y011340D01*
X003140Y011113D01*
X003460Y011113D01*
X003668Y011320D01*
X003765Y011320D01*
X003575Y011130D01*
X003470Y011025D01*
X003470Y010925D01*
X003433Y010887D01*
X003140Y010887D01*
X002913Y010660D01*
X002913Y010340D01*
X003072Y010180D01*
X002975Y010180D01*
X002870Y010075D01*
X002661Y009866D01*
X002650Y009878D01*
X002615Y009897D01*
X002577Y009907D01*
X002329Y009907D01*
X002329Y009529D01*
X002271Y009529D01*
X002271Y009907D01*
X002023Y009907D01*
X001985Y009897D01*
X001950Y009878D01*
X001922Y009850D01*
X001903Y009815D01*
X001893Y009777D01*
X001893Y009529D01*
X002271Y009529D01*
X002271Y009471D01*
X002329Y009471D01*
X002329Y009093D01*
X002577Y009093D01*
X002615Y009103D01*
X002620Y009105D01*
X002620Y008925D01*
X002725Y008820D01*
X002913Y008633D01*
X002913Y008340D01*
X003140Y008113D01*
X003460Y008113D01*
X003687Y008340D01*
X003687Y008660D01*
X003460Y008887D01*
X003167Y008887D01*
X002980Y009075D01*
X002980Y009272D01*
X003140Y009113D01*
X003460Y009113D01*
X003668Y009320D01*
X004175Y009320D01*
X013145Y018290D01*
X012986Y018132D02*
X015477Y018132D01*
X015378Y018033D02*
X012888Y018033D01*
X012789Y017935D02*
X015280Y017935D01*
X015181Y017836D02*
X012691Y017836D01*
X012592Y017738D02*
X015083Y017738D01*
X014984Y017639D02*
X012494Y017639D01*
X012395Y017541D02*
X014886Y017541D01*
X014787Y017442D02*
X012297Y017442D01*
X012198Y017344D02*
X014689Y017344D01*
X014590Y017245D02*
X012100Y017245D01*
X012001Y017147D02*
X014492Y017147D01*
X014393Y017048D02*
X011903Y017048D01*
X011804Y016950D02*
X014295Y016950D01*
X014196Y016851D02*
X011706Y016851D01*
X011607Y016753D02*
X014098Y016753D01*
X013999Y016654D02*
X011509Y016654D01*
X011410Y016556D02*
X013901Y016556D01*
X013802Y016457D02*
X011312Y016457D01*
X011213Y016359D02*
X013704Y016359D01*
X013605Y016260D02*
X011115Y016260D01*
X011016Y016162D02*
X013507Y016162D01*
X013408Y016063D02*
X010918Y016063D01*
X010819Y015965D02*
X013310Y015965D01*
X013211Y015866D02*
X010721Y015866D01*
X010622Y015768D02*
X013113Y015768D01*
X013014Y015669D02*
X010524Y015669D01*
X010425Y015571D02*
X012916Y015571D01*
X012817Y015472D02*
X010327Y015472D01*
X010228Y015374D02*
X012719Y015374D01*
X012620Y015275D02*
X010130Y015275D01*
X010031Y015177D02*
X012522Y015177D01*
X012423Y015078D02*
X009933Y015078D01*
X009834Y014980D02*
X012325Y014980D01*
X012226Y014881D02*
X009736Y014881D01*
X009637Y014783D02*
X012128Y014783D01*
X012029Y014684D02*
X009539Y014684D01*
X009440Y014586D02*
X011931Y014586D01*
X011832Y014487D02*
X009342Y014487D01*
X009243Y014389D02*
X011734Y014389D01*
X011635Y014290D02*
X009145Y014290D01*
X009046Y014192D02*
X011537Y014192D01*
X011438Y014093D02*
X008948Y014093D01*
X008849Y013995D02*
X011340Y013995D01*
X011241Y013896D02*
X008751Y013896D01*
X008652Y013798D02*
X011143Y013798D01*
X011044Y013699D02*
X008554Y013699D01*
X008455Y013601D02*
X010946Y013601D01*
X010847Y013502D02*
X008357Y013502D01*
X008258Y013404D02*
X010749Y013404D01*
X010650Y013305D02*
X008160Y013305D01*
X008061Y013207D02*
X010552Y013207D01*
X010453Y013108D02*
X007963Y013108D01*
X007864Y013010D02*
X010355Y013010D01*
X010256Y012911D02*
X007766Y012911D01*
X007667Y012813D02*
X010158Y012813D01*
X010059Y012714D02*
X007569Y012714D01*
X007470Y012616D02*
X009961Y012616D01*
X009862Y012517D02*
X007372Y012517D01*
X007273Y012419D02*
X009764Y012419D01*
X009665Y012320D02*
X007175Y012320D01*
X007076Y012222D02*
X009567Y012222D01*
X009468Y012123D02*
X006978Y012123D01*
X006879Y012025D02*
X009370Y012025D01*
X009271Y011926D02*
X006781Y011926D01*
X006682Y011828D02*
X009173Y011828D01*
X009074Y011729D02*
X006584Y011729D01*
X006485Y011631D02*
X008976Y011631D01*
X008877Y011532D02*
X006387Y011532D01*
X006288Y011434D02*
X008779Y011434D01*
X008680Y011335D02*
X006190Y011335D01*
X006091Y011237D02*
X008582Y011237D01*
X008483Y011138D02*
X005993Y011138D01*
X005894Y011040D02*
X008385Y011040D01*
X008286Y010941D02*
X005796Y010941D01*
X005697Y010843D02*
X008188Y010843D01*
X008089Y010744D02*
X005599Y010744D01*
X005500Y010646D02*
X007991Y010646D01*
X007892Y010547D02*
X005402Y010547D01*
X005303Y010449D02*
X007794Y010449D01*
X007695Y010350D02*
X005205Y010350D01*
X005106Y010252D02*
X007597Y010252D01*
X007498Y010153D02*
X005008Y010153D01*
X004909Y010055D02*
X007400Y010055D01*
X007301Y009956D02*
X004811Y009956D01*
X004712Y009858D02*
X007203Y009858D01*
X007104Y009759D02*
X004614Y009759D01*
X004515Y009661D02*
X007006Y009661D01*
X006907Y009562D02*
X004417Y009562D01*
X004318Y009464D02*
X006809Y009464D01*
X006710Y009365D02*
X004220Y009365D01*
X004100Y009500D02*
X013300Y018700D01*
X012890Y018723D02*
X012710Y018723D01*
X012710Y018821D02*
X012890Y018821D01*
X012940Y018920D02*
X012660Y018920D01*
X012562Y019018D02*
X013038Y019018D01*
X013107Y019314D02*
X012493Y019314D01*
X012470Y019290D02*
X012710Y019530D01*
X012710Y019870D01*
X012480Y020100D01*
X012480Y022425D01*
X014375Y024320D01*
X014900Y024320D01*
X015130Y024090D01*
X015470Y024090D01*
X015710Y024330D01*
X015710Y024670D01*
X015470Y024910D01*
X015130Y024910D01*
X014900Y024680D01*
X014225Y024680D01*
X014120Y024575D01*
X012120Y022575D01*
X012120Y020100D01*
X011890Y019870D01*
X011890Y019530D01*
X012130Y019290D01*
X012470Y019290D01*
X012592Y019412D02*
X013008Y019412D01*
X012910Y019511D02*
X012690Y019511D01*
X012710Y019609D02*
X012890Y019609D01*
X012890Y019708D02*
X012710Y019708D01*
X012710Y019806D02*
X012890Y019806D01*
X012925Y019905D02*
X012675Y019905D01*
X012577Y020003D02*
X013023Y020003D01*
X013120Y020102D02*
X012480Y020102D01*
X012480Y020200D02*
X013120Y020200D01*
X013120Y020299D02*
X012480Y020299D01*
X012480Y020397D02*
X013120Y020397D01*
X013120Y020496D02*
X012480Y020496D01*
X012480Y020594D02*
X013120Y020594D01*
X013120Y020693D02*
X012480Y020693D01*
X012480Y020791D02*
X013120Y020791D01*
X013120Y020890D02*
X012480Y020890D01*
X012480Y020988D02*
X013120Y020988D01*
X013120Y021087D02*
X012480Y021087D01*
X012480Y021185D02*
X013120Y021185D01*
X013120Y021284D02*
X012480Y021284D01*
X012480Y021382D02*
X013120Y021382D01*
X013120Y021481D02*
X012480Y021481D01*
X012480Y021579D02*
X013124Y021579D01*
X013223Y021678D02*
X012480Y021678D01*
X012480Y021776D02*
X013321Y021776D01*
X013225Y021680D02*
X013225Y021680D01*
X013300Y021500D02*
X016300Y024500D01*
X016618Y024239D02*
X016620Y024239D01*
X016620Y024140D02*
X016520Y024140D01*
X016537Y024042D02*
X016096Y024042D01*
X015998Y023943D02*
X016439Y023943D01*
X016340Y023845D02*
X015899Y023845D01*
X015801Y023746D02*
X016241Y023746D01*
X016143Y023648D02*
X015702Y023648D01*
X015604Y023549D02*
X016044Y023549D01*
X015946Y023451D02*
X015505Y023451D01*
X015407Y023352D02*
X015847Y023352D01*
X015749Y023254D02*
X015308Y023254D01*
X015210Y023155D02*
X015650Y023155D01*
X015552Y023057D02*
X015111Y023057D01*
X015013Y022958D02*
X015453Y022958D01*
X015355Y022860D02*
X014914Y022860D01*
X014816Y022761D02*
X015256Y022761D01*
X015158Y022663D02*
X014717Y022663D01*
X014619Y022564D02*
X015059Y022564D01*
X014961Y022466D02*
X014520Y022466D01*
X014422Y022367D02*
X014862Y022367D01*
X014764Y022269D02*
X014323Y022269D01*
X014225Y022170D02*
X014665Y022170D01*
X014567Y022072D02*
X014126Y022072D01*
X014028Y021973D02*
X014468Y021973D01*
X014370Y021875D02*
X013929Y021875D01*
X013831Y021776D02*
X014271Y021776D01*
X014173Y021678D02*
X013732Y021678D01*
X013634Y021579D02*
X014120Y021579D01*
X014120Y021481D02*
X013535Y021481D01*
X013480Y021382D02*
X014120Y021382D01*
X014120Y021284D02*
X013480Y021284D01*
X013480Y021185D02*
X014120Y021185D01*
X014120Y021087D02*
X013480Y021087D01*
X013480Y020988D02*
X014120Y020988D01*
X014120Y020890D02*
X013480Y020890D01*
X013480Y020791D02*
X014120Y020791D01*
X014120Y020693D02*
X013480Y020693D01*
X013480Y020594D02*
X014120Y020594D01*
X014120Y020496D02*
X013480Y020496D01*
X013480Y020397D02*
X014120Y020397D01*
X014120Y020299D02*
X013480Y020299D01*
X013480Y020200D02*
X014120Y020200D01*
X014120Y020102D02*
X013480Y020102D01*
X013577Y020003D02*
X014023Y020003D01*
X013925Y019905D02*
X013675Y019905D01*
X013710Y019806D02*
X013890Y019806D01*
X013890Y019708D02*
X013710Y019708D01*
X013710Y019609D02*
X013890Y019609D01*
X013910Y019511D02*
X013690Y019511D01*
X013592Y019412D02*
X014008Y019412D01*
X014107Y019314D02*
X013493Y019314D01*
X013562Y019018D02*
X014038Y019018D01*
X013940Y018920D02*
X013660Y018920D01*
X013710Y018821D02*
X013890Y018821D01*
X013890Y018723D02*
X013710Y018723D01*
X013710Y018624D02*
X013890Y018624D01*
X013895Y018526D02*
X013705Y018526D01*
X013607Y018427D02*
X013993Y018427D01*
X014092Y018329D02*
X013508Y018329D01*
X012871Y018526D02*
X012705Y018526D01*
X012710Y018624D02*
X012890Y018624D01*
X012772Y018427D02*
X012607Y018427D01*
X012674Y018329D02*
X012508Y018329D01*
X012480Y018230D02*
X012575Y018230D01*
X012300Y018050D02*
X012300Y018700D01*
X012038Y019018D02*
X011562Y019018D01*
X011660Y018920D02*
X011940Y018920D01*
X011890Y018821D02*
X011710Y018821D01*
X011710Y018723D02*
X011890Y018723D01*
X011890Y018624D02*
X011710Y018624D01*
X011705Y018526D02*
X011895Y018526D01*
X011993Y018427D02*
X011607Y018427D01*
X011508Y018329D02*
X012092Y018329D01*
X012120Y018230D02*
X011185Y018230D01*
X011086Y018132D02*
X012120Y018132D01*
X012028Y018033D02*
X010988Y018033D01*
X010889Y017935D02*
X011930Y017935D01*
X011831Y017836D02*
X010791Y017836D01*
X010692Y017738D02*
X011733Y017738D01*
X011634Y017639D02*
X010594Y017639D01*
X010495Y017541D02*
X011536Y017541D01*
X011437Y017442D02*
X010397Y017442D01*
X010298Y017344D02*
X011339Y017344D01*
X011240Y017245D02*
X010200Y017245D01*
X010101Y017147D02*
X011142Y017147D01*
X011043Y017048D02*
X010003Y017048D01*
X009904Y016950D02*
X010945Y016950D01*
X010846Y016851D02*
X009806Y016851D01*
X009707Y016753D02*
X010748Y016753D01*
X010649Y016654D02*
X009609Y016654D01*
X009510Y016556D02*
X010551Y016556D01*
X010452Y016457D02*
X009412Y016457D01*
X009313Y016359D02*
X010354Y016359D01*
X010255Y016260D02*
X009215Y016260D01*
X009116Y016162D02*
X010157Y016162D01*
X010058Y016063D02*
X009018Y016063D01*
X008919Y015965D02*
X009960Y015965D01*
X009861Y015866D02*
X008821Y015866D01*
X008722Y015768D02*
X009763Y015768D01*
X009664Y015669D02*
X008624Y015669D01*
X008525Y015571D02*
X009566Y015571D01*
X009467Y015472D02*
X008427Y015472D01*
X008328Y015374D02*
X009369Y015374D01*
X009270Y015275D02*
X008230Y015275D01*
X008131Y015177D02*
X009172Y015177D01*
X009073Y015078D02*
X008033Y015078D01*
X007934Y014980D02*
X008975Y014980D01*
X008876Y014881D02*
X007836Y014881D01*
X007737Y014783D02*
X008778Y014783D01*
X008679Y014684D02*
X007639Y014684D01*
X007540Y014586D02*
X008581Y014586D01*
X008482Y014487D02*
X007442Y014487D01*
X007343Y014389D02*
X008384Y014389D01*
X008285Y014290D02*
X007245Y014290D01*
X007146Y014192D02*
X008187Y014192D01*
X008088Y014093D02*
X007048Y014093D01*
X006949Y013995D02*
X007990Y013995D01*
X007891Y013896D02*
X006851Y013896D01*
X006752Y013798D02*
X007793Y013798D01*
X007694Y013699D02*
X006654Y013699D01*
X006555Y013601D02*
X007596Y013601D01*
X007497Y013502D02*
X006457Y013502D01*
X006358Y013404D02*
X007399Y013404D01*
X007300Y013305D02*
X006260Y013305D01*
X006161Y013207D02*
X007202Y013207D01*
X007103Y013108D02*
X006063Y013108D01*
X005964Y013010D02*
X007005Y013010D01*
X006906Y012911D02*
X005866Y012911D01*
X005767Y012813D02*
X006808Y012813D01*
X006709Y012714D02*
X005669Y012714D01*
X005570Y012616D02*
X006611Y012616D01*
X006512Y012517D02*
X005472Y012517D01*
X005373Y012419D02*
X006414Y012419D01*
X006315Y012320D02*
X005275Y012320D01*
X005176Y012222D02*
X006217Y012222D01*
X006118Y012123D02*
X005078Y012123D01*
X004979Y012025D02*
X006020Y012025D01*
X005921Y011926D02*
X004881Y011926D01*
X004782Y011828D02*
X005823Y011828D01*
X005724Y011729D02*
X004684Y011729D01*
X004585Y011631D02*
X005626Y011631D01*
X005527Y011532D02*
X004487Y011532D01*
X004388Y011434D02*
X005429Y011434D01*
X005330Y011335D02*
X004290Y011335D01*
X004191Y011237D02*
X005232Y011237D01*
X005133Y011138D02*
X004093Y011138D01*
X003994Y011040D02*
X005035Y011040D01*
X004936Y010941D02*
X003896Y010941D01*
X003830Y010843D02*
X004838Y010843D01*
X004739Y010744D02*
X003799Y010744D01*
X003700Y010646D02*
X004641Y010646D01*
X004542Y010547D02*
X003687Y010547D01*
X003687Y010449D02*
X004444Y010449D01*
X004345Y010350D02*
X003687Y010350D01*
X003600Y010252D02*
X004247Y010252D01*
X004250Y010000D02*
X012300Y018050D01*
X011300Y018600D02*
X003650Y010950D01*
X003650Y010850D01*
X003300Y010500D01*
X003000Y010252D02*
X001250Y010252D01*
X001250Y010350D02*
X002913Y010350D01*
X002913Y010449D02*
X001250Y010449D01*
X001250Y010547D02*
X002913Y010547D01*
X002913Y010646D02*
X001250Y010646D01*
X001250Y010744D02*
X002996Y010744D01*
X003095Y010843D02*
X001250Y010843D01*
X001250Y010941D02*
X003470Y010941D01*
X003485Y011040D02*
X001250Y011040D01*
X001250Y011138D02*
X003114Y011138D01*
X003015Y011237D02*
X001250Y011237D01*
X001250Y011335D02*
X002917Y011335D01*
X002913Y011434D02*
X001250Y011434D01*
X001250Y011532D02*
X002913Y011532D01*
X002913Y011631D02*
X001250Y011631D01*
X001250Y011729D02*
X002981Y011729D01*
X003080Y011828D02*
X001250Y011828D01*
X001250Y011926D02*
X004071Y011926D01*
X003973Y011828D02*
X003520Y011828D01*
X003619Y011729D02*
X003874Y011729D01*
X003900Y011500D02*
X010800Y018400D01*
X010800Y019200D01*
X011300Y019700D01*
X011592Y019412D02*
X012008Y019412D01*
X011910Y019511D02*
X011690Y019511D01*
X011710Y019609D02*
X011890Y019609D01*
X011890Y019708D02*
X011710Y019708D01*
X011710Y019806D02*
X011890Y019806D01*
X011925Y019905D02*
X011675Y019905D01*
X011577Y020003D02*
X012023Y020003D01*
X012120Y020102D02*
X011478Y020102D01*
X011122Y020102D02*
X010480Y020102D01*
X010480Y020100D02*
X010480Y021925D01*
X013875Y025320D01*
X014900Y025320D01*
X015130Y025090D01*
X015470Y025090D01*
X015710Y025330D01*
X015710Y025670D01*
X015470Y025910D01*
X015130Y025910D01*
X014900Y025680D01*
X013725Y025680D01*
X013620Y025575D01*
X010120Y022075D01*
X010120Y020100D01*
X009890Y019870D01*
X009890Y019530D01*
X010130Y019290D01*
X010470Y019290D01*
X010710Y019530D01*
X010710Y019870D01*
X010480Y020100D01*
X010480Y020200D02*
X012120Y020200D01*
X012120Y020299D02*
X010480Y020299D01*
X010480Y020397D02*
X012120Y020397D01*
X012120Y020496D02*
X010480Y020496D01*
X010480Y020594D02*
X012120Y020594D01*
X012120Y020693D02*
X010480Y020693D01*
X010480Y020791D02*
X012120Y020791D01*
X012120Y020890D02*
X010480Y020890D01*
X010480Y020988D02*
X012120Y020988D01*
X012120Y021087D02*
X010480Y021087D01*
X010480Y021185D02*
X012120Y021185D01*
X012120Y021284D02*
X010480Y021284D01*
X010480Y021382D02*
X012120Y021382D01*
X012120Y021481D02*
X010480Y021481D01*
X010480Y021579D02*
X012120Y021579D01*
X012120Y021678D02*
X010480Y021678D01*
X010480Y021776D02*
X012120Y021776D01*
X012120Y021875D02*
X010480Y021875D01*
X010528Y021973D02*
X012120Y021973D01*
X012120Y022072D02*
X010626Y022072D01*
X010725Y022170D02*
X012120Y022170D01*
X012120Y022269D02*
X010823Y022269D01*
X010922Y022367D02*
X012120Y022367D01*
X012120Y022466D02*
X011020Y022466D01*
X011119Y022564D02*
X012120Y022564D01*
X012208Y022663D02*
X011217Y022663D01*
X011316Y022761D02*
X012306Y022761D01*
X012405Y022860D02*
X011414Y022860D01*
X011513Y022958D02*
X012503Y022958D01*
X012602Y023057D02*
X011611Y023057D01*
X011710Y023155D02*
X012700Y023155D01*
X012799Y023254D02*
X011808Y023254D01*
X011907Y023352D02*
X012897Y023352D01*
X012996Y023451D02*
X012005Y023451D01*
X012104Y023549D02*
X013094Y023549D01*
X013193Y023648D02*
X012202Y023648D01*
X012301Y023746D02*
X013291Y023746D01*
X013390Y023845D02*
X012399Y023845D01*
X012498Y023943D02*
X013489Y023943D01*
X013587Y024042D02*
X012596Y024042D01*
X012695Y024140D02*
X013686Y024140D01*
X013784Y024239D02*
X012793Y024239D01*
X012892Y024337D02*
X013883Y024337D01*
X013981Y024436D02*
X012990Y024436D01*
X013089Y024534D02*
X014080Y024534D01*
X014178Y024633D02*
X013187Y024633D01*
X013286Y024731D02*
X014951Y024731D01*
X015050Y024830D02*
X013384Y024830D01*
X013483Y024928D02*
X016620Y024928D01*
X016620Y024830D02*
X016550Y024830D01*
X016620Y025027D02*
X013581Y025027D01*
X013680Y025125D02*
X015095Y025125D01*
X014997Y025224D02*
X013778Y025224D01*
X013800Y025500D02*
X015300Y025500D01*
X015603Y025224D02*
X015968Y025224D01*
X015870Y025322D02*
X015870Y025460D01*
X016260Y025460D01*
X016340Y025460D01*
X016340Y025540D01*
X016730Y025540D01*
X016730Y025678D01*
X016478Y025930D01*
X016340Y025930D01*
X016340Y025540D01*
X016260Y025540D01*
X016260Y025930D01*
X016122Y025930D01*
X015870Y025678D01*
X015870Y025540D01*
X016260Y025540D01*
X016260Y025460D01*
X016260Y025070D01*
X016122Y025070D01*
X015870Y025322D01*
X015702Y025322D01*
X015710Y025421D02*
X015870Y025421D01*
X015710Y025519D02*
X016260Y025519D01*
X016340Y025519D02*
X016890Y025519D01*
X016890Y025421D02*
X016730Y025421D01*
X016730Y025460D02*
X016340Y025460D01*
X016340Y025070D01*
X016478Y025070D01*
X016730Y025322D01*
X016868Y025322D01*
X016730Y025322D02*
X016730Y025460D01*
X016730Y025618D02*
X016890Y025618D01*
X016936Y025716D02*
X016692Y025716D01*
X016594Y025815D02*
X017035Y025815D01*
X017300Y025500D02*
X016800Y025000D01*
X016800Y024050D01*
X014300Y021550D01*
X014300Y019700D01*
X014592Y019412D02*
X014620Y019412D01*
X014620Y019314D02*
X014493Y019314D01*
X014560Y019215D02*
X011070Y019215D01*
X010980Y019117D02*
X014462Y019117D01*
X014800Y019200D02*
X014800Y021400D01*
X017300Y023900D01*
X017300Y024500D01*
X017520Y024140D02*
X017786Y024140D01*
X017884Y024239D02*
X017618Y024239D01*
X017710Y024337D02*
X017890Y024337D01*
X017890Y024436D02*
X017710Y024436D01*
X017710Y024534D02*
X017890Y024534D01*
X017890Y024633D02*
X017710Y024633D01*
X017649Y024731D02*
X017951Y024731D01*
X018050Y024830D02*
X017550Y024830D01*
X017505Y025125D02*
X018067Y025125D01*
X017968Y025224D02*
X017603Y025224D01*
X017710Y025519D02*
X018260Y025519D01*
X018260Y025618D02*
X018340Y025618D01*
X018340Y025716D02*
X018260Y025716D01*
X018260Y025815D02*
X018340Y025815D01*
X018340Y025913D02*
X018260Y025913D01*
X018105Y025913D02*
X016495Y025913D01*
X016340Y025913D02*
X016260Y025913D01*
X016260Y025815D02*
X016340Y025815D01*
X016340Y025716D02*
X016260Y025716D01*
X016260Y025618D02*
X016340Y025618D01*
X016340Y025421D02*
X016260Y025421D01*
X016260Y025322D02*
X016340Y025322D01*
X016340Y025224D02*
X016260Y025224D01*
X016260Y025125D02*
X016340Y025125D01*
X016533Y025125D02*
X016671Y025125D01*
X016632Y025224D02*
X016769Y025224D01*
X016983Y024928D02*
X019567Y024928D01*
X019550Y024830D02*
X019620Y024830D01*
X019469Y025027D02*
X017081Y025027D01*
X017050Y024830D02*
X016980Y024830D01*
X016050Y024830D02*
X015550Y024830D01*
X015649Y024731D02*
X015951Y024731D01*
X015890Y024633D02*
X015710Y024633D01*
X015710Y024534D02*
X015890Y024534D01*
X015890Y024436D02*
X015710Y024436D01*
X015710Y024337D02*
X015883Y024337D01*
X015784Y024239D02*
X015618Y024239D01*
X015686Y024140D02*
X015520Y024140D01*
X015587Y024042D02*
X014096Y024042D01*
X014195Y024140D02*
X015080Y024140D01*
X014982Y024239D02*
X014293Y024239D01*
X014300Y024500D02*
X015300Y024500D01*
X015489Y023943D02*
X013998Y023943D01*
X013899Y023845D02*
X015390Y023845D01*
X015292Y023746D02*
X013801Y023746D01*
X013702Y023648D02*
X015193Y023648D01*
X015095Y023549D02*
X013604Y023549D01*
X013505Y023451D02*
X014996Y023451D01*
X014898Y023352D02*
X013407Y023352D01*
X013308Y023254D02*
X014799Y023254D01*
X014700Y023155D02*
X013210Y023155D01*
X013111Y023057D02*
X014602Y023057D01*
X014503Y022958D02*
X013013Y022958D01*
X012914Y022860D02*
X014405Y022860D01*
X014306Y022761D02*
X012816Y022761D01*
X012717Y022663D02*
X014208Y022663D01*
X014109Y022564D02*
X012619Y022564D01*
X012520Y022466D02*
X014011Y022466D01*
X013912Y022367D02*
X012480Y022367D01*
X012480Y022269D02*
X013814Y022269D01*
X013715Y022170D02*
X012480Y022170D01*
X012480Y022072D02*
X013617Y022072D01*
X013518Y021973D02*
X012480Y021973D01*
X012480Y021875D02*
X013420Y021875D01*
X013300Y021500D02*
X013300Y019700D01*
X012300Y019700D02*
X012300Y022500D01*
X014300Y024500D01*
X013800Y025500D02*
X010300Y022000D01*
X010300Y019700D01*
X010008Y019412D02*
X009620Y019412D01*
X009719Y019511D02*
X009910Y019511D01*
X009890Y019609D02*
X009730Y019609D01*
X009730Y019740D02*
X009340Y019740D01*
X009340Y020130D01*
X009478Y020130D01*
X009730Y019878D01*
X009730Y019740D01*
X009730Y019806D02*
X009890Y019806D01*
X009890Y019708D02*
X009340Y019708D01*
X009260Y019708D02*
X008710Y019708D01*
X008710Y019806D02*
X008870Y019806D01*
X008896Y019905D02*
X008675Y019905D01*
X008577Y020003D02*
X008995Y020003D01*
X009093Y020102D02*
X008478Y020102D01*
X008122Y020102D02*
X007478Y020102D01*
X007577Y020003D02*
X008023Y020003D01*
X007925Y019905D02*
X007675Y019905D01*
X007710Y019806D02*
X007890Y019806D01*
X007890Y019708D02*
X007710Y019708D01*
X007710Y019609D02*
X007890Y019609D01*
X007910Y019511D02*
X007744Y019511D01*
X007843Y019412D02*
X008008Y019412D01*
X007800Y019200D02*
X007300Y019700D01*
X007008Y019412D02*
X006843Y019412D01*
X006925Y019330D02*
X006710Y019545D01*
X006710Y019870D01*
X006470Y020110D01*
X006130Y020110D01*
X005890Y019870D01*
X005890Y019530D01*
X006130Y019290D01*
X006455Y019290D01*
X006670Y019075D01*
X006670Y018910D01*
X006470Y019110D01*
X006130Y019110D01*
X005890Y018870D01*
X005890Y018545D01*
X005025Y017680D01*
X003668Y017680D01*
X003460Y017887D01*
X003140Y017887D01*
X002913Y017660D01*
X002913Y017340D01*
X003140Y017113D01*
X003460Y017113D01*
X003668Y017320D01*
X004965Y017320D01*
X004325Y016680D01*
X003668Y016680D01*
X003460Y016887D01*
X003140Y016887D01*
X002913Y016660D01*
X002913Y016340D01*
X003140Y016113D01*
X003460Y016113D01*
X003668Y016320D01*
X004475Y016320D01*
X006125Y017970D01*
X006625Y017970D01*
X006925Y018270D01*
X007030Y018375D01*
X007030Y018390D01*
X007130Y018290D01*
X007470Y018290D01*
X007710Y018530D01*
X007710Y018870D01*
X007470Y019110D01*
X007130Y019110D01*
X007030Y019010D01*
X007030Y019225D01*
X006925Y019330D01*
X006925Y019330D01*
X006941Y019314D02*
X007107Y019314D01*
X007030Y019215D02*
X007530Y019215D01*
X007629Y019117D02*
X007030Y019117D01*
X007030Y019018D02*
X007038Y019018D01*
X006850Y019150D02*
X006300Y019700D01*
X006008Y019412D02*
X005592Y019412D01*
X005690Y019511D02*
X005910Y019511D01*
X005890Y019609D02*
X005710Y019609D01*
X005710Y019530D02*
X005470Y019290D01*
X005130Y019290D01*
X004890Y019530D01*
X004890Y019870D01*
X005130Y020110D01*
X005470Y020110D01*
X005710Y019870D01*
X005710Y019530D01*
X005710Y019708D02*
X005890Y019708D01*
X005890Y019806D02*
X005710Y019806D01*
X005675Y019905D02*
X005925Y019905D01*
X006023Y020003D02*
X005577Y020003D01*
X005478Y020102D02*
X006122Y020102D01*
X006478Y020102D02*
X007122Y020102D01*
X007023Y020003D02*
X006577Y020003D01*
X006675Y019905D02*
X006925Y019905D01*
X006890Y019806D02*
X006710Y019806D01*
X006710Y019708D02*
X006890Y019708D01*
X006890Y019609D02*
X006710Y019609D01*
X006744Y019511D02*
X006910Y019511D01*
X006850Y019150D02*
X006850Y018450D01*
X006550Y018150D01*
X006050Y018150D01*
X004400Y016500D01*
X003300Y016500D01*
X003005Y016753D02*
X002595Y016753D01*
X002687Y016660D02*
X002460Y016887D01*
X002140Y016887D01*
X001913Y016660D01*
X001913Y016340D01*
X002140Y016113D01*
X002460Y016113D01*
X002687Y016340D01*
X002687Y016660D01*
X002687Y016654D02*
X002913Y016654D01*
X002913Y016556D02*
X002687Y016556D01*
X002687Y016457D02*
X002913Y016457D01*
X002913Y016359D02*
X002687Y016359D01*
X002608Y016260D02*
X002992Y016260D01*
X003090Y016162D02*
X002510Y016162D01*
X002460Y015887D02*
X002140Y015887D01*
X001913Y015660D01*
X001913Y015340D01*
X002140Y015113D01*
X002460Y015113D01*
X002687Y015340D01*
X002687Y015660D01*
X002460Y015887D01*
X002482Y015866D02*
X003118Y015866D01*
X003020Y015768D02*
X002580Y015768D01*
X002679Y015669D02*
X002921Y015669D01*
X002913Y015571D02*
X002687Y015571D01*
X002687Y015472D02*
X002913Y015472D01*
X002913Y015374D02*
X002687Y015374D01*
X002623Y015275D02*
X002977Y015275D01*
X003075Y015177D02*
X002525Y015177D01*
X002460Y014887D02*
X002140Y014887D01*
X001913Y014660D01*
X001913Y014340D01*
X002140Y014113D01*
X002460Y014113D01*
X002687Y014340D01*
X002687Y014660D01*
X002460Y014887D01*
X002467Y014881D02*
X003133Y014881D01*
X003035Y014783D02*
X002565Y014783D01*
X002664Y014684D02*
X002936Y014684D01*
X002913Y014586D02*
X002687Y014586D01*
X002687Y014487D02*
X002913Y014487D01*
X002913Y014389D02*
X002687Y014389D01*
X002638Y014290D02*
X002962Y014290D01*
X003060Y014192D02*
X002540Y014192D01*
X002488Y014093D02*
X001250Y014093D01*
X001250Y013995D02*
X002390Y013995D01*
X002291Y013896D02*
X001250Y013896D01*
X001250Y013798D02*
X002220Y013798D01*
X002220Y013699D02*
X001250Y013699D01*
X001250Y013601D02*
X002220Y013601D01*
X002220Y013502D02*
X001250Y013502D01*
X001250Y013404D02*
X002220Y013404D01*
X002220Y013305D02*
X001250Y013305D01*
X001250Y013207D02*
X002220Y013207D01*
X002220Y013108D02*
X001250Y013108D01*
X001250Y013010D02*
X002220Y013010D01*
X002234Y012911D02*
X001250Y012911D01*
X001250Y012813D02*
X002333Y012813D01*
X002431Y012714D02*
X001250Y012714D01*
X001250Y012616D02*
X002530Y012616D01*
X002628Y012517D02*
X001250Y012517D01*
X001250Y012419D02*
X002727Y012419D01*
X002825Y012320D02*
X002932Y012320D01*
X002900Y012500D02*
X002400Y013000D01*
X002400Y013750D01*
X002650Y014000D01*
X005400Y014000D01*
X009800Y018400D01*
X009800Y019100D01*
X009700Y019200D01*
X008950Y019200D01*
X008700Y019450D01*
X008550Y019450D01*
X008300Y019700D01*
X008796Y019609D02*
X008870Y019609D01*
X008600Y019200D02*
X007800Y019200D01*
X007562Y019018D02*
X008038Y019018D01*
X007940Y018920D02*
X007660Y018920D01*
X007710Y018821D02*
X007890Y018821D01*
X007890Y018723D02*
X007710Y018723D01*
X007710Y018624D02*
X007890Y018624D01*
X007871Y018526D02*
X007705Y018526D01*
X007772Y018427D02*
X007607Y018427D01*
X007674Y018329D02*
X007508Y018329D01*
X007575Y018230D02*
X006885Y018230D01*
X006983Y018329D02*
X007092Y018329D01*
X006786Y018132D02*
X007477Y018132D01*
X007378Y018033D02*
X006688Y018033D01*
X006984Y017639D02*
X005794Y017639D01*
X005892Y017738D02*
X007083Y017738D01*
X007181Y017836D02*
X005991Y017836D01*
X006089Y017935D02*
X007280Y017935D01*
X007695Y017541D02*
X008686Y017541D01*
X008784Y017639D02*
X007794Y017639D01*
X007892Y017738D02*
X008883Y017738D01*
X008981Y017836D02*
X007991Y017836D01*
X008075Y017920D02*
X008525Y017920D01*
X008925Y018320D01*
X009012Y018408D01*
X009130Y018290D01*
X009435Y018290D01*
X005325Y014180D01*
X003528Y014180D01*
X003668Y014320D01*
X004475Y014320D01*
X008075Y017920D01*
X008000Y018100D02*
X008450Y018100D01*
X008850Y018500D01*
X008850Y018950D01*
X008600Y019200D01*
X008300Y018700D02*
X005100Y015500D01*
X003300Y015500D01*
X003580Y015768D02*
X005113Y015768D01*
X005211Y015866D02*
X003482Y015866D01*
X003510Y016162D02*
X005507Y016162D01*
X005605Y016260D02*
X003608Y016260D01*
X003595Y016753D02*
X004398Y016753D01*
X004496Y016851D02*
X003497Y016851D01*
X003495Y017147D02*
X004792Y017147D01*
X004890Y017245D02*
X003593Y017245D01*
X003300Y017500D02*
X005100Y017500D01*
X006300Y018700D01*
X005890Y018723D02*
X005710Y018723D01*
X005710Y018821D02*
X005890Y018821D01*
X005940Y018920D02*
X005660Y018920D01*
X005710Y018870D02*
X005470Y019110D01*
X005130Y019110D01*
X004890Y018870D01*
X004890Y018530D01*
X005130Y018290D01*
X005470Y018290D01*
X005710Y018530D01*
X005710Y018870D01*
X005562Y019018D02*
X006038Y019018D01*
X006107Y019314D02*
X005493Y019314D01*
X005107Y019314D02*
X004493Y019314D01*
X004470Y019290D02*
X004710Y019530D01*
X004710Y019870D01*
X004470Y020110D01*
X004130Y020110D01*
X003890Y019870D01*
X003890Y019530D01*
X004130Y019290D01*
X004470Y019290D01*
X004592Y019412D02*
X005008Y019412D01*
X004910Y019511D02*
X004690Y019511D01*
X004710Y019609D02*
X004890Y019609D01*
X004890Y019708D02*
X004710Y019708D01*
X004710Y019806D02*
X004890Y019806D01*
X004925Y019905D02*
X004675Y019905D01*
X004577Y020003D02*
X005023Y020003D01*
X005122Y020102D02*
X004478Y020102D01*
X004122Y020102D02*
X002525Y020102D01*
X002525Y020003D02*
X004023Y020003D01*
X003925Y019905D02*
X002525Y019905D01*
X002525Y019806D02*
X003890Y019806D01*
X003890Y019708D02*
X002525Y019708D01*
X002525Y019609D02*
X003890Y019609D01*
X003910Y019511D02*
X002460Y019511D01*
X002539Y019412D02*
X004008Y019412D01*
X004107Y019314D02*
X002545Y019314D01*
X002545Y019215D02*
X006530Y019215D01*
X006629Y019117D02*
X002150Y019117D01*
X002150Y019076D02*
X002545Y019076D01*
X002545Y018862D01*
X002535Y018824D01*
X002515Y018790D01*
X002487Y018762D01*
X002453Y018742D01*
X002415Y018732D01*
X002150Y018732D01*
X002150Y019076D01*
X002150Y019018D02*
X002050Y019018D01*
X002050Y018920D02*
X002150Y018920D01*
X002150Y018821D02*
X002050Y018821D01*
X002050Y019117D02*
X001250Y019117D01*
X001250Y019215D02*
X001655Y019215D01*
X001655Y019314D02*
X001250Y019314D01*
X001250Y019412D02*
X001661Y019412D01*
X001740Y019511D02*
X001250Y019511D01*
X001250Y019609D02*
X001675Y019609D01*
X001675Y019708D02*
X001250Y019708D01*
X001250Y019806D02*
X001675Y019806D01*
X001675Y019905D02*
X001250Y019905D01*
X001250Y020003D02*
X001675Y020003D01*
X001675Y020102D02*
X001250Y020102D01*
X001250Y020200D02*
X001703Y020200D01*
X002040Y020299D02*
X001250Y020299D01*
X001250Y020397D02*
X002156Y020397D01*
X002272Y020496D02*
X001250Y020496D01*
X001250Y020594D02*
X002388Y020594D01*
X002504Y020693D02*
X001250Y020693D01*
X001250Y020791D02*
X002620Y020791D01*
X002736Y020890D02*
X001250Y020890D01*
X001250Y020988D02*
X002851Y020988D01*
X002967Y021087D02*
X001250Y021087D01*
X002511Y020200D02*
X010120Y020200D01*
X010120Y020102D02*
X009507Y020102D01*
X009605Y020003D02*
X010023Y020003D01*
X009925Y019905D02*
X009704Y019905D01*
X009340Y019905D02*
X009260Y019905D01*
X009260Y020003D02*
X009340Y020003D01*
X009340Y020102D02*
X009260Y020102D01*
X009260Y019806D02*
X009340Y019806D01*
X009841Y019314D02*
X010107Y019314D01*
X009940Y019215D02*
X010620Y019215D01*
X010620Y019117D02*
X009980Y019117D01*
X009980Y019018D02*
X010038Y019018D01*
X010300Y018700D02*
X010300Y018550D01*
X010150Y018400D01*
X005200Y013500D01*
X003300Y013500D01*
X002913Y013502D02*
X002580Y013502D01*
X002580Y013404D02*
X002913Y013404D01*
X002947Y013305D02*
X002580Y013305D01*
X002580Y013207D02*
X003045Y013207D01*
X002913Y013601D02*
X002580Y013601D01*
X002604Y013699D02*
X002951Y013699D01*
X003050Y013798D02*
X002702Y013798D01*
X002060Y014192D02*
X001250Y014192D01*
X001250Y014290D02*
X001962Y014290D01*
X001913Y014389D02*
X001250Y014389D01*
X001250Y014487D02*
X001913Y014487D01*
X001913Y014586D02*
X001250Y014586D01*
X001250Y014684D02*
X001936Y014684D01*
X002035Y014783D02*
X001250Y014783D01*
X001250Y014881D02*
X002133Y014881D01*
X002075Y015177D02*
X001250Y015177D01*
X001250Y015275D02*
X001977Y015275D01*
X001913Y015374D02*
X001250Y015374D01*
X001250Y015472D02*
X001913Y015472D01*
X001913Y015571D02*
X001250Y015571D01*
X001250Y015669D02*
X001921Y015669D01*
X002020Y015768D02*
X001250Y015768D01*
X001250Y015866D02*
X002118Y015866D01*
X002090Y016162D02*
X001250Y016162D01*
X001250Y016260D02*
X001992Y016260D01*
X001913Y016359D02*
X001250Y016359D01*
X001250Y016457D02*
X001913Y016457D01*
X001913Y016556D02*
X001250Y016556D01*
X001250Y016654D02*
X001913Y016654D01*
X002005Y016753D02*
X001250Y016753D01*
X001250Y016851D02*
X002103Y016851D01*
X002023Y017093D02*
X002271Y017093D01*
X002271Y017471D01*
X002329Y017471D01*
X002329Y017529D01*
X002271Y017529D01*
X002271Y017907D01*
X002023Y017907D01*
X001985Y017897D01*
X001950Y017878D01*
X001922Y017850D01*
X001903Y017815D01*
X001893Y017777D01*
X001893Y017529D01*
X002271Y017529D01*
X002271Y017471D01*
X001893Y017471D01*
X001893Y017223D01*
X001903Y017185D01*
X001922Y017150D01*
X001950Y017122D01*
X001985Y017103D01*
X002023Y017093D01*
X001926Y017147D02*
X001250Y017147D01*
X001250Y017245D02*
X001893Y017245D01*
X001893Y017344D02*
X001250Y017344D01*
X001250Y017442D02*
X001893Y017442D01*
X001893Y017541D02*
X001250Y017541D01*
X001250Y017639D02*
X001893Y017639D01*
X001893Y017738D02*
X001250Y017738D01*
X001250Y017836D02*
X001915Y017836D01*
X002271Y017836D02*
X002329Y017836D01*
X002329Y017907D02*
X002329Y017529D01*
X002707Y017529D01*
X002707Y017777D01*
X002697Y017815D01*
X002678Y017850D01*
X002650Y017878D01*
X002615Y017897D01*
X002577Y017907D01*
X002329Y017907D01*
X002329Y017738D02*
X002271Y017738D01*
X002271Y017639D02*
X002329Y017639D01*
X002329Y017541D02*
X002271Y017541D01*
X002329Y017471D02*
X002329Y017093D01*
X002577Y017093D01*
X002615Y017103D01*
X002650Y017122D01*
X002678Y017150D01*
X002697Y017185D01*
X002707Y017223D01*
X002707Y017471D01*
X002329Y017471D01*
X002329Y017442D02*
X002271Y017442D01*
X002271Y017344D02*
X002329Y017344D01*
X002329Y017245D02*
X002271Y017245D01*
X002271Y017147D02*
X002329Y017147D01*
X002497Y016851D02*
X003103Y016851D01*
X003105Y017147D02*
X002674Y017147D01*
X002707Y017245D02*
X003007Y017245D01*
X002913Y017344D02*
X002707Y017344D01*
X002707Y017442D02*
X002913Y017442D01*
X002913Y017541D02*
X002707Y017541D01*
X002707Y017639D02*
X002913Y017639D01*
X002990Y017738D02*
X002707Y017738D01*
X002685Y017836D02*
X003088Y017836D01*
X003512Y017836D02*
X005181Y017836D01*
X005083Y017738D02*
X003610Y017738D01*
X004068Y018352D02*
X004218Y018290D01*
X004382Y018290D01*
X004532Y018352D01*
X004648Y018468D01*
X004710Y018618D01*
X004710Y018782D01*
X004648Y018932D01*
X004532Y019048D01*
X004382Y019110D01*
X004218Y019110D01*
X004068Y019048D01*
X003952Y018932D01*
X003890Y018782D01*
X003890Y018618D01*
X003952Y018468D01*
X004068Y018352D01*
X004125Y018329D02*
X001250Y018329D01*
X001250Y018427D02*
X003993Y018427D01*
X003928Y018526D02*
X001250Y018526D01*
X001250Y018624D02*
X003890Y018624D01*
X003890Y018723D02*
X001250Y018723D01*
X001250Y018821D02*
X001667Y018821D01*
X001655Y018920D02*
X001250Y018920D01*
X001250Y019018D02*
X001655Y019018D01*
X001250Y018230D02*
X005575Y018230D01*
X005508Y018329D02*
X005674Y018329D01*
X005607Y018427D02*
X005772Y018427D01*
X005705Y018526D02*
X005871Y018526D01*
X005890Y018624D02*
X005710Y018624D01*
X005477Y018132D02*
X001250Y018132D01*
X001250Y018033D02*
X005378Y018033D01*
X005280Y017935D02*
X001250Y017935D01*
X001250Y017048D02*
X004693Y017048D01*
X004595Y016950D02*
X001250Y016950D01*
X001250Y016063D02*
X005408Y016063D01*
X005310Y015965D02*
X001250Y015965D01*
X001250Y015078D02*
X004723Y015078D01*
X004625Y014980D02*
X001250Y014980D01*
X003300Y014500D02*
X004400Y014500D01*
X008000Y018100D01*
X008539Y017935D02*
X009080Y017935D01*
X009178Y018033D02*
X008638Y018033D01*
X008736Y018132D02*
X009277Y018132D01*
X009375Y018230D02*
X008835Y018230D01*
X008933Y018329D02*
X009092Y018329D01*
X009737Y017738D02*
X009883Y017738D01*
X009836Y017836D02*
X009981Y017836D01*
X009936Y017935D02*
X010080Y017935D01*
X010035Y018033D02*
X010178Y018033D01*
X010135Y018132D02*
X010277Y018132D01*
X010235Y018230D02*
X010375Y018230D01*
X009784Y017639D02*
X009637Y017639D01*
X009686Y017541D02*
X009538Y017541D01*
X009587Y017442D02*
X009438Y017442D01*
X009489Y017344D02*
X009339Y017344D01*
X009390Y017245D02*
X009239Y017245D01*
X009292Y017147D02*
X009140Y017147D01*
X009193Y017048D02*
X009040Y017048D01*
X009095Y016950D02*
X008941Y016950D01*
X008996Y016851D02*
X008841Y016851D01*
X008898Y016753D02*
X008742Y016753D01*
X008799Y016654D02*
X008642Y016654D01*
X008701Y016556D02*
X008543Y016556D01*
X008602Y016457D02*
X008443Y016457D01*
X008504Y016359D02*
X008344Y016359D01*
X008405Y016260D02*
X008244Y016260D01*
X008307Y016162D02*
X008145Y016162D01*
X008208Y016063D02*
X008045Y016063D01*
X008110Y015965D02*
X007946Y015965D01*
X008011Y015866D02*
X007846Y015866D01*
X007913Y015768D02*
X007747Y015768D01*
X007814Y015669D02*
X007647Y015669D01*
X007716Y015571D02*
X007548Y015571D01*
X007617Y015472D02*
X007448Y015472D01*
X007519Y015374D02*
X007349Y015374D01*
X007420Y015275D02*
X007249Y015275D01*
X007322Y015177D02*
X007150Y015177D01*
X007223Y015078D02*
X007050Y015078D01*
X007125Y014980D02*
X006950Y014980D01*
X007026Y014881D02*
X006851Y014881D01*
X006928Y014783D02*
X006751Y014783D01*
X006829Y014684D02*
X006652Y014684D01*
X006731Y014586D02*
X006552Y014586D01*
X006632Y014487D02*
X006453Y014487D01*
X006534Y014389D02*
X006353Y014389D01*
X006435Y014290D02*
X006254Y014290D01*
X006337Y014192D02*
X006154Y014192D01*
X006238Y014093D02*
X006055Y014093D01*
X006140Y013995D02*
X005955Y013995D01*
X006041Y013896D02*
X005856Y013896D01*
X005943Y013798D02*
X005756Y013798D01*
X005844Y013699D02*
X005657Y013699D01*
X005746Y013601D02*
X005557Y013601D01*
X005647Y013502D02*
X005458Y013502D01*
X005549Y013404D02*
X005358Y013404D01*
X005274Y013320D02*
X005274Y013320D01*
X005352Y013207D02*
X003555Y013207D01*
X003653Y013305D02*
X005450Y013305D01*
X005253Y013108D02*
X002580Y013108D01*
X002645Y013010D02*
X005155Y013010D01*
X005056Y012911D02*
X002744Y012911D01*
X002842Y012813D02*
X003065Y012813D01*
X002966Y012714D02*
X002941Y012714D01*
X002900Y012500D02*
X003300Y012500D01*
X003570Y012222D02*
X004367Y012222D01*
X004465Y012320D02*
X003668Y012320D01*
X003687Y012419D02*
X004564Y012419D01*
X004662Y012517D02*
X003687Y012517D01*
X003687Y012616D02*
X004761Y012616D01*
X004859Y012714D02*
X003634Y012714D01*
X003535Y012813D02*
X004958Y012813D01*
X004268Y012123D02*
X003471Y012123D01*
X003129Y012123D02*
X001250Y012123D01*
X001250Y012025D02*
X004170Y012025D01*
X003900Y011500D02*
X003300Y011500D01*
X003585Y011237D02*
X003682Y011237D01*
X003583Y011138D02*
X003486Y011138D01*
X002948Y010153D02*
X001250Y010153D01*
X001250Y010055D02*
X002850Y010055D01*
X002751Y009956D02*
X001250Y009956D01*
X001250Y009858D02*
X001930Y009858D01*
X001893Y009759D02*
X001250Y009759D01*
X001250Y009661D02*
X001893Y009661D01*
X001893Y009562D02*
X001250Y009562D01*
X001250Y009464D02*
X001893Y009464D01*
X001893Y009471D02*
X001893Y009223D01*
X001903Y009185D01*
X001922Y009150D01*
X001950Y009122D01*
X001985Y009103D01*
X002023Y009093D01*
X002271Y009093D01*
X002271Y009471D01*
X001893Y009471D01*
X001893Y009365D02*
X001250Y009365D01*
X001250Y009267D02*
X001893Y009267D01*
X001912Y009168D02*
X001250Y009168D01*
X001250Y009070D02*
X002620Y009070D01*
X002620Y008971D02*
X001250Y008971D01*
X001250Y008873D02*
X002125Y008873D01*
X002140Y008887D02*
X001913Y008660D01*
X001913Y008340D01*
X002140Y008113D01*
X002460Y008113D01*
X002687Y008340D01*
X002687Y008660D01*
X002460Y008887D01*
X002140Y008887D01*
X002026Y008774D02*
X001250Y008774D01*
X001250Y008676D02*
X001928Y008676D01*
X001913Y008577D02*
X001250Y008577D01*
X001250Y008479D02*
X001913Y008479D01*
X001913Y008380D02*
X001250Y008380D01*
X001250Y008282D02*
X001971Y008282D01*
X002069Y008183D02*
X001250Y008183D01*
X001250Y008085D02*
X005430Y008085D01*
X005528Y008183D02*
X003531Y008183D01*
X003629Y008282D02*
X005627Y008282D01*
X005725Y008380D02*
X003687Y008380D01*
X003687Y008479D02*
X005824Y008479D01*
X005922Y008577D02*
X003687Y008577D01*
X003672Y008676D02*
X006021Y008676D01*
X006119Y008774D02*
X003574Y008774D01*
X003475Y008873D02*
X006218Y008873D01*
X006316Y008971D02*
X003084Y008971D01*
X002985Y009070D02*
X006415Y009070D01*
X006513Y009168D02*
X003516Y009168D01*
X003615Y009267D02*
X006612Y009267D01*
X007027Y008873D02*
X008018Y008873D01*
X008116Y008971D02*
X007126Y008971D01*
X007224Y009070D02*
X008215Y009070D01*
X008313Y009168D02*
X007323Y009168D01*
X007421Y009267D02*
X008412Y009267D01*
X008510Y009365D02*
X007520Y009365D01*
X007618Y009464D02*
X008609Y009464D01*
X008707Y009562D02*
X007717Y009562D01*
X007815Y009661D02*
X008806Y009661D01*
X008904Y009759D02*
X007914Y009759D01*
X008012Y009858D02*
X009003Y009858D01*
X009101Y009956D02*
X008111Y009956D01*
X008209Y010055D02*
X009200Y010055D01*
X009298Y010153D02*
X008308Y010153D01*
X008406Y010252D02*
X009397Y010252D01*
X009495Y010350D02*
X008505Y010350D01*
X008603Y010449D02*
X009594Y010449D01*
X009692Y010547D02*
X008702Y010547D01*
X008800Y010646D02*
X009791Y010646D01*
X009889Y010744D02*
X008899Y010744D01*
X008997Y010843D02*
X009988Y010843D01*
X010086Y010941D02*
X009096Y010941D01*
X009194Y011040D02*
X010185Y011040D01*
X010283Y011138D02*
X009293Y011138D01*
X009391Y011237D02*
X010382Y011237D01*
X010480Y011335D02*
X009490Y011335D01*
X009588Y011434D02*
X010579Y011434D01*
X010677Y011532D02*
X009687Y011532D01*
X009785Y011631D02*
X010776Y011631D01*
X010874Y011729D02*
X009884Y011729D01*
X009982Y011828D02*
X010973Y011828D01*
X011071Y011926D02*
X010081Y011926D01*
X010179Y012025D02*
X011170Y012025D01*
X011268Y012123D02*
X010278Y012123D01*
X010376Y012222D02*
X011367Y012222D01*
X011465Y012320D02*
X010475Y012320D01*
X010573Y012419D02*
X011564Y012419D01*
X011662Y012517D02*
X010672Y012517D01*
X010770Y012616D02*
X011761Y012616D01*
X011859Y012714D02*
X010869Y012714D01*
X010967Y012813D02*
X011958Y012813D01*
X012056Y012911D02*
X011066Y012911D01*
X011164Y013010D02*
X012155Y013010D01*
X012253Y013108D02*
X011263Y013108D01*
X011361Y013207D02*
X012352Y013207D01*
X012450Y013305D02*
X011460Y013305D01*
X011558Y013404D02*
X012549Y013404D01*
X012647Y013502D02*
X011657Y013502D01*
X011755Y013601D02*
X012746Y013601D01*
X012844Y013699D02*
X011854Y013699D01*
X011952Y013798D02*
X012943Y013798D01*
X013041Y013896D02*
X012051Y013896D01*
X012149Y013995D02*
X013140Y013995D01*
X013238Y014093D02*
X012248Y014093D01*
X012346Y014192D02*
X013337Y014192D01*
X013435Y014290D02*
X012445Y014290D01*
X012543Y014389D02*
X013534Y014389D01*
X013632Y014487D02*
X012642Y014487D01*
X012740Y014586D02*
X013731Y014586D01*
X013829Y014684D02*
X012839Y014684D01*
X012937Y014783D02*
X013928Y014783D01*
X014026Y014881D02*
X013036Y014881D01*
X013134Y014980D02*
X014125Y014980D01*
X014223Y015078D02*
X013233Y015078D01*
X013331Y015177D02*
X014322Y015177D01*
X014420Y015275D02*
X013430Y015275D01*
X013528Y015374D02*
X014519Y015374D01*
X014617Y015472D02*
X013627Y015472D01*
X013725Y015571D02*
X014716Y015571D01*
X014814Y015669D02*
X013824Y015669D01*
X013922Y015768D02*
X014913Y015768D01*
X015011Y015866D02*
X014021Y015866D01*
X014119Y015965D02*
X015110Y015965D01*
X015208Y016063D02*
X014218Y016063D01*
X014316Y016162D02*
X015307Y016162D01*
X015405Y016260D02*
X014415Y016260D01*
X014513Y016359D02*
X015504Y016359D01*
X015602Y016457D02*
X014612Y016457D01*
X014710Y016556D02*
X015701Y016556D01*
X015799Y016654D02*
X014809Y016654D01*
X014907Y016753D02*
X015898Y016753D01*
X015996Y016851D02*
X015006Y016851D01*
X015104Y016950D02*
X016095Y016950D01*
X016193Y017048D02*
X015203Y017048D01*
X015301Y017147D02*
X016292Y017147D01*
X016390Y017245D02*
X015400Y017245D01*
X015498Y017344D02*
X016489Y017344D01*
X016587Y017442D02*
X015597Y017442D01*
X015695Y017541D02*
X016686Y017541D01*
X016784Y017639D02*
X015794Y017639D01*
X015892Y017738D02*
X016883Y017738D01*
X016981Y017836D02*
X015991Y017836D01*
X016000Y018100D02*
X016550Y018100D01*
X016000Y018100D02*
X005100Y007200D01*
X003950Y007200D01*
X003300Y006550D01*
X003300Y006500D01*
X002913Y006509D02*
X002687Y006509D01*
X002687Y006607D02*
X002913Y006607D01*
X002958Y006706D02*
X002642Y006706D01*
X002687Y006660D02*
X002460Y006887D01*
X002140Y006887D01*
X001913Y006660D01*
X001913Y006340D01*
X002140Y006113D01*
X002460Y006113D01*
X002687Y006340D01*
X002687Y006660D01*
X002544Y006804D02*
X003056Y006804D01*
X002913Y006410D02*
X002687Y006410D01*
X002659Y006312D02*
X002941Y006312D01*
X003039Y006213D02*
X002561Y006213D01*
X002462Y006115D02*
X002860Y006115D01*
X002761Y006016D02*
X001250Y006016D01*
X001250Y005918D02*
X002663Y005918D01*
X002620Y005819D02*
X001250Y005819D01*
X001250Y005721D02*
X002620Y005721D01*
X002620Y005622D02*
X001250Y005622D01*
X001250Y005524D02*
X002620Y005524D01*
X002620Y005425D02*
X001250Y005425D01*
X001250Y005327D02*
X002620Y005327D01*
X002620Y005228D02*
X001250Y005228D01*
X001250Y005130D02*
X002620Y005130D01*
X002620Y005031D02*
X001250Y005031D01*
X001250Y004933D02*
X002620Y004933D01*
X002800Y004700D02*
X002800Y005800D01*
X003000Y006000D01*
X005400Y006000D01*
X017800Y018400D01*
X017800Y019050D01*
X017900Y019150D01*
X018750Y019150D01*
X019300Y019700D01*
X019023Y020003D02*
X018605Y020003D01*
X018507Y020102D02*
X019122Y020102D01*
X018925Y019905D02*
X018704Y019905D01*
X018730Y019878D02*
X018478Y020130D01*
X018340Y020130D01*
X018340Y019740D01*
X018730Y019740D01*
X018730Y019878D01*
X018730Y019806D02*
X018890Y019806D01*
X018890Y019708D02*
X018340Y019708D01*
X018260Y019708D02*
X017710Y019708D01*
X017710Y019806D02*
X017870Y019806D01*
X017896Y019905D02*
X017675Y019905D01*
X017758Y020003D02*
X017995Y020003D01*
X018093Y020102D02*
X017856Y020102D01*
X017850Y020350D02*
X019500Y020350D01*
X019050Y020950D02*
X019300Y021200D01*
X019300Y024500D01*
X018997Y025224D02*
X018632Y025224D01*
X018006Y025815D02*
X017565Y025815D01*
X017664Y025716D02*
X017908Y025716D01*
X017870Y025618D02*
X017710Y025618D01*
X018300Y024500D02*
X018150Y024350D01*
X018150Y024250D01*
X015300Y021400D01*
X015300Y019700D01*
X015592Y019412D02*
X015620Y019412D01*
X015559Y019314D02*
X015493Y019314D01*
X015460Y019215D02*
X014980Y019215D01*
X014980Y019314D02*
X015107Y019314D01*
X015008Y019412D02*
X014980Y019412D01*
X014800Y019200D02*
X014300Y018700D01*
X014710Y018723D02*
X014890Y018723D01*
X014890Y018821D02*
X014710Y018821D01*
X014774Y018920D02*
X014940Y018920D01*
X014873Y019018D02*
X015038Y019018D01*
X014971Y019117D02*
X015362Y019117D01*
X015300Y018800D02*
X015800Y019300D01*
X015800Y020200D01*
X016550Y020950D01*
X019050Y020950D01*
X019030Y021185D02*
X015480Y021185D01*
X015480Y021087D02*
X016432Y021087D01*
X016333Y020988D02*
X015480Y020988D01*
X015480Y020890D02*
X016235Y020890D01*
X016136Y020791D02*
X015480Y020791D01*
X015480Y020693D02*
X016038Y020693D01*
X015939Y020594D02*
X015480Y020594D01*
X015480Y020496D02*
X015841Y020496D01*
X015742Y020397D02*
X015480Y020397D01*
X015480Y020299D02*
X015644Y020299D01*
X015620Y020200D02*
X015480Y020200D01*
X015480Y020102D02*
X015620Y020102D01*
X015620Y020003D02*
X015577Y020003D01*
X016562Y019018D02*
X016620Y019018D01*
X016300Y018700D02*
X005100Y007500D01*
X003300Y007500D01*
X002913Y007494D02*
X002687Y007494D01*
X002687Y007592D02*
X002913Y007592D01*
X002943Y007691D02*
X002657Y007691D01*
X002687Y007660D02*
X002460Y007887D01*
X002140Y007887D01*
X001913Y007660D01*
X001913Y007340D01*
X002140Y007113D01*
X002460Y007113D01*
X002687Y007340D01*
X002687Y007660D01*
X002559Y007789D02*
X003041Y007789D01*
X003069Y008183D02*
X002531Y008183D01*
X002629Y008282D02*
X002971Y008282D01*
X002913Y008380D02*
X002687Y008380D01*
X002687Y008479D02*
X002913Y008479D01*
X002913Y008577D02*
X002687Y008577D01*
X002672Y008676D02*
X002870Y008676D01*
X002771Y008774D02*
X002574Y008774D01*
X002475Y008873D02*
X002673Y008873D01*
X002800Y009000D02*
X002800Y009750D01*
X003050Y010000D01*
X004250Y010000D01*
X004100Y009500D02*
X003300Y009500D01*
X002985Y009267D02*
X002980Y009267D01*
X002980Y009168D02*
X003084Y009168D01*
X002800Y009000D02*
X003300Y008500D01*
X003559Y007789D02*
X005134Y007789D01*
X005036Y007691D02*
X003657Y007691D01*
X003644Y007297D02*
X003792Y007297D01*
X003693Y007198D02*
X003546Y007198D01*
X003595Y007100D02*
X001250Y007100D01*
X001250Y007198D02*
X002054Y007198D01*
X001956Y007297D02*
X001250Y007297D01*
X001250Y007395D02*
X001913Y007395D01*
X001913Y007494D02*
X001250Y007494D01*
X001250Y007592D02*
X001913Y007592D01*
X001943Y007691D02*
X001250Y007691D01*
X001250Y007789D02*
X002041Y007789D01*
X002687Y007395D02*
X002913Y007395D01*
X002956Y007297D02*
X002644Y007297D01*
X002546Y007198D02*
X003054Y007198D01*
X003398Y006903D02*
X001250Y006903D01*
X001250Y007001D02*
X003496Y007001D01*
X003710Y006706D02*
X005851Y006706D01*
X005949Y006804D02*
X003809Y006804D01*
X003907Y006903D02*
X006048Y006903D01*
X006146Y007001D02*
X004006Y007001D01*
X003687Y006607D02*
X005752Y006607D01*
X005654Y006509D02*
X003687Y006509D01*
X003687Y006410D02*
X005555Y006410D01*
X005457Y006312D02*
X003659Y006312D01*
X003561Y006213D02*
X005358Y006213D01*
X005774Y005819D02*
X005864Y005819D01*
X005872Y005918D02*
X005963Y005918D01*
X005971Y006016D02*
X006061Y006016D01*
X006069Y006115D02*
X006160Y006115D01*
X006168Y006213D02*
X006258Y006213D01*
X006266Y006312D02*
X006357Y006312D01*
X006365Y006410D02*
X006455Y006410D01*
X006463Y006509D02*
X006554Y006509D01*
X006562Y006607D02*
X006652Y006607D01*
X006660Y006706D02*
X006751Y006706D01*
X006759Y006804D02*
X006849Y006804D01*
X006857Y006903D02*
X006948Y006903D01*
X006956Y007001D02*
X007046Y007001D01*
X007054Y007100D02*
X007145Y007100D01*
X007153Y007198D02*
X007243Y007198D01*
X007251Y007297D02*
X007342Y007297D01*
X007350Y007395D02*
X007440Y007395D01*
X007448Y007494D02*
X007539Y007494D01*
X007547Y007592D02*
X007637Y007592D01*
X007645Y007691D02*
X007736Y007691D01*
X007744Y007789D02*
X007834Y007789D01*
X007842Y007888D02*
X007933Y007888D01*
X007941Y007986D02*
X008031Y007986D01*
X008039Y008085D02*
X008130Y008085D01*
X008138Y008183D02*
X008228Y008183D01*
X008236Y008282D02*
X008327Y008282D01*
X008335Y008380D02*
X008425Y008380D01*
X008433Y008479D02*
X008524Y008479D01*
X008532Y008577D02*
X008622Y008577D01*
X008630Y008676D02*
X008721Y008676D01*
X008729Y008774D02*
X008819Y008774D01*
X008827Y008873D02*
X008918Y008873D01*
X008926Y008971D02*
X009016Y008971D01*
X009024Y009070D02*
X009115Y009070D01*
X009123Y009168D02*
X009213Y009168D01*
X009221Y009267D02*
X009312Y009267D01*
X009320Y009365D02*
X009410Y009365D01*
X009418Y009464D02*
X009509Y009464D01*
X009517Y009562D02*
X009607Y009562D01*
X009615Y009661D02*
X009706Y009661D01*
X009714Y009759D02*
X009804Y009759D01*
X009812Y009858D02*
X009903Y009858D01*
X009911Y009956D02*
X010001Y009956D01*
X010009Y010055D02*
X010100Y010055D01*
X010108Y010153D02*
X010198Y010153D01*
X010206Y010252D02*
X010297Y010252D01*
X010305Y010350D02*
X010395Y010350D01*
X010403Y010449D02*
X010494Y010449D01*
X010502Y010547D02*
X010592Y010547D01*
X010600Y010646D02*
X010691Y010646D01*
X010699Y010744D02*
X010789Y010744D01*
X010797Y010843D02*
X010888Y010843D01*
X010896Y010941D02*
X010986Y010941D01*
X010994Y011040D02*
X011085Y011040D01*
X011093Y011138D02*
X011183Y011138D01*
X011191Y011237D02*
X011282Y011237D01*
X011290Y011335D02*
X011380Y011335D01*
X011388Y011434D02*
X011479Y011434D01*
X011487Y011532D02*
X011577Y011532D01*
X011585Y011631D02*
X011676Y011631D01*
X011684Y011729D02*
X011774Y011729D01*
X011782Y011828D02*
X011873Y011828D01*
X011881Y011926D02*
X011971Y011926D01*
X011979Y012025D02*
X012070Y012025D01*
X012078Y012123D02*
X012168Y012123D01*
X012176Y012222D02*
X012267Y012222D01*
X012275Y012320D02*
X012365Y012320D01*
X012373Y012419D02*
X012464Y012419D01*
X012472Y012517D02*
X012562Y012517D01*
X012570Y012616D02*
X012661Y012616D01*
X012669Y012714D02*
X012759Y012714D01*
X012767Y012813D02*
X012858Y012813D01*
X012866Y012911D02*
X012956Y012911D01*
X012964Y013010D02*
X013055Y013010D01*
X013063Y013108D02*
X013153Y013108D01*
X013161Y013207D02*
X013252Y013207D01*
X013260Y013305D02*
X013350Y013305D01*
X013358Y013404D02*
X013449Y013404D01*
X013457Y013502D02*
X013547Y013502D01*
X013555Y013601D02*
X013646Y013601D01*
X013654Y013699D02*
X013744Y013699D01*
X013752Y013798D02*
X013843Y013798D01*
X013851Y013896D02*
X013941Y013896D01*
X013949Y013995D02*
X014040Y013995D01*
X014048Y014093D02*
X014138Y014093D01*
X014146Y014192D02*
X014237Y014192D01*
X014245Y014290D02*
X014335Y014290D01*
X014343Y014389D02*
X014434Y014389D01*
X014442Y014487D02*
X014532Y014487D01*
X014540Y014586D02*
X014631Y014586D01*
X014639Y014684D02*
X014729Y014684D01*
X014737Y014783D02*
X014828Y014783D01*
X014836Y014881D02*
X014926Y014881D01*
X014934Y014980D02*
X015025Y014980D01*
X015033Y015078D02*
X015123Y015078D01*
X015131Y015177D02*
X015222Y015177D01*
X015230Y015275D02*
X015320Y015275D01*
X015328Y015374D02*
X015419Y015374D01*
X015427Y015472D02*
X015517Y015472D01*
X015525Y015571D02*
X015616Y015571D01*
X015624Y015669D02*
X015714Y015669D01*
X015722Y015768D02*
X015813Y015768D01*
X015821Y015866D02*
X015911Y015866D01*
X015919Y015965D02*
X016010Y015965D01*
X016018Y016063D02*
X016108Y016063D01*
X016116Y016162D02*
X016207Y016162D01*
X016215Y016260D02*
X016305Y016260D01*
X016313Y016359D02*
X016404Y016359D01*
X016412Y016457D02*
X016502Y016457D01*
X016510Y016556D02*
X016601Y016556D01*
X016609Y016654D02*
X016699Y016654D01*
X016707Y016753D02*
X016798Y016753D01*
X016806Y016851D02*
X016896Y016851D01*
X016904Y016950D02*
X016995Y016950D01*
X017003Y017048D02*
X017093Y017048D01*
X017101Y017147D02*
X017192Y017147D01*
X017200Y017245D02*
X017290Y017245D01*
X017298Y017344D02*
X017389Y017344D01*
X017397Y017442D02*
X017487Y017442D01*
X017495Y017541D02*
X017586Y017541D01*
X017594Y017639D02*
X017684Y017639D01*
X017692Y017738D02*
X017783Y017738D01*
X017700Y018000D02*
X018600Y018000D01*
X019300Y018700D01*
X018757Y019412D02*
X018620Y019412D01*
X018719Y019511D02*
X018856Y019511D01*
X018890Y019609D02*
X018730Y019609D01*
X018340Y019806D02*
X018260Y019806D01*
X018260Y019905D02*
X018340Y019905D01*
X018340Y020003D02*
X018260Y020003D01*
X018260Y020102D02*
X018340Y020102D01*
X017850Y020350D02*
X017300Y019800D01*
X017300Y019700D01*
X017592Y019412D02*
X017980Y019412D01*
X017881Y019511D02*
X017690Y019511D01*
X017710Y019609D02*
X017870Y019609D01*
X017809Y019314D02*
X017493Y019314D01*
X017302Y019215D02*
X017710Y019215D01*
X017620Y019117D02*
X017392Y019117D01*
X017562Y019018D02*
X017620Y019018D01*
X017700Y018000D02*
X005200Y005500D01*
X003300Y005500D01*
X003576Y005228D02*
X005273Y005228D01*
X005281Y005327D02*
X005372Y005327D01*
X005380Y005425D02*
X005470Y005425D01*
X005478Y005524D02*
X005569Y005524D01*
X005577Y005622D02*
X005667Y005622D01*
X005675Y005721D02*
X005766Y005721D01*
X005175Y005130D02*
X003477Y005130D01*
X003514Y004834D02*
X004879Y004834D01*
X004781Y004736D02*
X003612Y004736D01*
X003687Y004637D02*
X004682Y004637D01*
X004584Y004539D02*
X003687Y004539D01*
X003687Y004440D02*
X004485Y004440D01*
X004387Y004342D02*
X003687Y004342D01*
X003591Y004243D02*
X004288Y004243D01*
X004190Y004145D02*
X003492Y004145D01*
X003499Y003849D02*
X003894Y003849D01*
X003796Y003751D02*
X003597Y003751D01*
X003300Y004500D02*
X003000Y004500D01*
X002800Y004700D01*
X002980Y004834D02*
X003086Y004834D01*
X002980Y004933D02*
X004978Y004933D01*
X005076Y005031D02*
X002980Y005031D01*
X002980Y005130D02*
X003123Y005130D01*
X003024Y005228D02*
X002980Y005228D01*
X002138Y006115D02*
X001250Y006115D01*
X001250Y006213D02*
X002039Y006213D01*
X001941Y006312D02*
X001250Y006312D01*
X001250Y006410D02*
X001913Y006410D01*
X001913Y006509D02*
X001250Y006509D01*
X001250Y006607D02*
X001913Y006607D01*
X001958Y006706D02*
X001250Y006706D01*
X001250Y006804D02*
X002056Y006804D01*
X001250Y007888D02*
X005233Y007888D01*
X005331Y007986D02*
X001250Y007986D01*
X002271Y009168D02*
X002329Y009168D01*
X002329Y009267D02*
X002271Y009267D01*
X002271Y009365D02*
X002329Y009365D01*
X002329Y009464D02*
X002271Y009464D01*
X002271Y009562D02*
X002329Y009562D01*
X002329Y009661D02*
X002271Y009661D01*
X002271Y009759D02*
X002329Y009759D01*
X002329Y009858D02*
X002271Y009858D01*
X005254Y007100D02*
X006245Y007100D01*
X006343Y007198D02*
X005353Y007198D01*
X005451Y007297D02*
X006442Y007297D01*
X006540Y007395D02*
X005550Y007395D01*
X005648Y007494D02*
X006639Y007494D01*
X006737Y007592D02*
X005747Y007592D01*
X005845Y007691D02*
X006836Y007691D01*
X006934Y007789D02*
X005944Y007789D01*
X006042Y007888D02*
X007033Y007888D01*
X007131Y007986D02*
X006141Y007986D01*
X006239Y008085D02*
X007230Y008085D01*
X007328Y008183D02*
X006338Y008183D01*
X006436Y008282D02*
X007427Y008282D01*
X007525Y008380D02*
X006535Y008380D01*
X006633Y008479D02*
X007624Y008479D01*
X007722Y008577D02*
X006732Y008577D01*
X006830Y008676D02*
X007821Y008676D01*
X007919Y008774D02*
X006929Y008774D01*
X009974Y005819D02*
X010864Y005819D01*
X010766Y005721D02*
X009875Y005721D01*
X009777Y005622D02*
X010667Y005622D01*
X010569Y005524D02*
X009678Y005524D01*
X009580Y005425D02*
X010470Y005425D01*
X010372Y005327D02*
X009481Y005327D01*
X009383Y005228D02*
X010273Y005228D01*
X010175Y005130D02*
X009284Y005130D01*
X009186Y005031D02*
X010076Y005031D01*
X009978Y004933D02*
X009087Y004933D01*
X008989Y004834D02*
X009879Y004834D01*
X009781Y004736D02*
X008890Y004736D01*
X008792Y004637D02*
X009682Y004637D01*
X009584Y004539D02*
X008693Y004539D01*
X008595Y004440D02*
X009485Y004440D01*
X009387Y004342D02*
X008496Y004342D01*
X008398Y004243D02*
X009288Y004243D01*
X009190Y004145D02*
X008299Y004145D01*
X008201Y004046D02*
X009091Y004046D01*
X008993Y003948D02*
X008102Y003948D01*
X008004Y003849D02*
X008894Y003849D01*
X008796Y003751D02*
X007905Y003751D01*
X007807Y003652D02*
X008697Y003652D01*
X008599Y003554D02*
X007708Y003554D01*
X007610Y003455D02*
X008050Y003455D01*
X008071Y003476D02*
X008020Y003425D01*
X008020Y003422D01*
X007671Y003056D01*
X007620Y003005D01*
X007620Y003002D01*
X007618Y003000D01*
X007620Y002928D01*
X007620Y002910D01*
X007480Y003050D01*
X007480Y003325D01*
X017725Y013570D01*
X018615Y013570D01*
X008575Y003530D01*
X008272Y003530D01*
X008270Y003532D01*
X008198Y003530D01*
X008125Y003530D01*
X008124Y003528D01*
X008121Y003528D01*
X008071Y003476D01*
X007958Y003357D02*
X007511Y003357D01*
X007480Y003258D02*
X007864Y003258D01*
X007770Y003160D02*
X007480Y003160D01*
X007480Y003061D02*
X007676Y003061D01*
X007619Y002963D02*
X007567Y002963D01*
X007800Y002930D02*
X008200Y003350D01*
X008650Y003350D01*
X018800Y013500D01*
X024300Y013500D01*
X024555Y013207D02*
X024752Y013207D01*
X024850Y013305D02*
X024653Y013305D01*
X024687Y013404D02*
X024913Y013404D01*
X024913Y013502D02*
X024687Y013502D01*
X024687Y013601D02*
X024913Y013601D01*
X024951Y013699D02*
X024649Y013699D01*
X024550Y013798D02*
X025050Y013798D01*
X024951Y013896D02*
X027367Y013896D01*
X027367Y013798D02*
X026550Y013798D01*
X026460Y013887D02*
X026140Y013887D01*
X025913Y013660D01*
X025913Y013340D01*
X026140Y013113D01*
X026460Y013113D01*
X026687Y013340D01*
X026687Y013660D01*
X026460Y013887D01*
X026649Y013699D02*
X027368Y013699D01*
X027368Y013601D02*
X026687Y013601D01*
X026687Y013502D02*
X027368Y013502D01*
X027368Y013404D02*
X026687Y013404D01*
X026653Y013305D02*
X027368Y013305D01*
X027369Y013207D02*
X026555Y013207D01*
X026460Y012887D02*
X026140Y012887D01*
X025913Y012660D01*
X025913Y012340D01*
X026140Y012113D01*
X026460Y012113D01*
X026687Y012340D01*
X026687Y012660D01*
X026460Y012887D01*
X026535Y012813D02*
X027369Y012813D01*
X027369Y012911D02*
X024966Y012911D01*
X025064Y013010D02*
X027369Y013010D01*
X027369Y013108D02*
X025163Y013108D01*
X025065Y012813D02*
X024535Y012813D01*
X024634Y012714D02*
X024966Y012714D01*
X024913Y012616D02*
X024687Y012616D01*
X024687Y012517D02*
X024913Y012517D01*
X024913Y012419D02*
X024687Y012419D01*
X024668Y012320D02*
X024865Y012320D01*
X024767Y012222D02*
X024570Y012222D01*
X024800Y012000D02*
X023900Y012000D01*
X023850Y011950D01*
X018900Y011950D01*
X010300Y003350D01*
X010300Y002650D01*
X010601Y002372D02*
X010620Y002372D01*
X010620Y002273D02*
X010503Y002273D01*
X010620Y002175D02*
X010030Y002175D01*
X009980Y002273D02*
X010097Y002273D01*
X009999Y002372D02*
X009980Y002372D01*
X009800Y002150D02*
X009800Y003550D01*
X018750Y012500D01*
X024300Y012500D01*
X024000Y012950D02*
X018750Y012950D01*
X009100Y003300D01*
X008600Y002850D01*
X008300Y002650D01*
X008601Y002372D02*
X008999Y002372D01*
X008900Y002470D02*
X008700Y002470D01*
X008710Y002569D02*
X008890Y002569D01*
X008890Y002667D02*
X008710Y002667D01*
X008775Y002766D02*
X008890Y002766D01*
X008885Y002864D02*
X008934Y002864D01*
X008994Y002963D02*
X009033Y002963D01*
X009104Y003061D02*
X009620Y003061D01*
X009620Y002963D02*
X009567Y002963D01*
X009620Y003160D02*
X009214Y003160D01*
X009313Y003258D02*
X009620Y003258D01*
X009620Y003357D02*
X009411Y003357D01*
X009510Y003455D02*
X009620Y003455D01*
X009608Y003554D02*
X009620Y003554D01*
X009601Y002372D02*
X009620Y002372D01*
X009620Y002273D02*
X009503Y002273D01*
X009620Y002175D02*
X008030Y002175D01*
X007980Y002273D02*
X008097Y002273D01*
X007999Y002372D02*
X007980Y002372D01*
X007800Y002150D02*
X007800Y002930D01*
X007300Y002650D02*
X007300Y003400D01*
X017650Y013750D01*
X023850Y013750D01*
X024100Y014000D01*
X024800Y014000D01*
X025300Y014500D01*
X025565Y014783D02*
X027366Y014783D01*
X027365Y014881D02*
X025467Y014881D01*
X025664Y014684D02*
X027366Y014684D01*
X027366Y014586D02*
X025687Y014586D01*
X025687Y014487D02*
X027366Y014487D01*
X027366Y014389D02*
X025687Y014389D01*
X025638Y014290D02*
X027367Y014290D01*
X027367Y014192D02*
X025540Y014192D01*
X025550Y013798D02*
X026050Y013798D01*
X025951Y013699D02*
X025649Y013699D01*
X025687Y013601D02*
X025913Y013601D01*
X025913Y013502D02*
X025687Y013502D01*
X025687Y013404D02*
X025913Y013404D01*
X025947Y013305D02*
X025653Y013305D01*
X025555Y013207D02*
X026045Y013207D01*
X026065Y012813D02*
X025535Y012813D01*
X025634Y012714D02*
X025966Y012714D01*
X025913Y012616D02*
X025687Y012616D01*
X025687Y012517D02*
X025913Y012517D01*
X025913Y012419D02*
X025687Y012419D01*
X025668Y012320D02*
X025932Y012320D01*
X026030Y012222D02*
X025570Y012222D01*
X025471Y012123D02*
X026129Y012123D01*
X026140Y011887D02*
X025913Y011660D01*
X025913Y011340D01*
X026140Y011113D01*
X026460Y011113D01*
X026687Y011340D01*
X026687Y011660D01*
X026460Y011887D01*
X026140Y011887D01*
X026080Y011828D02*
X025520Y011828D01*
X025619Y011729D02*
X025981Y011729D01*
X025913Y011631D02*
X025687Y011631D01*
X025687Y011532D02*
X025913Y011532D01*
X025913Y011434D02*
X025687Y011434D01*
X025683Y011335D02*
X025917Y011335D01*
X026015Y011237D02*
X025585Y011237D01*
X025486Y011138D02*
X026114Y011138D01*
X026023Y010907D02*
X025985Y010897D01*
X025950Y010878D01*
X025922Y010850D01*
X025903Y010815D01*
X025893Y010777D01*
X025893Y010529D01*
X026271Y010529D01*
X026271Y010907D01*
X026023Y010907D01*
X025918Y010843D02*
X025505Y010843D01*
X025604Y010744D02*
X025893Y010744D01*
X025893Y010646D02*
X025687Y010646D01*
X025687Y010547D02*
X025893Y010547D01*
X025893Y010471D02*
X025893Y010223D01*
X025903Y010185D01*
X025922Y010150D01*
X025950Y010122D01*
X025985Y010103D01*
X026023Y010093D01*
X026271Y010093D01*
X026271Y010471D01*
X026329Y010471D01*
X026329Y010529D01*
X026271Y010529D01*
X026271Y010471D01*
X025893Y010471D01*
X025893Y010449D02*
X025687Y010449D01*
X025687Y010350D02*
X025893Y010350D01*
X025893Y010252D02*
X025600Y010252D01*
X025501Y010153D02*
X025921Y010153D01*
X026271Y010153D02*
X026329Y010153D01*
X026329Y010093D02*
X026577Y010093D01*
X026615Y010103D01*
X026650Y010122D01*
X026678Y010150D01*
X026697Y010185D01*
X026707Y010223D01*
X026707Y010471D01*
X026329Y010471D01*
X026329Y010093D01*
X026329Y010252D02*
X026271Y010252D01*
X026271Y010350D02*
X026329Y010350D01*
X026329Y010449D02*
X026271Y010449D01*
X026271Y010547D02*
X026329Y010547D01*
X026329Y010529D02*
X026329Y010907D01*
X026577Y010907D01*
X026615Y010897D01*
X026650Y010878D01*
X026678Y010850D01*
X026697Y010815D01*
X026707Y010777D01*
X026707Y010529D01*
X026329Y010529D01*
X026329Y010646D02*
X026271Y010646D01*
X026271Y010744D02*
X026329Y010744D01*
X026329Y010843D02*
X026271Y010843D01*
X026486Y011138D02*
X027372Y011138D01*
X027373Y011040D02*
X025094Y011040D01*
X024996Y010941D02*
X027373Y010941D01*
X027373Y010843D02*
X026682Y010843D01*
X026707Y010744D02*
X027373Y010744D01*
X027373Y010646D02*
X026707Y010646D01*
X026707Y010547D02*
X027373Y010547D01*
X027374Y010449D02*
X026707Y010449D01*
X026707Y010350D02*
X027374Y010350D01*
X027374Y010252D02*
X026707Y010252D01*
X026679Y010153D02*
X027374Y010153D01*
X027374Y010055D02*
X025109Y010055D01*
X025011Y009956D02*
X027375Y009956D01*
X027375Y009858D02*
X025490Y009858D01*
X025589Y009759D02*
X027375Y009759D01*
X027375Y009661D02*
X025687Y009661D01*
X025687Y009562D02*
X027375Y009562D01*
X027376Y009464D02*
X025687Y009464D01*
X025687Y009365D02*
X027376Y009365D01*
X027376Y009267D02*
X025615Y009267D01*
X025516Y009168D02*
X027376Y009168D01*
X027376Y009070D02*
X025124Y009070D01*
X025026Y008971D02*
X027376Y008971D01*
X027377Y008873D02*
X025475Y008873D01*
X025574Y008774D02*
X027377Y008774D01*
X027377Y008676D02*
X025672Y008676D01*
X025687Y008577D02*
X027377Y008577D01*
X027377Y008479D02*
X025687Y008479D01*
X025687Y008380D02*
X027378Y008380D01*
X027378Y008282D02*
X025629Y008282D01*
X025531Y008183D02*
X027378Y008183D01*
X027378Y008085D02*
X025139Y008085D01*
X025041Y007986D02*
X027378Y007986D01*
X027378Y007888D02*
X024942Y007888D01*
X024844Y007789D02*
X025041Y007789D01*
X024943Y007691D02*
X024657Y007691D01*
X024687Y007592D02*
X024913Y007592D01*
X024913Y007494D02*
X024687Y007494D01*
X024687Y007395D02*
X024913Y007395D01*
X024892Y007297D02*
X024644Y007297D01*
X024546Y007198D02*
X024793Y007198D01*
X024695Y007100D02*
X024154Y007100D01*
X023900Y007100D02*
X024300Y007500D01*
X023900Y007100D02*
X018600Y007100D01*
X014800Y003350D01*
X014800Y002150D01*
X015300Y001650D01*
X015300Y001500D01*
X015518Y001288D02*
X016082Y001288D01*
X015984Y001387D02*
X015616Y001387D01*
X015710Y001485D02*
X015890Y001485D01*
X015890Y001584D02*
X015710Y001584D01*
X015710Y001682D02*
X015890Y001682D01*
X015890Y001781D02*
X015710Y001781D01*
X015651Y001879D02*
X015816Y001879D01*
X015718Y001978D02*
X015552Y001978D01*
X015670Y002076D02*
X015129Y002076D01*
X015030Y002175D02*
X015670Y002175D01*
X015670Y002273D02*
X015503Y002273D01*
X015601Y002372D02*
X015670Y002372D01*
X015850Y002100D02*
X015850Y003400D01*
X018550Y006000D01*
X023650Y006000D01*
X024150Y006500D01*
X024300Y006500D01*
X024561Y006213D02*
X024758Y006213D01*
X024659Y006312D02*
X024857Y006312D01*
X024913Y006410D02*
X024687Y006410D01*
X024687Y006509D02*
X024913Y006509D01*
X024913Y006607D02*
X024687Y006607D01*
X024642Y006706D02*
X024958Y006706D01*
X024909Y006804D02*
X025056Y006804D01*
X025007Y006903D02*
X027380Y006903D01*
X027380Y007001D02*
X025106Y007001D01*
X025204Y007100D02*
X027380Y007100D01*
X027380Y007198D02*
X025546Y007198D01*
X025644Y007297D02*
X027380Y007297D01*
X027379Y007395D02*
X025687Y007395D01*
X025687Y007494D02*
X027379Y007494D01*
X027379Y007592D02*
X025687Y007592D01*
X025657Y007691D02*
X027379Y007691D01*
X027379Y007789D02*
X025559Y007789D01*
X025300Y007500D02*
X025300Y007450D01*
X024750Y006900D01*
X018950Y006900D01*
X015300Y003350D01*
X015300Y002650D01*
X014999Y002372D02*
X014980Y002372D01*
X014980Y002273D02*
X015097Y002273D01*
X014816Y001879D02*
X014651Y001879D01*
X014710Y001781D02*
X014890Y001781D01*
X014890Y001682D02*
X014710Y001682D01*
X014710Y001584D02*
X014890Y001584D01*
X014890Y001485D02*
X014710Y001485D01*
X014616Y001387D02*
X014984Y001387D01*
X015082Y001288D02*
X014518Y001288D01*
X014300Y001650D02*
X013800Y002150D01*
X013800Y003350D01*
X018650Y008100D01*
X023900Y008100D01*
X024300Y008500D01*
X024531Y008183D02*
X024728Y008183D01*
X024630Y008085D02*
X024139Y008085D01*
X024629Y008282D02*
X024827Y008282D01*
X024913Y008380D02*
X024687Y008380D01*
X024687Y008479D02*
X024913Y008479D01*
X024913Y008577D02*
X024687Y008577D01*
X024672Y008676D02*
X024928Y008676D01*
X025026Y008774D02*
X024829Y008774D01*
X024927Y008873D02*
X025125Y008873D01*
X024700Y008900D02*
X019000Y008900D01*
X013300Y003350D01*
X013300Y002650D01*
X013601Y002372D02*
X013620Y002372D01*
X013620Y002273D02*
X013503Y002273D01*
X013620Y002175D02*
X013030Y002175D01*
X012980Y002273D02*
X013097Y002273D01*
X012999Y002372D02*
X012980Y002372D01*
X012800Y002150D02*
X012800Y003350D01*
X018700Y009100D01*
X023900Y009100D01*
X024300Y009500D01*
X024011Y009759D02*
X023707Y009759D01*
X023707Y009777D02*
X023697Y009815D01*
X023678Y009850D01*
X023657Y009870D01*
X024122Y009870D01*
X023913Y009660D01*
X023913Y009661D02*
X023707Y009661D01*
X023707Y009562D02*
X023913Y009562D01*
X023913Y009464D02*
X023707Y009464D01*
X023707Y009471D02*
X023329Y009471D01*
X023329Y009529D01*
X023707Y009529D01*
X023707Y009777D01*
X023670Y009858D02*
X024110Y009858D01*
X023913Y009660D02*
X023913Y009367D01*
X023825Y009280D01*
X023707Y009280D01*
X023707Y009471D01*
X023707Y009365D02*
X023910Y009365D01*
X024516Y009168D02*
X024713Y009168D01*
X024615Y009267D02*
X024812Y009267D01*
X024910Y009365D02*
X024687Y009365D01*
X024687Y009464D02*
X024913Y009464D01*
X024913Y009562D02*
X024687Y009562D01*
X024687Y009661D02*
X024913Y009661D01*
X025011Y009759D02*
X024589Y009759D01*
X024490Y009858D02*
X025110Y009858D01*
X024850Y010050D02*
X025300Y010500D01*
X024996Y010744D02*
X024604Y010744D01*
X024687Y010646D02*
X024913Y010646D01*
X024913Y010547D02*
X024687Y010547D01*
X024687Y010449D02*
X024913Y010449D01*
X024895Y010350D02*
X024687Y010350D01*
X024600Y010252D02*
X024797Y010252D01*
X024850Y010050D02*
X019100Y010050D01*
X012300Y003400D01*
X012300Y002650D01*
X012601Y002372D02*
X012620Y002372D01*
X012620Y002273D02*
X012503Y002273D01*
X012620Y002175D02*
X012030Y002175D01*
X011980Y002273D02*
X012097Y002273D01*
X011999Y002372D02*
X011980Y002372D01*
X011800Y002150D02*
X011800Y003350D01*
X019100Y010500D01*
X024300Y010500D01*
X024800Y011000D02*
X019100Y011000D01*
X011300Y003350D01*
X011300Y002650D01*
X011601Y002372D02*
X011620Y002372D01*
X011620Y002273D02*
X011503Y002273D01*
X011620Y002175D02*
X011030Y002175D01*
X010980Y002273D02*
X011097Y002273D01*
X010999Y002372D02*
X010980Y002372D01*
X010800Y002150D02*
X010800Y003350D01*
X019150Y011500D01*
X024300Y011500D01*
X024585Y011237D02*
X024782Y011237D01*
X024880Y011335D02*
X024683Y011335D01*
X024687Y011434D02*
X024913Y011434D01*
X024913Y011532D02*
X024687Y011532D01*
X024687Y011631D02*
X024913Y011631D01*
X024981Y011729D02*
X024619Y011729D01*
X024882Y011828D02*
X025080Y011828D01*
X024981Y011926D02*
X027371Y011926D01*
X027371Y011828D02*
X026520Y011828D01*
X026619Y011729D02*
X027371Y011729D01*
X027371Y011631D02*
X026687Y011631D01*
X026687Y011532D02*
X027372Y011532D01*
X027372Y011434D02*
X026687Y011434D01*
X026683Y011335D02*
X027372Y011335D01*
X027372Y011237D02*
X026585Y011237D01*
X026471Y012123D02*
X027371Y012123D01*
X027371Y012025D02*
X025079Y012025D01*
X024800Y012000D02*
X025300Y012500D01*
X024800Y013000D02*
X024050Y013000D01*
X024000Y012950D01*
X024800Y013000D02*
X025300Y013500D01*
X025049Y013995D02*
X027367Y013995D01*
X027367Y014093D02*
X025148Y014093D01*
X024835Y014290D02*
X024638Y014290D01*
X024687Y014389D02*
X024913Y014389D01*
X024913Y014487D02*
X024687Y014487D01*
X024687Y014586D02*
X024913Y014586D01*
X024936Y014684D02*
X024664Y014684D01*
X024837Y014783D02*
X025035Y014783D01*
X025133Y014881D02*
X024936Y014881D01*
X025034Y014980D02*
X026711Y014980D01*
X026734Y014970D02*
X026866Y014970D01*
X026987Y015020D01*
X027080Y015113D01*
X027130Y015234D01*
X027130Y015366D01*
X027080Y015487D01*
X026987Y015580D01*
X026980Y015583D01*
X026980Y015752D01*
X027149Y015752D01*
X027225Y015828D01*
X027225Y016424D01*
X027157Y016492D01*
X027187Y016510D01*
X027215Y016538D01*
X027235Y016572D01*
X027245Y016610D01*
X027245Y016824D01*
X026850Y016824D01*
X026850Y016924D01*
X027245Y016924D01*
X027245Y017138D01*
X027235Y017176D01*
X027215Y017210D01*
X027187Y017238D01*
X027153Y017258D01*
X027115Y017268D01*
X026850Y017268D01*
X026850Y016924D01*
X026750Y016924D01*
X026750Y016824D01*
X026355Y016824D01*
X026355Y016610D01*
X026365Y016572D01*
X026385Y016538D01*
X026413Y016510D01*
X026443Y016492D01*
X026375Y016424D01*
X026375Y015828D01*
X026451Y015752D01*
X026620Y015752D01*
X026620Y015583D01*
X026613Y015580D01*
X026520Y015487D01*
X026470Y015366D01*
X026470Y015234D01*
X026520Y015113D01*
X026613Y015020D01*
X026734Y014970D01*
X026889Y014980D02*
X027365Y014980D01*
X027365Y015078D02*
X027045Y015078D01*
X027106Y015177D02*
X027365Y015177D01*
X027365Y015275D02*
X027130Y015275D01*
X027127Y015374D02*
X027365Y015374D01*
X027364Y015472D02*
X027086Y015472D01*
X026996Y015571D02*
X027364Y015571D01*
X027364Y015669D02*
X026980Y015669D01*
X027165Y015768D02*
X027364Y015768D01*
X027364Y015866D02*
X027225Y015866D01*
X027225Y015965D02*
X027363Y015965D01*
X027363Y016063D02*
X027225Y016063D01*
X027225Y016162D02*
X027363Y016162D01*
X027363Y016260D02*
X027225Y016260D01*
X027225Y016359D02*
X027363Y016359D01*
X027363Y016457D02*
X027192Y016457D01*
X027226Y016556D02*
X027362Y016556D01*
X027362Y016654D02*
X027245Y016654D01*
X027245Y016753D02*
X027362Y016753D01*
X027362Y016851D02*
X026850Y016851D01*
X026850Y016950D02*
X026750Y016950D01*
X026750Y016924D02*
X026750Y017268D01*
X026485Y017268D01*
X026447Y017258D01*
X026413Y017238D01*
X026385Y017210D01*
X026365Y017176D01*
X026355Y017138D01*
X026355Y016924D01*
X026750Y016924D01*
X026750Y016851D02*
X025497Y016851D01*
X025595Y016753D02*
X026355Y016753D01*
X026355Y016654D02*
X025687Y016654D01*
X025687Y016556D02*
X026374Y016556D01*
X026408Y016457D02*
X025687Y016457D01*
X025687Y016359D02*
X026375Y016359D01*
X026375Y016260D02*
X025608Y016260D01*
X025510Y016162D02*
X026375Y016162D01*
X026375Y016063D02*
X025118Y016063D01*
X025019Y015965D02*
X026375Y015965D01*
X026375Y015866D02*
X025482Y015866D01*
X025580Y015768D02*
X026435Y015768D01*
X026620Y015669D02*
X025679Y015669D01*
X025687Y015571D02*
X026604Y015571D01*
X026514Y015472D02*
X025687Y015472D01*
X025687Y015374D02*
X026473Y015374D01*
X026470Y015275D02*
X025623Y015275D01*
X025525Y015177D02*
X026494Y015177D01*
X026555Y015078D02*
X025133Y015078D01*
X024913Y015374D02*
X024687Y015374D01*
X024687Y015472D02*
X024913Y015472D01*
X024913Y015571D02*
X024687Y015571D01*
X024679Y015669D02*
X024921Y015669D01*
X024822Y015768D02*
X025020Y015768D01*
X025118Y015866D02*
X024921Y015866D01*
X024700Y015900D02*
X018100Y015900D01*
X005300Y003100D01*
X005300Y002650D01*
X004999Y002372D02*
X004980Y002372D01*
X004980Y002273D02*
X005097Y002273D01*
X005030Y002175D02*
X005620Y002175D01*
X005620Y002273D02*
X005503Y002273D01*
X005601Y002372D02*
X005620Y002372D01*
X005800Y002150D02*
X005800Y003200D01*
X017700Y015100D01*
X023900Y015100D01*
X024300Y015500D01*
X024525Y015177D02*
X024722Y015177D01*
X024820Y015275D02*
X024623Y015275D01*
X024700Y014900D02*
X017900Y014900D01*
X006300Y003300D01*
X006300Y002650D01*
X006601Y002372D02*
X006620Y002372D01*
X006620Y002273D02*
X006503Y002273D01*
X006620Y002175D02*
X006030Y002175D01*
X005980Y002273D02*
X006097Y002273D01*
X005999Y002372D02*
X005980Y002372D01*
X005800Y002150D02*
X006300Y001650D01*
X005890Y001682D02*
X005710Y001682D01*
X005710Y001584D02*
X005890Y001584D01*
X005890Y001485D02*
X005710Y001485D01*
X005616Y001387D02*
X005984Y001387D01*
X006082Y001288D02*
X005518Y001288D01*
X005300Y001650D02*
X004800Y002150D01*
X004800Y003050D01*
X017850Y016100D01*
X023900Y016100D01*
X024300Y016500D01*
X024510Y016162D02*
X024707Y016162D01*
X024805Y016260D02*
X024608Y016260D01*
X024687Y016359D02*
X024904Y016359D01*
X024913Y016457D02*
X024687Y016457D01*
X024687Y016556D02*
X024913Y016556D01*
X024913Y016654D02*
X024687Y016654D01*
X024807Y016753D02*
X025005Y016753D01*
X025103Y016851D02*
X024906Y016851D01*
X025004Y016950D02*
X026355Y016950D01*
X026355Y017048D02*
X025103Y017048D01*
X024889Y017344D02*
X024687Y017344D01*
X024687Y017442D02*
X024913Y017442D01*
X024913Y017541D02*
X024687Y017541D01*
X024687Y017639D02*
X024913Y017639D01*
X024990Y017738D02*
X024610Y017738D01*
X024512Y017836D02*
X025088Y017836D01*
X025300Y017500D02*
X024700Y016900D01*
X018300Y016900D01*
X004300Y002900D01*
X004300Y002650D01*
X004601Y002372D02*
X004620Y002372D01*
X004620Y002273D02*
X004503Y002273D01*
X004620Y002175D02*
X004030Y002175D01*
X003980Y002273D02*
X004097Y002273D01*
X003999Y002372D02*
X003980Y002372D01*
X003800Y002150D02*
X003800Y002900D01*
X004300Y003400D01*
X004450Y003400D01*
X018150Y017100D01*
X023950Y017100D01*
X023950Y017150D01*
X024300Y017500D01*
X024593Y017245D02*
X024790Y017245D01*
X024692Y017147D02*
X024495Y017147D01*
X023889Y017344D02*
X023707Y017344D01*
X023707Y017442D02*
X023913Y017442D01*
X023913Y017541D02*
X023707Y017541D01*
X023707Y017529D02*
X023707Y017777D01*
X023697Y017815D01*
X023678Y017850D01*
X023650Y017878D01*
X023615Y017897D01*
X023577Y017907D01*
X023329Y017907D01*
X023329Y017529D01*
X023707Y017529D01*
X023707Y017639D02*
X023913Y017639D01*
X023990Y017738D02*
X023707Y017738D01*
X023685Y017836D02*
X024088Y017836D01*
X023329Y017836D02*
X023271Y017836D01*
X023271Y017738D02*
X023329Y017738D01*
X023329Y017639D02*
X023271Y017639D01*
X023271Y017541D02*
X023329Y017541D01*
X022893Y017541D02*
X022395Y017541D01*
X022494Y017639D02*
X022893Y017639D01*
X022893Y017738D02*
X022592Y017738D01*
X022691Y017836D02*
X022915Y017836D01*
X022789Y017935D02*
X027360Y017935D01*
X027360Y018033D02*
X022888Y018033D01*
X022986Y018132D02*
X027359Y018132D01*
X027359Y018230D02*
X023085Y018230D01*
X022871Y018526D02*
X022705Y018526D01*
X022710Y018624D02*
X022890Y018624D01*
X022890Y018723D02*
X022710Y018723D01*
X022710Y018821D02*
X022890Y018821D01*
X022940Y018920D02*
X022660Y018920D01*
X022562Y019018D02*
X023038Y019018D01*
X023107Y019314D02*
X022493Y019314D01*
X022070Y019215D02*
X027357Y019215D01*
X027358Y019117D02*
X022030Y019117D01*
X022030Y019018D02*
X022038Y019018D01*
X022030Y018329D02*
X022092Y018329D01*
X022030Y018230D02*
X022575Y018230D01*
X022508Y018329D02*
X022674Y018329D01*
X022607Y018427D02*
X022772Y018427D01*
X022477Y018132D02*
X021936Y018132D01*
X021838Y018033D02*
X022378Y018033D01*
X022280Y017935D02*
X021739Y017935D01*
X021641Y017836D02*
X022181Y017836D01*
X022083Y017738D02*
X021542Y017738D01*
X022297Y017442D02*
X022893Y017442D01*
X022893Y017344D02*
X018198Y017344D01*
X018375Y016720D02*
X022972Y016720D01*
X022913Y016660D01*
X022913Y016340D01*
X022972Y016280D01*
X017935Y016280D01*
X018375Y016720D01*
X018309Y016654D02*
X022913Y016654D01*
X022913Y016556D02*
X018210Y016556D01*
X018112Y016457D02*
X022913Y016457D01*
X022913Y016359D02*
X018013Y016359D01*
X018175Y015720D02*
X022972Y015720D01*
X022913Y015660D01*
X022913Y015340D01*
X022972Y015280D01*
X017735Y015280D01*
X018175Y015720D01*
X018124Y015669D02*
X022921Y015669D01*
X022913Y015571D02*
X018025Y015571D01*
X017927Y015472D02*
X022913Y015472D01*
X022913Y015374D02*
X017828Y015374D01*
X017600Y014000D02*
X023800Y014000D01*
X024300Y014500D01*
X024540Y014192D02*
X024737Y014192D01*
X024700Y014900D02*
X025300Y015500D01*
X024700Y015900D02*
X025300Y016500D01*
X025495Y017147D02*
X026357Y017147D01*
X026425Y017245D02*
X025593Y017245D01*
X025687Y017344D02*
X027361Y017344D01*
X027361Y017442D02*
X025687Y017442D01*
X025687Y017541D02*
X027361Y017541D01*
X027360Y017639D02*
X025687Y017639D01*
X025610Y017738D02*
X027360Y017738D01*
X027360Y017836D02*
X025512Y017836D01*
X026750Y017245D02*
X026850Y017245D01*
X026850Y017147D02*
X026750Y017147D01*
X026750Y017048D02*
X026850Y017048D01*
X027175Y017245D02*
X027361Y017245D01*
X027361Y017147D02*
X027243Y017147D01*
X027245Y017048D02*
X027361Y017048D01*
X027362Y016950D02*
X027245Y016950D01*
X026800Y016126D02*
X026800Y015300D01*
X026634Y012714D02*
X027369Y012714D01*
X027370Y012616D02*
X026687Y012616D01*
X026687Y012517D02*
X027370Y012517D01*
X027370Y012419D02*
X026687Y012419D01*
X026668Y012320D02*
X027370Y012320D01*
X027370Y012222D02*
X026570Y012222D01*
X025300Y011500D02*
X024800Y011000D01*
X024897Y010843D02*
X025095Y010843D01*
X025300Y009500D02*
X024700Y008900D01*
X025300Y008500D02*
X024700Y007900D01*
X018900Y007900D01*
X014300Y003350D01*
X014300Y002650D01*
X014601Y002372D02*
X014620Y002372D01*
X014620Y002273D02*
X014503Y002273D01*
X014620Y002175D02*
X014030Y002175D01*
X013980Y002273D02*
X014097Y002273D01*
X013999Y002372D02*
X013980Y002372D01*
X014129Y002076D02*
X014620Y002076D01*
X014552Y001978D02*
X014718Y001978D01*
X014082Y001288D02*
X013518Y001288D01*
X013616Y001387D02*
X013984Y001387D01*
X013890Y001485D02*
X013710Y001485D01*
X013710Y001584D02*
X013890Y001584D01*
X013890Y001682D02*
X013710Y001682D01*
X013710Y001781D02*
X013890Y001781D01*
X013816Y001879D02*
X013651Y001879D01*
X013718Y001978D02*
X013552Y001978D01*
X013620Y002076D02*
X013129Y002076D01*
X012800Y002150D02*
X013300Y001650D01*
X012890Y001682D02*
X012710Y001682D01*
X012710Y001584D02*
X012890Y001584D01*
X012890Y001485D02*
X012710Y001485D01*
X012616Y001387D02*
X012984Y001387D01*
X013082Y001288D02*
X012518Y001288D01*
X012300Y001650D02*
X011800Y002150D01*
X011718Y001978D02*
X011552Y001978D01*
X011620Y002076D02*
X011129Y002076D01*
X010800Y002150D02*
X011300Y001650D01*
X011710Y001682D02*
X011890Y001682D01*
X011890Y001584D02*
X011710Y001584D01*
X011710Y001485D02*
X011890Y001485D01*
X011984Y001387D02*
X011616Y001387D01*
X011518Y001288D02*
X012082Y001288D01*
X011890Y001781D02*
X011710Y001781D01*
X011651Y001879D02*
X011816Y001879D01*
X012129Y002076D02*
X012620Y002076D01*
X012552Y001978D02*
X012718Y001978D01*
X012651Y001879D02*
X012816Y001879D01*
X012890Y001781D02*
X012710Y001781D01*
X012620Y002910D02*
X012480Y003050D01*
X012480Y003324D01*
X019173Y009870D01*
X022943Y009870D01*
X022922Y009850D01*
X022903Y009815D01*
X022893Y009777D01*
X022893Y009529D01*
X023271Y009529D01*
X023271Y009471D01*
X022893Y009471D01*
X022893Y009280D01*
X018701Y009280D01*
X018628Y009281D01*
X018627Y009280D01*
X018625Y009280D01*
X018574Y009228D01*
X012727Y003530D01*
X012725Y003530D01*
X012674Y003478D01*
X012621Y003427D01*
X012621Y003426D01*
X012620Y003425D01*
X012620Y003351D01*
X012619Y003278D01*
X012620Y003277D01*
X012620Y002910D01*
X012620Y002963D02*
X012567Y002963D01*
X012620Y003061D02*
X012480Y003061D01*
X012480Y003160D02*
X012620Y003160D01*
X012620Y003258D02*
X012480Y003258D01*
X012513Y003357D02*
X012620Y003357D01*
X012614Y003455D02*
X012650Y003455D01*
X012714Y003554D02*
X012751Y003554D01*
X012815Y003652D02*
X012852Y003652D01*
X012916Y003751D02*
X012953Y003751D01*
X013017Y003849D02*
X013054Y003849D01*
X013117Y003948D02*
X013155Y003948D01*
X013218Y004046D02*
X013256Y004046D01*
X013319Y004145D02*
X013357Y004145D01*
X013419Y004243D02*
X013458Y004243D01*
X013520Y004342D02*
X013559Y004342D01*
X013621Y004440D02*
X013661Y004440D01*
X013722Y004539D02*
X013762Y004539D01*
X013822Y004637D02*
X013863Y004637D01*
X013923Y004736D02*
X013964Y004736D01*
X014024Y004834D02*
X014065Y004834D01*
X014125Y004933D02*
X014166Y004933D01*
X014225Y005031D02*
X014267Y005031D01*
X014326Y005130D02*
X014368Y005130D01*
X014427Y005228D02*
X014469Y005228D01*
X014527Y005327D02*
X014570Y005327D01*
X014628Y005425D02*
X014671Y005425D01*
X014729Y005524D02*
X014772Y005524D01*
X014830Y005622D02*
X014873Y005622D01*
X014930Y005721D02*
X014974Y005721D01*
X015031Y005819D02*
X015076Y005819D01*
X015132Y005918D02*
X015177Y005918D01*
X015232Y006016D02*
X015278Y006016D01*
X015333Y006115D02*
X015379Y006115D01*
X015434Y006213D02*
X015480Y006213D01*
X015535Y006312D02*
X015581Y006312D01*
X015635Y006410D02*
X015682Y006410D01*
X015736Y006509D02*
X015783Y006509D01*
X015837Y006607D02*
X015884Y006607D01*
X015938Y006706D02*
X015985Y006706D01*
X016038Y006804D02*
X016086Y006804D01*
X016139Y006903D02*
X016187Y006903D01*
X016240Y007001D02*
X016288Y007001D01*
X016340Y007100D02*
X016389Y007100D01*
X016441Y007198D02*
X016491Y007198D01*
X016542Y007297D02*
X016592Y007297D01*
X016643Y007395D02*
X016693Y007395D01*
X016743Y007494D02*
X016794Y007494D01*
X016844Y007592D02*
X016895Y007592D01*
X016945Y007691D02*
X016996Y007691D01*
X017045Y007789D02*
X017097Y007789D01*
X017146Y007888D02*
X017198Y007888D01*
X017247Y007986D02*
X017299Y007986D01*
X017348Y008085D02*
X017400Y008085D01*
X017448Y008183D02*
X017501Y008183D01*
X017549Y008282D02*
X017602Y008282D01*
X017650Y008380D02*
X017703Y008380D01*
X017751Y008479D02*
X017804Y008479D01*
X017851Y008577D02*
X017905Y008577D01*
X017952Y008676D02*
X018007Y008676D01*
X018053Y008774D02*
X018108Y008774D01*
X018153Y008873D02*
X018209Y008873D01*
X018254Y008971D02*
X018310Y008971D01*
X018355Y009070D02*
X018411Y009070D01*
X018456Y009168D02*
X018512Y009168D01*
X018556Y009267D02*
X018612Y009267D01*
X018657Y009365D02*
X022893Y009365D01*
X022893Y009464D02*
X018758Y009464D01*
X018858Y009562D02*
X022893Y009562D01*
X022893Y009661D02*
X018959Y009661D01*
X019060Y009759D02*
X022893Y009759D01*
X022930Y009858D02*
X019161Y009858D01*
X019073Y008720D02*
X022972Y008720D01*
X022913Y008660D01*
X022913Y008340D01*
X022972Y008280D01*
X018651Y008280D01*
X018622Y008280D01*
X019073Y008720D01*
X019027Y008676D02*
X022928Y008676D01*
X022913Y008577D02*
X018926Y008577D01*
X018825Y008479D02*
X022913Y008479D01*
X022913Y008380D02*
X018724Y008380D01*
X018623Y008282D02*
X022971Y008282D01*
X022972Y007720D02*
X022913Y007660D01*
X022913Y007340D01*
X022972Y007280D01*
X018601Y007280D01*
X018530Y007280D01*
X018974Y007720D01*
X022972Y007720D01*
X022943Y007691D02*
X018944Y007691D01*
X018845Y007592D02*
X022913Y007592D01*
X022913Y007494D02*
X018745Y007494D01*
X018645Y007395D02*
X022913Y007395D01*
X022956Y007297D02*
X018546Y007297D01*
X018700Y005700D02*
X023750Y005700D01*
X024050Y006000D01*
X024800Y006000D01*
X025300Y006500D01*
X025687Y006509D02*
X027381Y006509D01*
X027381Y006607D02*
X025687Y006607D01*
X025642Y006706D02*
X027381Y006706D01*
X027380Y006804D02*
X025544Y006804D01*
X025687Y006410D02*
X027381Y006410D01*
X027381Y006312D02*
X025659Y006312D01*
X025561Y006213D02*
X027382Y006213D01*
X027382Y006115D02*
X025462Y006115D01*
X025529Y005819D02*
X026071Y005819D01*
X026140Y005887D02*
X025913Y005660D01*
X025913Y005340D01*
X026140Y005113D01*
X026460Y005113D01*
X026687Y005340D01*
X026687Y005660D01*
X026460Y005887D01*
X026140Y005887D01*
X025973Y005721D02*
X025627Y005721D01*
X025687Y005622D02*
X025913Y005622D01*
X025913Y005524D02*
X025687Y005524D01*
X025687Y005425D02*
X025913Y005425D01*
X025926Y005327D02*
X025674Y005327D01*
X025576Y005228D02*
X026024Y005228D01*
X026123Y005130D02*
X025477Y005130D01*
X025514Y004834D02*
X026086Y004834D01*
X026140Y004887D02*
X025913Y004660D01*
X025913Y004340D01*
X026140Y004113D01*
X026460Y004113D01*
X026687Y004340D01*
X026687Y004660D01*
X026460Y004887D01*
X026140Y004887D01*
X025988Y004736D02*
X025612Y004736D01*
X025687Y004637D02*
X025913Y004637D01*
X025913Y004539D02*
X025687Y004539D01*
X025687Y004440D02*
X025913Y004440D01*
X025913Y004342D02*
X025687Y004342D01*
X025591Y004243D02*
X026009Y004243D01*
X026108Y004145D02*
X025492Y004145D01*
X025499Y003849D02*
X026101Y003849D01*
X026140Y003887D02*
X025913Y003660D01*
X025913Y003340D01*
X026140Y003113D01*
X026460Y003113D01*
X026687Y003340D01*
X026687Y003660D01*
X026460Y003887D01*
X026140Y003887D01*
X026003Y003751D02*
X025597Y003751D01*
X025687Y003652D02*
X025913Y003652D01*
X025913Y003554D02*
X025687Y003554D01*
X025687Y003455D02*
X025913Y003455D01*
X025913Y003357D02*
X025687Y003357D01*
X025606Y003258D02*
X025994Y003258D01*
X026093Y003160D02*
X025507Y003160D01*
X025484Y002864D02*
X025937Y002864D01*
X025950Y002878D02*
X025922Y002850D01*
X025903Y002815D01*
X025893Y002777D01*
X025893Y002529D01*
X026271Y002529D01*
X026271Y002907D01*
X026023Y002907D01*
X025985Y002897D01*
X025950Y002878D01*
X025893Y002766D02*
X025582Y002766D01*
X025681Y002667D02*
X025893Y002667D01*
X025893Y002569D02*
X025687Y002569D01*
X025687Y002470D02*
X025893Y002470D01*
X025893Y002471D02*
X025893Y002223D01*
X025903Y002185D01*
X025922Y002150D01*
X025950Y002122D01*
X025985Y002103D01*
X026023Y002093D01*
X026271Y002093D01*
X026271Y002471D01*
X026329Y002471D01*
X026329Y002529D01*
X026271Y002529D01*
X026271Y002471D01*
X025893Y002471D01*
X025893Y002372D02*
X025687Y002372D01*
X025621Y002273D02*
X025893Y002273D01*
X025909Y002175D02*
X025522Y002175D01*
X025300Y002500D02*
X024800Y003000D01*
X024050Y003000D01*
X023700Y003350D01*
X022000Y003350D01*
X021300Y002650D01*
X021601Y002372D02*
X021999Y002372D01*
X021900Y002470D02*
X021700Y002470D01*
X021710Y002569D02*
X021890Y002569D01*
X021890Y002480D02*
X021890Y002820D01*
X022130Y003060D01*
X022470Y003060D01*
X022710Y002820D01*
X022710Y002480D01*
X022470Y002240D01*
X022130Y002240D01*
X021890Y002480D01*
X021890Y002667D02*
X021710Y002667D01*
X021710Y002766D02*
X021890Y002766D01*
X021934Y002864D02*
X021769Y002864D01*
X021867Y002963D02*
X022033Y002963D01*
X021966Y003061D02*
X023734Y003061D01*
X023636Y003160D02*
X022064Y003160D01*
X022567Y002963D02*
X023033Y002963D01*
X023068Y002998D02*
X022952Y002882D01*
X022890Y002732D01*
X022890Y002568D01*
X022952Y002418D01*
X023068Y002302D01*
X023218Y002240D01*
X023382Y002240D01*
X023532Y002302D01*
X023648Y002418D01*
X023710Y002568D01*
X023710Y002732D01*
X023648Y002882D01*
X023532Y002998D01*
X023382Y003060D01*
X023218Y003060D01*
X023068Y002998D01*
X022945Y002864D02*
X022666Y002864D01*
X022710Y002766D02*
X022904Y002766D01*
X022890Y002667D02*
X022710Y002667D01*
X022710Y002569D02*
X022890Y002569D01*
X022931Y002470D02*
X022700Y002470D01*
X022601Y002372D02*
X022999Y002372D01*
X023139Y002273D02*
X022503Y002273D01*
X022470Y002060D02*
X022130Y002060D01*
X021890Y001820D01*
X021890Y001480D01*
X022130Y001240D01*
X022470Y001240D01*
X022710Y001480D01*
X022710Y001820D01*
X022470Y002060D01*
X022552Y001978D02*
X023048Y001978D01*
X023130Y002060D02*
X022890Y001820D01*
X022890Y001480D01*
X023130Y001240D01*
X023470Y001240D01*
X023710Y001480D01*
X023710Y001820D01*
X023470Y002060D01*
X023130Y002060D01*
X022949Y001879D02*
X022651Y001879D01*
X022710Y001781D02*
X022890Y001781D01*
X022890Y001682D02*
X022710Y001682D01*
X022710Y001584D02*
X022890Y001584D01*
X022890Y001485D02*
X022710Y001485D01*
X022616Y001387D02*
X022984Y001387D01*
X023082Y001288D02*
X022518Y001288D01*
X022082Y001288D02*
X021767Y001288D01*
X021865Y001190D02*
X023985Y001190D01*
X024083Y001288D02*
X023518Y001288D01*
X023616Y001387D02*
X024120Y001387D01*
X024120Y001485D02*
X023710Y001485D01*
X023710Y001584D02*
X024120Y001584D01*
X024120Y001682D02*
X023710Y001682D01*
X023710Y001781D02*
X024120Y001781D01*
X024120Y001879D02*
X023651Y001879D01*
X023552Y001978D02*
X024120Y001978D01*
X024120Y002076D02*
X020781Y002076D01*
X020879Y002175D02*
X024078Y002175D01*
X023979Y002273D02*
X023461Y002273D01*
X023601Y002372D02*
X023913Y002372D01*
X023913Y002470D02*
X023669Y002470D01*
X023710Y002569D02*
X023913Y002569D01*
X023919Y002667D02*
X023710Y002667D01*
X023696Y002766D02*
X024018Y002766D01*
X023931Y002864D02*
X023655Y002864D01*
X023567Y002963D02*
X023833Y002963D01*
X024300Y002500D02*
X024300Y001250D01*
X024050Y001000D01*
X021800Y001000D01*
X021300Y001500D01*
X021300Y001650D01*
X021710Y001682D02*
X021890Y001682D01*
X021890Y001584D02*
X021710Y001584D01*
X021710Y001485D02*
X021890Y001485D01*
X021984Y001387D02*
X021668Y001387D01*
X021454Y001091D02*
X001250Y001091D01*
X001250Y000993D02*
X021553Y000993D01*
X021356Y001190D02*
X001250Y001190D01*
X001250Y001288D02*
X004082Y001288D01*
X003984Y001387D02*
X001250Y001387D01*
X001250Y001485D02*
X003890Y001485D01*
X003890Y001584D02*
X001250Y001584D01*
X001250Y001682D02*
X003890Y001682D01*
X003890Y001781D02*
X001250Y001781D01*
X001250Y001879D02*
X003816Y001879D01*
X003718Y001978D02*
X001250Y001978D01*
X001250Y002076D02*
X003620Y002076D01*
X003620Y002175D02*
X003522Y002175D01*
X003800Y002150D02*
X004300Y001650D01*
X004710Y001682D02*
X004890Y001682D01*
X004890Y001584D02*
X004710Y001584D01*
X004710Y001485D02*
X004890Y001485D01*
X004984Y001387D02*
X004616Y001387D01*
X004518Y001288D02*
X005082Y001288D01*
X004890Y001781D02*
X004710Y001781D01*
X004651Y001879D02*
X004816Y001879D01*
X004718Y001978D02*
X004552Y001978D01*
X004620Y002076D02*
X004129Y002076D01*
X003078Y002175D02*
X001250Y002175D01*
X001250Y002273D02*
X002979Y002273D01*
X002913Y002372D02*
X001250Y002372D01*
X001250Y002470D02*
X002913Y002470D01*
X002913Y002569D02*
X001250Y002569D01*
X001250Y002667D02*
X002919Y002667D01*
X001900Y003874D02*
X001900Y004450D01*
X005129Y002076D02*
X005620Y002076D01*
X005552Y001978D02*
X005718Y001978D01*
X005651Y001879D02*
X005816Y001879D01*
X005890Y001781D02*
X005710Y001781D01*
X006129Y002076D02*
X006620Y002076D01*
X006552Y001978D02*
X006718Y001978D01*
X006651Y001879D02*
X006816Y001879D01*
X006890Y001781D02*
X006710Y001781D01*
X006710Y001682D02*
X006890Y001682D01*
X006890Y001584D02*
X006710Y001584D01*
X006710Y001485D02*
X006890Y001485D01*
X006984Y001387D02*
X006616Y001387D01*
X006518Y001288D02*
X007082Y001288D01*
X007300Y001650D02*
X006800Y002150D01*
X006800Y003200D01*
X017600Y014000D01*
X017657Y013502D02*
X018547Y013502D01*
X018449Y013404D02*
X017558Y013404D01*
X017460Y013305D02*
X018350Y013305D01*
X018252Y013207D02*
X017361Y013207D01*
X017263Y013108D02*
X018153Y013108D01*
X018055Y013010D02*
X017164Y013010D01*
X017066Y012911D02*
X017956Y012911D01*
X017858Y012813D02*
X016967Y012813D01*
X016869Y012714D02*
X017759Y012714D01*
X017661Y012616D02*
X016770Y012616D01*
X016672Y012517D02*
X017562Y012517D01*
X017464Y012419D02*
X016573Y012419D01*
X016475Y012320D02*
X017365Y012320D01*
X017267Y012222D02*
X016376Y012222D01*
X016278Y012123D02*
X017168Y012123D01*
X017070Y012025D02*
X016179Y012025D01*
X016081Y011926D02*
X016971Y011926D01*
X016873Y011828D02*
X015982Y011828D01*
X015884Y011729D02*
X016774Y011729D01*
X016676Y011631D02*
X015785Y011631D01*
X015687Y011532D02*
X016577Y011532D01*
X016479Y011434D02*
X015588Y011434D01*
X015490Y011335D02*
X016380Y011335D01*
X016282Y011237D02*
X015391Y011237D01*
X015293Y011138D02*
X016183Y011138D01*
X016085Y011040D02*
X015194Y011040D01*
X015096Y010941D02*
X015986Y010941D01*
X015888Y010843D02*
X014997Y010843D01*
X014899Y010744D02*
X015789Y010744D01*
X015691Y010646D02*
X014800Y010646D01*
X014702Y010547D02*
X015592Y010547D01*
X015494Y010449D02*
X014603Y010449D01*
X014505Y010350D02*
X015395Y010350D01*
X015297Y010252D02*
X014406Y010252D01*
X014308Y010153D02*
X015198Y010153D01*
X015100Y010055D02*
X014209Y010055D01*
X014111Y009956D02*
X015001Y009956D01*
X014903Y009858D02*
X014012Y009858D01*
X013914Y009759D02*
X014804Y009759D01*
X014706Y009661D02*
X013815Y009661D01*
X013717Y009562D02*
X014607Y009562D01*
X014509Y009464D02*
X013618Y009464D01*
X013520Y009365D02*
X014410Y009365D01*
X014312Y009267D02*
X013421Y009267D01*
X013323Y009168D02*
X014213Y009168D01*
X014115Y009070D02*
X013224Y009070D01*
X013126Y008971D02*
X014016Y008971D01*
X013918Y008873D02*
X013027Y008873D01*
X012929Y008774D02*
X013819Y008774D01*
X013721Y008676D02*
X012830Y008676D01*
X012732Y008577D02*
X013622Y008577D01*
X013524Y008479D02*
X012633Y008479D01*
X012535Y008380D02*
X013425Y008380D01*
X013327Y008282D02*
X012436Y008282D01*
X012338Y008183D02*
X013228Y008183D01*
X013130Y008085D02*
X012239Y008085D01*
X012141Y007986D02*
X013031Y007986D01*
X012933Y007888D02*
X012042Y007888D01*
X011944Y007789D02*
X012834Y007789D01*
X012736Y007691D02*
X011845Y007691D01*
X011747Y007592D02*
X012637Y007592D01*
X012539Y007494D02*
X011648Y007494D01*
X011550Y007395D02*
X012440Y007395D01*
X012342Y007297D02*
X011451Y007297D01*
X011353Y007198D02*
X012243Y007198D01*
X012145Y007100D02*
X011254Y007100D01*
X011156Y007001D02*
X012046Y007001D01*
X011948Y006903D02*
X011057Y006903D01*
X010959Y006804D02*
X011849Y006804D01*
X011751Y006706D02*
X010860Y006706D01*
X010762Y006607D02*
X011652Y006607D01*
X011554Y006509D02*
X010663Y006509D01*
X010565Y006410D02*
X011455Y006410D01*
X011357Y006312D02*
X010466Y006312D01*
X010368Y006213D02*
X011258Y006213D01*
X011160Y006115D02*
X010269Y006115D01*
X010171Y006016D02*
X011061Y006016D01*
X010963Y005918D02*
X010072Y005918D01*
X007620Y002372D02*
X007601Y002372D01*
X007620Y002273D02*
X007503Y002273D01*
X007620Y002175D02*
X007030Y002175D01*
X006980Y002273D02*
X007097Y002273D01*
X006999Y002372D02*
X006980Y002372D01*
X007129Y002076D02*
X007620Y002076D01*
X007552Y001978D02*
X007718Y001978D01*
X007651Y001879D02*
X007816Y001879D01*
X007890Y001781D02*
X007710Y001781D01*
X007710Y001682D02*
X007890Y001682D01*
X007890Y001584D02*
X007710Y001584D01*
X007710Y001485D02*
X007890Y001485D01*
X007984Y001387D02*
X007616Y001387D01*
X007518Y001288D02*
X008082Y001288D01*
X008300Y001650D02*
X007800Y002150D01*
X008129Y002076D02*
X009118Y002076D01*
X009122Y002080D02*
X008870Y001828D01*
X008870Y001690D01*
X009260Y001690D01*
X009260Y002080D01*
X009122Y002080D01*
X009260Y002076D02*
X009340Y002076D01*
X009340Y002080D02*
X009478Y002080D01*
X009730Y001828D01*
X009730Y001690D01*
X009340Y001690D01*
X009340Y001610D01*
X009730Y001610D01*
X009730Y001472D01*
X009478Y001220D01*
X009340Y001220D01*
X009340Y001610D01*
X009260Y001610D01*
X009260Y001220D01*
X009122Y001220D01*
X008870Y001472D01*
X008870Y001610D01*
X009260Y001610D01*
X009260Y001690D01*
X009340Y001690D01*
X009340Y002080D01*
X009340Y001978D02*
X009260Y001978D01*
X009260Y001879D02*
X009340Y001879D01*
X009340Y001781D02*
X009260Y001781D01*
X009260Y001682D02*
X008710Y001682D01*
X008710Y001584D02*
X008870Y001584D01*
X008870Y001485D02*
X008710Y001485D01*
X008616Y001387D02*
X008955Y001387D01*
X009054Y001288D02*
X008518Y001288D01*
X008710Y001781D02*
X008870Y001781D01*
X008921Y001879D02*
X008651Y001879D01*
X008552Y001978D02*
X009019Y001978D01*
X009097Y002273D02*
X008503Y002273D01*
X009482Y002076D02*
X009620Y002076D01*
X009581Y001978D02*
X009718Y001978D01*
X009679Y001879D02*
X009816Y001879D01*
X009890Y001781D02*
X009730Y001781D01*
X009890Y001682D02*
X009340Y001682D01*
X009340Y001584D02*
X009260Y001584D01*
X009260Y001485D02*
X009340Y001485D01*
X009340Y001387D02*
X009260Y001387D01*
X009260Y001288D02*
X009340Y001288D01*
X009546Y001288D02*
X010082Y001288D01*
X009984Y001387D02*
X009645Y001387D01*
X009730Y001485D02*
X009890Y001485D01*
X009890Y001584D02*
X009730Y001584D01*
X009800Y002150D02*
X010300Y001650D01*
X010616Y001387D02*
X010984Y001387D01*
X010890Y001485D02*
X010710Y001485D01*
X010710Y001584D02*
X010890Y001584D01*
X010890Y001682D02*
X010710Y001682D01*
X010710Y001781D02*
X010890Y001781D01*
X010816Y001879D02*
X010651Y001879D01*
X010718Y001978D02*
X010552Y001978D01*
X010620Y002076D02*
X010129Y002076D01*
X010518Y001288D02*
X011082Y001288D01*
X015850Y002100D02*
X016300Y001650D01*
X016710Y001682D02*
X016890Y001682D01*
X016890Y001584D02*
X016710Y001584D01*
X016710Y001485D02*
X016890Y001485D01*
X016984Y001387D02*
X016616Y001387D01*
X016518Y001288D02*
X017082Y001288D01*
X017300Y001650D02*
X016800Y002150D01*
X016800Y002900D01*
X019400Y005500D01*
X024300Y005500D01*
X024576Y005228D02*
X024773Y005228D01*
X024674Y005327D02*
X024872Y005327D01*
X024913Y005425D02*
X024687Y005425D01*
X024687Y005524D02*
X024913Y005524D01*
X024913Y005622D02*
X024687Y005622D01*
X024627Y005721D02*
X024973Y005721D01*
X025071Y005819D02*
X024529Y005819D01*
X024972Y005918D02*
X027382Y005918D01*
X027382Y006016D02*
X025071Y006016D01*
X025300Y005500D02*
X024800Y005000D01*
X019550Y005000D01*
X017300Y002750D01*
X017300Y002650D01*
X017601Y002372D02*
X017999Y002372D01*
X017900Y002470D02*
X017700Y002470D01*
X017710Y002569D02*
X017890Y002569D01*
X017890Y002667D02*
X017710Y002667D01*
X017710Y002766D02*
X017890Y002766D01*
X017934Y002864D02*
X017669Y002864D01*
X017767Y002963D02*
X018033Y002963D01*
X017866Y003061D02*
X018620Y003061D01*
X018620Y002963D02*
X018567Y002963D01*
X018620Y003160D02*
X017964Y003160D01*
X018063Y003258D02*
X018620Y003258D01*
X018652Y003357D02*
X018161Y003357D01*
X018260Y003455D02*
X018750Y003455D01*
X018849Y003554D02*
X018358Y003554D01*
X018457Y003652D02*
X018947Y003652D01*
X019046Y003751D02*
X018555Y003751D01*
X018654Y003849D02*
X019144Y003849D01*
X019243Y003948D02*
X018752Y003948D01*
X018851Y004046D02*
X019341Y004046D01*
X019440Y004145D02*
X018949Y004145D01*
X019048Y004243D02*
X019538Y004243D01*
X019637Y004342D02*
X019146Y004342D01*
X019245Y004440D02*
X019735Y004440D01*
X019834Y004539D02*
X019343Y004539D01*
X019442Y004637D02*
X019932Y004637D01*
X020050Y004500D02*
X024300Y004500D01*
X023988Y004736D02*
X019540Y004736D01*
X020050Y004500D02*
X018800Y003250D01*
X018800Y002200D01*
X019300Y001700D01*
X019300Y001650D01*
X019710Y001682D02*
X019890Y001682D01*
X019890Y001584D02*
X019710Y001584D01*
X019710Y001485D02*
X019890Y001485D01*
X019984Y001387D02*
X019616Y001387D01*
X019518Y001288D02*
X020082Y001288D01*
X020300Y001650D02*
X020300Y001850D01*
X020800Y002350D01*
X020800Y002900D01*
X021400Y003550D01*
X024250Y003550D01*
X024300Y003500D01*
X024687Y003455D02*
X024913Y003455D01*
X024913Y003357D02*
X024687Y003357D01*
X024606Y003258D02*
X024994Y003258D01*
X024895Y003160D02*
X025093Y003160D01*
X024994Y003061D02*
X027387Y003061D01*
X027388Y002963D02*
X025092Y002963D01*
X024878Y002667D02*
X024681Y002667D01*
X024687Y002569D02*
X024913Y002569D01*
X024913Y002470D02*
X024687Y002470D01*
X024687Y002372D02*
X024913Y002372D01*
X024979Y002273D02*
X024621Y002273D01*
X024522Y002175D02*
X025078Y002175D01*
X024480Y002076D02*
X027389Y002076D01*
X027389Y001978D02*
X024480Y001978D01*
X024480Y001879D02*
X027390Y001879D01*
X027390Y001781D02*
X024480Y001781D01*
X024480Y001682D02*
X027390Y001682D01*
X027390Y001584D02*
X024480Y001584D01*
X024480Y001485D02*
X027390Y001485D01*
X027390Y001387D02*
X024480Y001387D01*
X024480Y001288D02*
X027391Y001288D01*
X027391Y001190D02*
X024480Y001190D01*
X024396Y001091D02*
X027391Y001091D01*
X027391Y000993D02*
X024297Y000993D01*
X024582Y002766D02*
X024780Y002766D01*
X024687Y003554D02*
X024913Y003554D01*
X024893Y003652D02*
X024687Y003652D01*
X024900Y003900D02*
X021150Y003900D01*
X020300Y003050D01*
X020300Y002650D01*
X019999Y002372D02*
X019601Y002372D01*
X019700Y002470D02*
X019900Y002470D01*
X019890Y002569D02*
X019710Y002569D01*
X019710Y002667D02*
X019890Y002667D01*
X019890Y002766D02*
X019710Y002766D01*
X019769Y002864D02*
X019934Y002864D01*
X019867Y002963D02*
X020033Y002963D01*
X019966Y003061D02*
X020120Y003061D01*
X020155Y003160D02*
X020064Y003160D01*
X020163Y003258D02*
X020253Y003258D01*
X020261Y003357D02*
X020352Y003357D01*
X020360Y003455D02*
X020450Y003455D01*
X020458Y003554D02*
X020549Y003554D01*
X020557Y003652D02*
X020647Y003652D01*
X020655Y003751D02*
X020746Y003751D01*
X020754Y003849D02*
X020844Y003849D01*
X020750Y004100D02*
X024950Y004100D01*
X025300Y004450D01*
X025300Y004500D01*
X024913Y004539D02*
X024687Y004539D01*
X024687Y004637D02*
X024913Y004637D01*
X024988Y004736D02*
X024612Y004736D01*
X024889Y004834D02*
X025086Y004834D01*
X024987Y004933D02*
X027384Y004933D01*
X027384Y005031D02*
X025086Y005031D01*
X024913Y004440D02*
X024687Y004440D01*
X024687Y004342D02*
X024913Y004342D01*
X025151Y004046D02*
X027386Y004046D01*
X027386Y003948D02*
X025107Y003948D01*
X024900Y003900D02*
X025300Y003500D01*
X026271Y002864D02*
X026329Y002864D01*
X026329Y002907D02*
X026329Y002529D01*
X026707Y002529D01*
X026707Y002777D01*
X026697Y002815D01*
X026678Y002850D01*
X026650Y002878D01*
X026615Y002897D01*
X026577Y002907D01*
X026329Y002907D01*
X026329Y002766D02*
X026271Y002766D01*
X026271Y002667D02*
X026329Y002667D01*
X026329Y002569D02*
X026271Y002569D01*
X026271Y002470D02*
X026329Y002470D01*
X026329Y002471D02*
X026329Y002093D01*
X026577Y002093D01*
X026615Y002103D01*
X026650Y002122D01*
X026678Y002150D01*
X026697Y002185D01*
X026707Y002223D01*
X026707Y002471D01*
X026329Y002471D01*
X026329Y002372D02*
X026271Y002372D01*
X026271Y002273D02*
X026329Y002273D01*
X026329Y002175D02*
X026271Y002175D01*
X026691Y002175D02*
X027389Y002175D01*
X027389Y002273D02*
X026707Y002273D01*
X026707Y002372D02*
X027389Y002372D01*
X027388Y002470D02*
X026707Y002470D01*
X026707Y002569D02*
X027388Y002569D01*
X027388Y002667D02*
X026707Y002667D01*
X026707Y002766D02*
X027388Y002766D01*
X027388Y002864D02*
X026663Y002864D01*
X026507Y003160D02*
X027387Y003160D01*
X027387Y003258D02*
X026606Y003258D01*
X026687Y003357D02*
X027387Y003357D01*
X027387Y003455D02*
X026687Y003455D01*
X026687Y003554D02*
X027386Y003554D01*
X027386Y003652D02*
X026687Y003652D01*
X026597Y003751D02*
X027386Y003751D01*
X027386Y003849D02*
X026499Y003849D01*
X026492Y004145D02*
X027385Y004145D01*
X027385Y004243D02*
X026591Y004243D01*
X026687Y004342D02*
X027385Y004342D01*
X027385Y004440D02*
X026687Y004440D01*
X026687Y004539D02*
X027385Y004539D01*
X027384Y004637D02*
X026687Y004637D01*
X026612Y004736D02*
X027384Y004736D01*
X027384Y004834D02*
X026514Y004834D01*
X026477Y005130D02*
X027384Y005130D01*
X027383Y005228D02*
X026576Y005228D01*
X026674Y005327D02*
X027383Y005327D01*
X027383Y005425D02*
X026687Y005425D01*
X026687Y005524D02*
X027383Y005524D01*
X027383Y005622D02*
X026687Y005622D01*
X026627Y005721D02*
X027382Y005721D01*
X027382Y005819D02*
X026529Y005819D01*
X023972Y004280D02*
X020675Y004280D01*
X020570Y004175D01*
X019455Y003060D01*
X019130Y003060D01*
X018980Y002910D01*
X018980Y003175D01*
X020125Y004320D01*
X023932Y004320D01*
X023972Y004280D01*
X022097Y002273D02*
X021503Y002273D01*
X021552Y001978D02*
X022048Y001978D01*
X021949Y001879D02*
X021651Y001879D01*
X021710Y001781D02*
X021890Y001781D01*
X021048Y001978D02*
X020682Y001978D01*
X020651Y001879D02*
X020949Y001879D01*
X020890Y001781D02*
X020710Y001781D01*
X020710Y001682D02*
X020890Y001682D01*
X020890Y001584D02*
X020710Y001584D01*
X020710Y001485D02*
X020890Y001485D01*
X020984Y001387D02*
X020616Y001387D01*
X020518Y001288D02*
X021082Y001288D01*
X021097Y002273D02*
X020978Y002273D01*
X020980Y002372D02*
X020999Y002372D01*
X020370Y002175D02*
X019080Y002175D01*
X019097Y002273D02*
X018982Y002273D01*
X018980Y002372D02*
X018999Y002372D01*
X019179Y002076D02*
X020271Y002076D01*
X020048Y001978D02*
X019552Y001978D01*
X019651Y001879D02*
X019949Y001879D01*
X019890Y001781D02*
X019710Y001781D01*
X019503Y002273D02*
X020097Y002273D01*
X019300Y002650D02*
X020750Y004100D01*
X020638Y004243D02*
X020048Y004243D01*
X019949Y004145D02*
X020540Y004145D01*
X020441Y004046D02*
X019851Y004046D01*
X019752Y003948D02*
X020343Y003948D01*
X020244Y003849D02*
X019654Y003849D01*
X019555Y003751D02*
X020146Y003751D01*
X020047Y003652D02*
X019457Y003652D01*
X019358Y003554D02*
X019949Y003554D01*
X019850Y003455D02*
X019260Y003455D01*
X019161Y003357D02*
X019752Y003357D01*
X019653Y003258D02*
X019063Y003258D01*
X018980Y003160D02*
X019555Y003160D01*
X019456Y003061D02*
X018980Y003061D01*
X018980Y002963D02*
X019033Y002963D01*
X018620Y002372D02*
X018601Y002372D01*
X018620Y002273D02*
X018503Y002273D01*
X018620Y002175D02*
X017030Y002175D01*
X016980Y002273D02*
X017097Y002273D01*
X016999Y002372D02*
X016980Y002372D01*
X017129Y002076D02*
X018118Y002076D01*
X018122Y002080D02*
X017870Y001828D01*
X017870Y001690D01*
X018260Y001690D01*
X018260Y002080D01*
X018122Y002080D01*
X018260Y002076D02*
X018340Y002076D01*
X018340Y002080D02*
X018478Y002080D01*
X018730Y001828D01*
X018730Y001690D01*
X018340Y001690D01*
X018340Y001610D01*
X018730Y001610D01*
X018730Y001472D01*
X018478Y001220D01*
X018340Y001220D01*
X018340Y001610D01*
X018260Y001610D01*
X018260Y001220D01*
X018122Y001220D01*
X017870Y001472D01*
X017870Y001610D01*
X018260Y001610D01*
X018260Y001690D01*
X018340Y001690D01*
X018340Y002080D01*
X018340Y001978D02*
X018260Y001978D01*
X018260Y001879D02*
X018340Y001879D01*
X018340Y001781D02*
X018260Y001781D01*
X018260Y001682D02*
X017710Y001682D01*
X017710Y001584D02*
X017870Y001584D01*
X017870Y001485D02*
X017710Y001485D01*
X017616Y001387D02*
X017955Y001387D01*
X018054Y001288D02*
X017518Y001288D01*
X017710Y001781D02*
X017870Y001781D01*
X017921Y001879D02*
X017651Y001879D01*
X017552Y001978D02*
X018019Y001978D01*
X018097Y002273D02*
X017503Y002273D01*
X016890Y001781D02*
X016710Y001781D01*
X016651Y001879D02*
X016816Y001879D01*
X016718Y001978D02*
X016552Y001978D01*
X016620Y002076D02*
X016129Y002076D01*
X016030Y002175D02*
X016620Y002175D01*
X016620Y002273D02*
X016503Y002273D01*
X016601Y002372D02*
X016620Y002372D01*
X016300Y002650D02*
X016300Y003400D01*
X018700Y005700D01*
X018772Y005520D02*
X019165Y005520D01*
X016620Y002975D01*
X016620Y002910D01*
X016480Y003050D01*
X016480Y003323D01*
X018772Y005520D01*
X018673Y005425D02*
X019070Y005425D01*
X018972Y005327D02*
X018570Y005327D01*
X018468Y005228D02*
X018873Y005228D01*
X018775Y005130D02*
X018365Y005130D01*
X018262Y005031D02*
X018676Y005031D01*
X018578Y004933D02*
X018159Y004933D01*
X018057Y004834D02*
X018479Y004834D01*
X018381Y004736D02*
X017954Y004736D01*
X017851Y004637D02*
X018282Y004637D01*
X018184Y004539D02*
X017748Y004539D01*
X017645Y004440D02*
X018085Y004440D01*
X017987Y004342D02*
X017543Y004342D01*
X017440Y004243D02*
X017888Y004243D01*
X017790Y004145D02*
X017337Y004145D01*
X017234Y004046D02*
X017691Y004046D01*
X017593Y003948D02*
X017131Y003948D01*
X017029Y003849D02*
X017494Y003849D01*
X017396Y003751D02*
X016926Y003751D01*
X016823Y003652D02*
X017297Y003652D01*
X017199Y003554D02*
X016720Y003554D01*
X016618Y003455D02*
X017100Y003455D01*
X017002Y003357D02*
X016515Y003357D01*
X016480Y003258D02*
X016903Y003258D01*
X016805Y003160D02*
X016480Y003160D01*
X016480Y003061D02*
X016706Y003061D01*
X016620Y002963D02*
X016567Y002963D01*
X016097Y002273D02*
X016030Y002273D01*
X018260Y001584D02*
X018340Y001584D01*
X018340Y001682D02*
X018890Y001682D01*
X018890Y001584D02*
X018730Y001584D01*
X018730Y001485D02*
X018890Y001485D01*
X018984Y001387D02*
X018645Y001387D01*
X018546Y001288D02*
X019082Y001288D01*
X018890Y001781D02*
X018730Y001781D01*
X018679Y001879D02*
X018866Y001879D01*
X018768Y001978D02*
X018581Y001978D01*
X018669Y002076D02*
X018482Y002076D01*
X018340Y001485D02*
X018260Y001485D01*
X018260Y001387D02*
X018340Y001387D01*
X018340Y001288D02*
X018260Y001288D01*
X005337Y014192D02*
X003540Y014192D01*
X003638Y014290D02*
X005435Y014290D01*
X005534Y014389D02*
X004543Y014389D01*
X004642Y014487D02*
X005632Y014487D01*
X005731Y014586D02*
X004740Y014586D01*
X004839Y014684D02*
X005829Y014684D01*
X005928Y014783D02*
X004937Y014783D01*
X005036Y014881D02*
X006026Y014881D01*
X006125Y014980D02*
X005134Y014980D01*
X005233Y015078D02*
X006223Y015078D01*
X006322Y015177D02*
X005331Y015177D01*
X005430Y015275D02*
X006420Y015275D01*
X006519Y015374D02*
X005528Y015374D01*
X005627Y015472D02*
X006617Y015472D01*
X006716Y015571D02*
X005725Y015571D01*
X005824Y015669D02*
X006814Y015669D01*
X006913Y015768D02*
X005922Y015768D01*
X006021Y015866D02*
X007011Y015866D01*
X007110Y015965D02*
X006119Y015965D01*
X006218Y016063D02*
X007208Y016063D01*
X007307Y016162D02*
X006316Y016162D01*
X006415Y016260D02*
X007405Y016260D01*
X007504Y016359D02*
X006513Y016359D01*
X006612Y016457D02*
X007602Y016457D01*
X007701Y016556D02*
X006710Y016556D01*
X006809Y016654D02*
X007799Y016654D01*
X007898Y016753D02*
X006907Y016753D01*
X007006Y016851D02*
X007996Y016851D01*
X008095Y016950D02*
X007104Y016950D01*
X007203Y017048D02*
X008193Y017048D01*
X008292Y017147D02*
X007301Y017147D01*
X007400Y017245D02*
X008390Y017245D01*
X008489Y017344D02*
X007498Y017344D01*
X007597Y017442D02*
X008587Y017442D01*
X006886Y017541D02*
X005695Y017541D01*
X005597Y017442D02*
X006787Y017442D01*
X006689Y017344D02*
X005498Y017344D01*
X005400Y017245D02*
X006590Y017245D01*
X006492Y017147D02*
X005301Y017147D01*
X005203Y017048D02*
X006393Y017048D01*
X006295Y016950D02*
X005104Y016950D01*
X005006Y016851D02*
X006196Y016851D01*
X006098Y016753D02*
X004907Y016753D01*
X004809Y016654D02*
X005999Y016654D01*
X005901Y016556D02*
X004710Y016556D01*
X004612Y016457D02*
X005802Y016457D01*
X005704Y016359D02*
X004513Y016359D01*
X004920Y015275D02*
X003623Y015275D01*
X003525Y015177D02*
X004822Y015177D01*
X004526Y014881D02*
X003467Y014881D01*
X003565Y014783D02*
X004428Y014783D01*
X004329Y014684D02*
X003664Y014684D01*
X004475Y018329D02*
X005092Y018329D01*
X004993Y018427D02*
X004607Y018427D01*
X004672Y018526D02*
X004895Y018526D01*
X004890Y018624D02*
X004710Y018624D01*
X004710Y018723D02*
X004890Y018723D01*
X004890Y018821D02*
X004694Y018821D01*
X004653Y018920D02*
X004940Y018920D01*
X005038Y019018D02*
X004562Y019018D01*
X004038Y019018D02*
X002545Y019018D01*
X002545Y018920D02*
X003947Y018920D01*
X003906Y018821D02*
X002533Y018821D01*
X002627Y020299D02*
X010120Y020299D01*
X010120Y020397D02*
X002743Y020397D01*
X002859Y020496D02*
X010120Y020496D01*
X010120Y020594D02*
X002975Y020594D01*
X003090Y020693D02*
X003191Y020693D01*
X003400Y020950D02*
X005700Y020950D01*
X005800Y021050D01*
X005550Y021300D01*
X005550Y021626D01*
X005576Y021600D01*
X005950Y021600D01*
X006100Y021750D01*
X006100Y022450D01*
X006700Y022450D01*
X006808Y022558D01*
X006808Y022713D01*
X007005Y022713D02*
X007005Y022405D01*
X006925Y022325D01*
X007000Y022250D01*
X009100Y022250D01*
X009300Y022450D01*
X009300Y023586D01*
X009627Y023549D02*
X011594Y023549D01*
X011496Y023451D02*
X009627Y023451D01*
X009627Y023352D02*
X011397Y023352D01*
X011299Y023254D02*
X009627Y023254D01*
X009480Y023155D02*
X011200Y023155D01*
X011102Y023057D02*
X009480Y023057D01*
X009480Y022958D02*
X011003Y022958D01*
X010905Y022860D02*
X009480Y022860D01*
X009480Y022761D02*
X010806Y022761D01*
X010708Y022663D02*
X009480Y022663D01*
X009480Y022564D02*
X010609Y022564D01*
X010511Y022466D02*
X009480Y022466D01*
X009472Y022367D02*
X010412Y022367D01*
X010314Y022269D02*
X009373Y022269D01*
X009275Y022170D02*
X010215Y022170D01*
X010120Y022072D02*
X009176Y022072D01*
X009025Y022430D02*
X007890Y022430D01*
X007977Y022517D01*
X007977Y022823D01*
X008283Y022823D01*
X008375Y022915D01*
X008375Y023101D01*
X008369Y023106D01*
X008375Y023112D01*
X008375Y023298D01*
X008369Y023303D01*
X008375Y023309D01*
X008375Y023494D01*
X008369Y023500D01*
X008375Y023506D01*
X008375Y023691D01*
X008369Y023697D01*
X008375Y023702D01*
X008375Y023888D01*
X008369Y023894D01*
X008375Y023899D01*
X008375Y024085D01*
X008283Y024177D01*
X007977Y024177D01*
X007977Y024483D01*
X007938Y024522D01*
X008030Y024613D01*
X008080Y024734D01*
X008080Y024866D01*
X008030Y024987D01*
X007937Y025080D01*
X007816Y025130D01*
X007684Y025130D01*
X007563Y025080D01*
X007470Y024987D01*
X007420Y024866D01*
X007420Y024785D01*
X007230Y024975D01*
X007125Y025080D01*
X006983Y025080D01*
X006980Y025087D01*
X006897Y025170D01*
X008675Y025170D01*
X009028Y024818D01*
X008973Y024763D01*
X008973Y024065D01*
X009038Y024000D01*
X008973Y023935D01*
X008973Y023237D01*
X009049Y023160D01*
X009120Y023160D01*
X009120Y022525D01*
X009025Y022430D01*
X009061Y022466D02*
X007925Y022466D01*
X007977Y022564D02*
X009120Y022564D01*
X009120Y022663D02*
X007977Y022663D01*
X007977Y022761D02*
X009120Y022761D01*
X009120Y022860D02*
X008319Y022860D01*
X008375Y022958D02*
X009120Y022958D01*
X009120Y023057D02*
X008375Y023057D01*
X008375Y023155D02*
X009120Y023155D01*
X008973Y023254D02*
X008375Y023254D01*
X008375Y023352D02*
X008973Y023352D01*
X008973Y023451D02*
X008375Y023451D01*
X008375Y023549D02*
X008973Y023549D01*
X008973Y023648D02*
X008375Y023648D01*
X008375Y023746D02*
X008973Y023746D01*
X008973Y023845D02*
X008375Y023845D01*
X008375Y023943D02*
X008981Y023943D01*
X008997Y024042D02*
X008375Y024042D01*
X008320Y024140D02*
X008973Y024140D01*
X008973Y024239D02*
X007977Y024239D01*
X007977Y024337D02*
X008973Y024337D01*
X008973Y024436D02*
X007977Y024436D01*
X007951Y024534D02*
X008973Y024534D01*
X008973Y024633D02*
X008038Y024633D01*
X008079Y024731D02*
X008973Y024731D01*
X009016Y024830D02*
X008080Y024830D01*
X008054Y024928D02*
X008917Y024928D01*
X008819Y025027D02*
X007990Y025027D01*
X007828Y025125D02*
X008720Y025125D01*
X008750Y025350D02*
X005800Y025350D01*
X005250Y024800D01*
X005250Y024350D01*
X005000Y024100D01*
X004430Y024100D01*
X004400Y024130D01*
X004400Y023815D02*
X004415Y023800D01*
X005050Y023800D01*
X005150Y023900D01*
X005400Y023900D01*
X005707Y023780D02*
X005730Y023834D01*
X005730Y023966D01*
X005680Y024087D01*
X005587Y024180D01*
X005466Y024230D01*
X005385Y024230D01*
X005430Y024275D01*
X005430Y024725D01*
X005875Y025170D01*
X006503Y025170D01*
X006420Y025087D01*
X006370Y024966D01*
X006370Y024834D01*
X006420Y024713D01*
X006513Y024620D01*
X006634Y024570D01*
X006710Y024570D01*
X006623Y024483D01*
X006623Y024177D01*
X006317Y024177D01*
X006225Y024085D01*
X006225Y023905D01*
X006217Y023891D01*
X006205Y023846D01*
X006205Y023795D01*
X006205Y023780D01*
X005707Y023780D01*
X005730Y023845D02*
X006205Y023845D01*
X006205Y023795D02*
X006513Y023795D01*
X006658Y023795D01*
X006658Y023795D01*
X006513Y023795D01*
X006513Y023795D01*
X006513Y023784D01*
X006513Y023784D01*
X006513Y023795D01*
X006513Y023795D01*
X007005Y023795D01*
X007300Y023500D01*
X007398Y024287D02*
X007398Y024552D01*
X007050Y024900D01*
X006700Y024900D01*
X006395Y025027D02*
X005731Y025027D01*
X005830Y025125D02*
X006458Y025125D01*
X006370Y024928D02*
X005633Y024928D01*
X005534Y024830D02*
X006372Y024830D01*
X006413Y024731D02*
X005436Y024731D01*
X005430Y024633D02*
X006501Y024633D01*
X006674Y024534D02*
X005430Y024534D01*
X005430Y024436D02*
X006623Y024436D01*
X006623Y024337D02*
X005430Y024337D01*
X005393Y024239D02*
X006623Y024239D01*
X006280Y024140D02*
X005627Y024140D01*
X005699Y024042D02*
X006225Y024042D01*
X006225Y023943D02*
X005730Y023943D01*
X005700Y023600D02*
X006511Y023600D01*
X006513Y023598D01*
X006513Y023402D02*
X005902Y023402D01*
X005700Y023150D01*
X005370Y023155D02*
X004984Y023155D01*
X004984Y023057D02*
X005382Y023057D01*
X005425Y022958D02*
X005004Y022958D01*
X005004Y022860D02*
X005539Y022860D01*
X005500Y022768D02*
X005235Y022768D01*
X005197Y022758D01*
X005163Y022738D01*
X005135Y022710D01*
X005115Y022676D01*
X005105Y022638D01*
X005105Y022424D01*
X005500Y022424D01*
X005500Y022768D01*
X005500Y022761D02*
X005600Y022761D01*
X005600Y022663D02*
X005500Y022663D01*
X005500Y022564D02*
X005600Y022564D01*
X005600Y022466D02*
X005500Y022466D01*
X005500Y022367D02*
X003783Y022367D01*
X003824Y022466D02*
X005105Y022466D01*
X005105Y022564D02*
X003841Y022564D01*
X003841Y022663D02*
X003843Y022663D01*
X004400Y022663D02*
X004400Y022663D01*
X004400Y022761D02*
X004400Y022761D01*
X004400Y022860D02*
X004400Y022860D01*
X004400Y022870D02*
X004400Y022957D01*
X004400Y022870D01*
X004400Y022870D01*
X004400Y022957D02*
X004400Y022957D01*
X004400Y023500D02*
X005600Y023500D01*
X005700Y023600D01*
X005386Y023254D02*
X004984Y023254D01*
X005004Y022761D02*
X005209Y022761D01*
X005111Y022663D02*
X004957Y022663D01*
X005105Y022269D02*
X004727Y022269D01*
X004780Y022170D02*
X005105Y022170D01*
X005115Y022072D02*
X004780Y022072D01*
X004780Y021973D02*
X005174Y021973D01*
X005125Y021875D02*
X004780Y021875D01*
X004780Y021776D02*
X005125Y021776D01*
X005125Y021678D02*
X004780Y021678D01*
X004780Y021579D02*
X005125Y021579D01*
X005125Y021481D02*
X004780Y021481D01*
X004780Y021382D02*
X005125Y021382D01*
X005169Y021284D02*
X004744Y021284D01*
X005410Y021185D02*
X003632Y021185D01*
X003612Y021284D02*
X002893Y021284D01*
X002893Y021382D02*
X003576Y021382D01*
X003576Y021481D02*
X002893Y021481D01*
X002893Y021579D02*
X003576Y021579D01*
X003576Y021678D02*
X002893Y021678D01*
X002893Y021776D02*
X003576Y021776D01*
X003576Y021875D02*
X002893Y021875D01*
X002893Y021973D02*
X003576Y021973D01*
X003576Y022072D02*
X003526Y022072D01*
X003168Y021185D02*
X002864Y021185D01*
X003609Y020693D02*
X010120Y020693D01*
X010120Y020791D02*
X006008Y020791D01*
X006091Y020890D02*
X010120Y020890D01*
X010120Y020988D02*
X006130Y020988D01*
X006130Y021087D02*
X010120Y021087D01*
X010120Y021185D02*
X006101Y021185D01*
X006033Y021284D02*
X010120Y021284D01*
X010120Y021382D02*
X008000Y021382D01*
X008002Y021383D02*
X008030Y021411D01*
X008049Y021445D01*
X008060Y021483D01*
X008060Y021652D01*
X007663Y021652D01*
X007663Y021353D01*
X007929Y021353D01*
X007968Y021363D01*
X008002Y021383D01*
X008059Y021481D02*
X010120Y021481D01*
X010120Y021579D02*
X008060Y021579D01*
X008060Y021776D02*
X010120Y021776D01*
X010120Y021678D02*
X007663Y021678D01*
X007663Y021776D02*
X007566Y021776D01*
X007566Y021875D02*
X007663Y021875D01*
X007663Y021973D02*
X007566Y021973D01*
X008039Y021973D02*
X010120Y021973D01*
X010120Y021875D02*
X008060Y021875D01*
X007663Y021579D02*
X007566Y021579D01*
X007566Y021481D02*
X007663Y021481D01*
X007663Y021382D02*
X007566Y021382D01*
X007229Y021382D02*
X007144Y021382D01*
X006800Y021714D02*
X006786Y021700D01*
X006800Y021714D02*
X006800Y022200D01*
X006925Y022325D01*
X006620Y022269D02*
X006280Y022269D01*
X006280Y022170D02*
X006620Y022170D01*
X006620Y022072D02*
X006280Y022072D01*
X006280Y021973D02*
X006383Y021973D01*
X006360Y021875D02*
X006280Y021875D01*
X006280Y021776D02*
X006360Y021776D01*
X006360Y021678D02*
X006280Y021678D01*
X006360Y021579D02*
X006184Y021579D01*
X006085Y021481D02*
X006360Y021481D01*
X006428Y021382D02*
X005975Y021382D01*
X006100Y022450D02*
X006100Y022850D01*
X006100Y023150D01*
X006150Y023200D01*
X006508Y023200D01*
X006513Y023205D01*
X006513Y023008D02*
X006258Y023008D01*
X006100Y022850D01*
X005920Y022860D02*
X005861Y022860D01*
X005891Y022761D02*
X005920Y022761D01*
X006205Y023795D02*
X006513Y023795D01*
X006513Y023795D01*
X006513Y023807D01*
X006513Y023807D01*
X006513Y023795D01*
X006513Y023795D01*
X007595Y024287D02*
X007595Y024645D01*
X007750Y024800D01*
X007446Y024928D02*
X007276Y024928D01*
X007178Y025027D02*
X007510Y025027D01*
X007672Y025125D02*
X006942Y025125D01*
X006824Y025618D02*
X006376Y025618D01*
X006469Y025716D02*
X006731Y025716D01*
X006691Y025815D02*
X006509Y025815D01*
X006530Y025913D02*
X006670Y025913D01*
X006670Y026012D02*
X006530Y026012D01*
X006530Y026110D02*
X006670Y026110D01*
X006670Y026209D02*
X006530Y026209D01*
X006530Y026307D02*
X006670Y026307D01*
X006670Y026406D02*
X006530Y026406D01*
X006530Y026504D02*
X006670Y026504D01*
X006670Y026603D02*
X006530Y026603D01*
X006503Y026701D02*
X006697Y026701D01*
X006741Y026800D02*
X006459Y026800D01*
X006360Y026898D02*
X006840Y026898D01*
X007360Y026898D02*
X007813Y026898D01*
X007725Y026800D02*
X007459Y026800D01*
X007503Y026701D02*
X007676Y026701D01*
X007653Y026603D02*
X007530Y026603D01*
X007530Y026504D02*
X007650Y026504D01*
X007650Y026406D02*
X007530Y026406D01*
X007530Y026307D02*
X007650Y026307D01*
X007530Y026209D02*
X008050Y026209D01*
X008050Y026307D02*
X008150Y026307D01*
X008150Y026300D02*
X008150Y026998D01*
X008205Y026989D01*
X008273Y026967D01*
X008336Y026935D01*
X008393Y026893D01*
X008443Y026843D01*
X008485Y026786D01*
X008517Y026723D01*
X008539Y026655D01*
X008550Y026585D01*
X008550Y026300D01*
X008150Y026300D01*
X008150Y026209D02*
X027344Y026209D01*
X027344Y026307D02*
X008550Y026307D01*
X008550Y026406D02*
X027344Y026406D01*
X027344Y026504D02*
X008550Y026504D01*
X008547Y026603D02*
X027344Y026603D01*
X027344Y026701D02*
X008524Y026701D01*
X008475Y026800D02*
X027343Y026800D01*
X027343Y026898D02*
X008387Y026898D01*
X008150Y026898D02*
X008050Y026898D01*
X008050Y026800D02*
X008150Y026800D01*
X008150Y026701D02*
X008050Y026701D01*
X008050Y026603D02*
X008150Y026603D01*
X008150Y026504D02*
X008050Y026504D01*
X008050Y026406D02*
X008150Y026406D01*
X008550Y026110D02*
X027345Y026110D01*
X027345Y026012D02*
X008550Y026012D01*
X008550Y025913D02*
X016105Y025913D01*
X016006Y025815D02*
X015565Y025815D01*
X015664Y025716D02*
X015908Y025716D01*
X015870Y025618D02*
X015710Y025618D01*
X015505Y025125D02*
X016067Y025125D01*
X015035Y025815D02*
X008529Y025815D01*
X008486Y025716D02*
X014936Y025716D01*
X013663Y025618D02*
X008404Y025618D01*
X008750Y025350D02*
X009300Y024800D01*
X009300Y024414D01*
X009627Y024436D02*
X012481Y024436D01*
X012580Y024534D02*
X009627Y024534D01*
X009627Y024633D02*
X012678Y024633D01*
X012777Y024731D02*
X009627Y024731D01*
X009561Y024830D02*
X012875Y024830D01*
X012974Y024928D02*
X009426Y024928D01*
X009328Y025027D02*
X013072Y025027D01*
X013171Y025125D02*
X009229Y025125D01*
X009131Y025224D02*
X013269Y025224D01*
X013368Y025322D02*
X009032Y025322D01*
X008934Y025421D02*
X013466Y025421D01*
X013565Y025519D02*
X008835Y025519D01*
X007796Y025618D02*
X007376Y025618D01*
X007469Y025716D02*
X007714Y025716D01*
X007671Y025815D02*
X007509Y025815D01*
X007530Y025913D02*
X007650Y025913D01*
X007650Y026012D02*
X007530Y026012D01*
X007530Y026110D02*
X007650Y026110D01*
X008043Y026997D02*
X001250Y026997D01*
X001250Y026898D02*
X005840Y026898D01*
X005741Y026800D02*
X001250Y026800D01*
X001250Y026701D02*
X005697Y026701D01*
X005670Y026603D02*
X001250Y026603D01*
X001250Y026504D02*
X005670Y026504D01*
X005670Y026406D02*
X001250Y026406D01*
X001250Y026307D02*
X005670Y026307D01*
X005670Y026209D02*
X001250Y026209D01*
X001250Y026110D02*
X005670Y026110D01*
X005670Y026012D02*
X001250Y026012D01*
X001250Y025913D02*
X005670Y025913D01*
X005691Y025815D02*
X002864Y025815D01*
X002893Y025716D02*
X003612Y025716D01*
X003576Y025618D02*
X002893Y025618D01*
X002893Y025519D02*
X003576Y025519D01*
X003576Y025421D02*
X002893Y025421D01*
X002893Y025322D02*
X003576Y025322D01*
X003576Y025224D02*
X002893Y025224D01*
X002893Y025125D02*
X003576Y025125D01*
X003576Y025027D02*
X002893Y025027D01*
X003527Y024928D02*
X003576Y024928D01*
X003783Y024633D02*
X005070Y024633D01*
X005070Y024731D02*
X004727Y024731D01*
X004780Y024830D02*
X005070Y024830D01*
X005124Y024928D02*
X004780Y024928D01*
X004780Y025027D02*
X005222Y025027D01*
X005321Y025125D02*
X004780Y025125D01*
X004780Y025224D02*
X005419Y025224D01*
X005518Y025322D02*
X004780Y025322D01*
X004780Y025421D02*
X005616Y025421D01*
X005715Y025519D02*
X004780Y025519D01*
X004780Y025618D02*
X005824Y025618D01*
X005731Y025716D02*
X004744Y025716D01*
X005070Y024534D02*
X003824Y024534D01*
X003841Y024436D02*
X005070Y024436D01*
X004983Y024337D02*
X004929Y024337D01*
X003871Y024337D02*
X003841Y024337D01*
X007189Y021973D02*
X007190Y021973D01*
X009627Y023648D02*
X011693Y023648D01*
X011791Y023746D02*
X009627Y023746D01*
X009627Y023845D02*
X011890Y023845D01*
X011989Y023943D02*
X009619Y023943D01*
X009603Y024042D02*
X012087Y024042D01*
X012186Y024140D02*
X009627Y024140D01*
X009627Y024239D02*
X012284Y024239D01*
X012383Y024337D02*
X009627Y024337D01*
X007420Y024830D02*
X007375Y024830D01*
X008050Y026997D02*
X008150Y026997D01*
X008157Y026997D02*
X027343Y026997D01*
X019120Y022564D02*
X016719Y022564D01*
X016620Y022466D02*
X019120Y022466D01*
X019120Y022367D02*
X016522Y022367D01*
X016423Y022269D02*
X019120Y022269D01*
X019120Y022170D02*
X017927Y022170D01*
X017998Y022072D02*
X018214Y022072D01*
X018386Y022072D02*
X019120Y022072D01*
X019120Y021973D02*
X018544Y021973D01*
X018606Y021875D02*
X019120Y021875D01*
X019120Y021776D02*
X018630Y021776D01*
X018627Y021678D02*
X019120Y021678D01*
X019120Y021579D02*
X018586Y021579D01*
X018497Y021481D02*
X019120Y021481D01*
X018056Y021973D02*
X017998Y021973D01*
X016548Y022170D02*
X016325Y022170D01*
X016226Y022072D02*
X016484Y022072D01*
X016482Y021973D02*
X016128Y021973D01*
X016029Y021875D02*
X016482Y021875D01*
X017480Y023845D02*
X017490Y023845D01*
X017480Y023943D02*
X017589Y023943D01*
X017687Y024042D02*
X017480Y024042D01*
X015300Y018800D02*
X015300Y018700D01*
X014993Y018427D02*
X014607Y018427D01*
X014705Y018526D02*
X014895Y018526D01*
X014890Y018624D02*
X014710Y018624D01*
X014508Y018329D02*
X015092Y018329D01*
X012107Y019314D02*
X011493Y019314D01*
X011038Y019018D02*
X010980Y019018D01*
X010659Y019314D02*
X010493Y019314D01*
X010592Y019412D02*
X010757Y019412D01*
X010690Y019511D02*
X010856Y019511D01*
X010890Y019609D02*
X010710Y019609D01*
X010710Y019708D02*
X010890Y019708D01*
X010890Y019806D02*
X010710Y019806D01*
X010675Y019905D02*
X010925Y019905D01*
X011023Y020003D02*
X010577Y020003D01*
X010562Y019018D02*
X010620Y019018D01*
X011300Y018700D02*
X011300Y018600D01*
X006670Y018920D02*
X006660Y018920D01*
X006670Y019018D02*
X006562Y019018D01*
D26*
X008300Y017650D03*
X005800Y021050D03*
X005700Y023150D03*
X005400Y023900D03*
X005950Y024550D03*
X006700Y024900D03*
X007750Y024800D03*
X008550Y024800D03*
X008650Y022700D03*
X003400Y020950D03*
X005000Y014400D03*
X004350Y006550D03*
X001900Y004450D03*
X008300Y003850D03*
X009250Y004750D03*
X017150Y003750D03*
X017800Y001250D03*
X018800Y001250D03*
X020250Y004150D03*
X021050Y007500D03*
X021100Y008550D03*
X021600Y009600D03*
X017750Y013200D03*
X018350Y015500D03*
X016450Y017700D03*
X018300Y021750D03*
X018150Y022700D03*
X022000Y016500D03*
X025300Y018350D03*
X026800Y015300D03*
X026200Y014450D03*
X026300Y009750D03*
X026500Y008100D03*
D27*
X018300Y021750D02*
X017624Y021750D01*
X003400Y020950D02*
X003100Y020950D01*
X002100Y020100D01*
X002100Y019874D01*
M02*
