%
M48
M72
T01C0.0240
T02C0.0315
T03C0.0360
T04C0.0394
T05C0.0400
%
T01
X3400Y20950
X5800Y21050
X5700Y23150
X5400Y23900
X5950Y24550
X6700Y24900
X7750Y24800
X8550Y24800
X8650Y22700
X8300Y17650
X5000Y14400
X4350Y6550
X1900Y4450
X8300Y3850
X9250Y4750
X17150Y3750
X17800Y1250
X18800Y1250
X20250Y4150
X21050Y7500
X21100Y8550
X21600Y9600
X17750Y13200
X18350Y15500
X16450Y17700
X18300Y21750
X18150Y22700
X22000Y16500
X25300Y18350
X26800Y15300
X26200Y14450
X26300Y9750
X26500Y8100
T02
X3300Y2500
X3300Y3500
X3300Y4500
X3300Y5500
X3300Y6500
X2300Y6500
X2300Y7500
X2300Y8500
X3300Y8500
X3300Y7500
X3300Y9500
X3300Y10500
X2300Y9500
X3300Y11500
X3300Y12500
X3300Y13500
X3300Y14500
X2300Y14500
X2300Y15500
X2300Y16500
X3300Y16500
X3300Y15500
X3300Y17500
X2300Y17500
X23300Y17500
X24300Y17500
X24300Y16500
X24300Y15500
X23300Y15500
X23300Y16500
X23300Y14500
X24300Y14500
X24300Y13500
X24300Y12500
X24300Y11500
X24300Y10500
X24300Y9500
X23300Y9500
X23300Y8500
X23300Y7500
X24300Y7500
X24300Y8500
X25300Y8500
X25300Y7500
X25300Y6500
X25300Y5500
X25300Y4500
X25300Y3500
X25300Y2500
X24300Y2500
X24300Y3500
X24300Y4500
X24300Y5500
X24300Y6500
X23300Y6500
X26300Y5500
X26300Y4500
X26300Y3500
X26300Y2500
X25300Y9500
X25300Y10500
X25300Y11500
X25300Y12500
X25300Y13500
X25300Y14500
X25300Y15500
X25300Y16500
X25300Y17500
X26300Y13500
X26300Y12500
X26300Y11500
X26300Y10500
T03
X4300Y1650
X5300Y1650
X5300Y2650
X4300Y2650
X6300Y2650
X6300Y1650
X7300Y1650
X8300Y1650
X8300Y2650
X7300Y2650
X9300Y2650
X10300Y2650
X10300Y1650
X9300Y1650
X11300Y1650
X11300Y2650
X12300Y2650
X13300Y2650
X13300Y1650
X12300Y1650
X14300Y1650
X15300Y1650
X15300Y2650
X14300Y2650
X16300Y2650
X17300Y2650
X17300Y1650
X16300Y1650
X18300Y1650
X18300Y2650
X19300Y2650
X20300Y2650
X20300Y1650
X19300Y1650
X21300Y1650
X22300Y1650
X22300Y2650
X21300Y2650
X23300Y2650
X23300Y1650
X23300Y18700
X23300Y19700
X22300Y19700
X21300Y19700
X21300Y18700
X22300Y18700
X20300Y18700
X19300Y18700
X19300Y19700
X20300Y19700
X18300Y19700
X18300Y18700
X17300Y18700
X16300Y18700
X16300Y19700
X17300Y19700
X15300Y19700
X14300Y19700
X14300Y18700
X15300Y18700
X13300Y18700
X12300Y18700
X12300Y19700
X13300Y19700
X11300Y19700
X11300Y18700
X10300Y18700
X9300Y18700
X9300Y19700
X10300Y19700
X8300Y19700
X7300Y19700
X7300Y18700
X8300Y18700
X6300Y18700
X6300Y19700
X5300Y19700
X4300Y19700
X4300Y18700
X5300Y18700
X15300Y24500
X15300Y25500
X16300Y25500
X17300Y25500
X17300Y24500
X16300Y24500
X18300Y24500
X18300Y25500
X19300Y25500
X20300Y25500
X20300Y24500
X19300Y24500
X21300Y24500
X22300Y24500
X22300Y25500
X21300Y25500
T04
X3194Y24366
X3194Y22634
T05
X6100Y26250
X7100Y26250
X8100Y26250
M30
