G75*
G70*
%OFA0B0*%
%FSLAX24Y24*%
%IPPOS*%
%LPD*%
%AMOC8*
5,1,8,0,0,1.08239X$1,22.5*
%
%ADD10R,0.0050X0.0010*%
%ADD11R,0.0070X0.0010*%
%ADD12R,0.0080X0.0010*%
%ADD13R,0.0100X0.0010*%
%ADD14R,0.0120X0.0010*%
%ADD15R,0.0140X0.0010*%
%ADD16R,0.0160X0.0010*%
%ADD17R,0.0170X0.0010*%
%ADD18R,0.0040X0.0010*%
%ADD19R,0.0180X0.0010*%
%ADD20R,0.0110X0.0010*%
%ADD21R,0.0190X0.0010*%
%ADD22R,0.0200X0.0010*%
%ADD23R,0.0130X0.0010*%
%ADD24R,0.0240X0.0010*%
%ADD25R,0.0230X0.0010*%
%ADD26R,0.0030X0.0010*%
%ADD27R,0.0060X0.0010*%
%ADD28R,0.0270X0.0010*%
%ADD29R,0.0250X0.0010*%
%ADD30R,0.0220X0.0010*%
%ADD31R,0.0020X0.0010*%
%ADD32R,0.0300X0.0010*%
%ADD33R,0.0260X0.0010*%
%ADD34R,0.0330X0.0010*%
%ADD35R,0.0290X0.0010*%
%ADD36R,0.0310X0.0010*%
%ADD37R,0.0350X0.0010*%
%ADD38R,0.0320X0.0010*%
%ADD39R,0.0090X0.0010*%
%ADD40R,0.0340X0.0010*%
%ADD41R,0.0370X0.0010*%
%ADD42R,0.0380X0.0010*%
%ADD43R,0.0390X0.0010*%
%ADD44R,0.0410X0.0010*%
%ADD45R,0.0430X0.0010*%
%ADD46R,0.0500X0.0010*%
%ADD47R,0.0150X0.0010*%
%ADD48R,0.0400X0.0010*%
%ADD49R,0.0450X0.0010*%
%ADD50R,0.0680X0.0010*%
%ADD51R,0.0440X0.0010*%
%ADD52R,0.0480X0.0010*%
%ADD53R,0.0420X0.0010*%
%ADD54R,0.0470X0.0010*%
%ADD55R,0.0360X0.0010*%
%ADD56R,0.0520X0.0010*%
%ADD57R,0.0540X0.0010*%
%ADD58R,0.0660X0.0010*%
%ADD59R,0.0550X0.0010*%
%ADD60R,0.0650X0.0010*%
%ADD61R,0.0560X0.0010*%
%ADD62R,0.0640X0.0010*%
%ADD63R,0.0580X0.0010*%
%ADD64R,0.0630X0.0010*%
%ADD65R,0.0590X0.0010*%
%ADD66R,0.0610X0.0010*%
%ADD67R,0.0600X0.0010*%
%ADD68R,0.0210X0.0010*%
%ADD69R,0.0280X0.0010*%
%ADD70R,0.0690X0.0010*%
%ADD71R,0.0510X0.0010*%
%ADD72R,0.0760X0.0010*%
%ADD73R,0.0770X0.0010*%
%ADD74R,0.0670X0.0010*%
%ADD75R,0.0780X0.0010*%
%ADD76R,0.0790X0.0010*%
%ADD77R,0.0800X0.0010*%
%ADD78R,0.0530X0.0010*%
%ADD79R,0.0810X0.0010*%
%ADD80R,0.0010X0.0010*%
%ADD81R,0.0460X0.0010*%
%ADD82R,0.0980X0.0010*%
%ADD83R,0.0970X0.0010*%
%ADD84R,0.0960X0.0010*%
%ADD85R,0.0940X0.0010*%
%ADD86R,0.0930X0.0010*%
%ADD87R,0.0920X0.0010*%
%ADD88R,0.0900X0.0010*%
%ADD89R,0.0880X0.0010*%
%ADD90R,0.0830X0.0010*%
%ADD91R,0.0740X0.0010*%
%ADD92R,0.0700X0.0010*%
%ADD93R,0.0570X0.0010*%
%ADD94R,0.3040X0.0010*%
%ADD95R,0.3190X0.0010*%
%ADD96R,0.3250X0.0010*%
%ADD97R,0.3310X0.0010*%
%ADD98R,0.3380X0.0010*%
%ADD99R,0.3430X0.0010*%
%ADD100R,0.3470X0.0010*%
%ADD101R,0.3500X0.0010*%
%ADD102R,0.3540X0.0010*%
%ADD103R,0.3570X0.0010*%
%ADD104R,0.3610X0.0010*%
%ADD105R,0.3640X0.0010*%
%ADD106R,0.3670X0.0010*%
%ADD107R,0.3690X0.0010*%
%ADD108R,0.3710X0.0010*%
%ADD109R,0.3740X0.0010*%
%ADD110R,0.3760X0.0010*%
%ADD111R,0.3790X0.0010*%
%ADD112R,0.3810X0.0010*%
%ADD113R,0.3830X0.0010*%
%ADD114R,0.3850X0.0010*%
%ADD115R,0.3870X0.0010*%
%ADD116R,0.3880X0.0010*%
%ADD117R,0.3900X0.0010*%
%ADD118R,0.3920X0.0010*%
%ADD119R,0.2730X0.0010*%
%ADD120R,0.2840X0.0010*%
%ADD121R,0.2900X0.0010*%
%ADD122R,0.2930X0.0010*%
%ADD123R,0.2960X0.0010*%
%ADD124R,0.3000X0.0010*%
%ADD125R,0.3020X0.0010*%
%ADD126R,0.3050X0.0010*%
%ADD127R,0.3070X0.0010*%
%ADD128R,0.3080X0.0010*%
%ADD129R,0.3100X0.0010*%
%ADD130R,0.3110X0.0010*%
%ADD131R,0.3120X0.0010*%
%ADD132R,0.3130X0.0010*%
%ADD133R,0.3140X0.0010*%
%ADD134R,0.3090X0.0010*%
%ADD135R,0.3060X0.0010*%
%ADD136R,0.3030X0.0010*%
%ADD137R,0.3010X0.0010*%
%ADD138R,0.2980X0.0010*%
%ADD139R,0.2940X0.0010*%
%ADD140R,0.2910X0.0010*%
%ADD141R,0.2870X0.0010*%
%ADD142R,0.2770X0.0010*%
%ADD143R,0.1580X0.0010*%
%ADD144R,0.1640X0.0010*%
%ADD145R,0.0490X0.0010*%
%ADD146R,0.1660X0.0010*%
%ADD147R,0.1690X0.0010*%
%ADD148R,0.1700X0.0010*%
%ADD149R,0.1720X0.0010*%
%ADD150R,0.1730X0.0010*%
%ADD151R,0.1740X0.0010*%
%ADD152R,0.1710X0.0010*%
%ADD153R,0.1680X0.0010*%
%ADD154R,0.1650X0.0010*%
%ADD155R,0.1620X0.0010*%
%ADD156R,0.1010X0.0010*%
%ADD157R,0.1070X0.0010*%
%ADD158R,0.1080X0.0010*%
%ADD159R,0.1110X0.0010*%
%ADD160R,0.1100X0.0010*%
%ADD161R,0.1130X0.0010*%
%ADD162R,0.1120X0.0010*%
%ADD163R,0.1150X0.0010*%
%ADD164R,0.1140X0.0010*%
%ADD165R,0.1160X0.0010*%
%ADD166R,0.1170X0.0010*%
%ADD167R,0.1180X0.0010*%
%ADD168R,0.1190X0.0010*%
%ADD169R,0.1090X0.0010*%
%ADD170R,0.1000X0.0010*%
%ADD171R,0.1610X0.0010*%
%ADD172R,0.1670X0.0010*%
%ADD173R,0.1750X0.0010*%
%ADD174R,0.1590X0.0010*%
%ADD175R,0.2780X0.0010*%
%ADD176R,0.2880X0.0010*%
%ADD177R,0.2950X0.0010*%
%ADD178R,0.2890X0.0010*%
%ADD179R,0.2830X0.0010*%
%ADD180R,0.3910X0.0010*%
%ADD181R,0.3780X0.0010*%
%ADD182R,0.3530X0.0010*%
%ADD183R,0.3460X0.0010*%
%ADD184R,0.3370X0.0010*%
%ADD185C,0.0160*%
%ADD186C,0.0060*%
%ADD187C,0.0050*%
%ADD188C,0.0080*%
%ADD189C,0.0120*%
%ADD190C,0.0020*%
D10*
X011180Y009550D03*
X011930Y008850D03*
X012520Y008630D03*
X014520Y009210D03*
X014790Y009390D03*
X014980Y009250D03*
X015490Y009860D03*
X016340Y009490D03*
X015500Y008470D03*
D11*
X015500Y008480D03*
X014770Y008820D03*
X014520Y009200D03*
X014790Y009400D03*
X014990Y009240D03*
X015550Y009580D03*
X016330Y009790D03*
X016340Y009820D03*
X016330Y009860D03*
X014080Y009850D03*
X013520Y009890D03*
X012130Y008700D03*
X011520Y009770D03*
D12*
X012515Y008650D03*
X014205Y008780D03*
X014525Y009190D03*
X014615Y009350D03*
X014995Y009230D03*
X014985Y008660D03*
X015495Y008490D03*
X016075Y009450D03*
X016325Y009770D03*
X016325Y009780D03*
X016335Y009800D03*
X016335Y009810D03*
X015495Y009870D03*
X013265Y011710D03*
D13*
X014085Y009830D03*
X014525Y009170D03*
X014525Y009160D03*
X014525Y009150D03*
X014515Y009120D03*
X014445Y008900D03*
X014205Y008770D03*
X014205Y008760D03*
X014755Y008810D03*
X014985Y008680D03*
X015005Y009210D03*
X015565Y009570D03*
X015835Y009630D03*
X015845Y009620D03*
X015845Y009570D03*
X016085Y009460D03*
X016295Y009700D03*
X016295Y009710D03*
X016305Y009720D03*
X016315Y009740D03*
X016055Y008630D03*
X015495Y008500D03*
X012515Y008660D03*
X012305Y009130D03*
X011195Y009560D03*
X011285Y013830D03*
X016405Y013830D03*
D14*
X016405Y012610D03*
X016405Y012420D03*
X016405Y011710D03*
X016405Y011010D03*
X016295Y009880D03*
X016255Y009640D03*
X016245Y009630D03*
X016235Y009610D03*
X016225Y009600D03*
X015985Y009850D03*
X015735Y009880D03*
X015725Y009860D03*
X015415Y009380D03*
X015005Y009190D03*
X015005Y009180D03*
X015005Y009170D03*
X015005Y009160D03*
X015005Y009150D03*
X015005Y009140D03*
X015005Y009130D03*
X015005Y009120D03*
X014985Y008700D03*
X014985Y008690D03*
X015495Y008520D03*
X015495Y008510D03*
X016415Y009080D03*
X016415Y009090D03*
X016415Y009100D03*
X014435Y008790D03*
X014435Y008780D03*
X014195Y008750D03*
X013995Y009240D03*
X014005Y009280D03*
X014005Y009290D03*
X014015Y009330D03*
X014025Y009380D03*
X014085Y009800D03*
X014085Y009810D03*
X013525Y009860D03*
X013485Y009590D03*
X013485Y009580D03*
X013475Y009540D03*
X013475Y009530D03*
X013475Y009520D03*
X013465Y009480D03*
X013465Y009470D03*
X013465Y009460D03*
X013455Y009420D03*
X013455Y009410D03*
X013455Y009400D03*
X013445Y009350D03*
X013225Y009330D03*
X013215Y009360D03*
X013215Y009370D03*
X013205Y009380D03*
X013205Y009390D03*
X013225Y009290D03*
X013225Y009280D03*
X013415Y009100D03*
X013405Y008990D03*
X013405Y008980D03*
X013405Y008970D03*
X013405Y008960D03*
X013405Y008950D03*
X013405Y008940D03*
X013405Y008930D03*
X013405Y008920D03*
X013405Y008910D03*
X013405Y008900D03*
X013405Y008890D03*
X012515Y008680D03*
X011285Y011710D03*
X011285Y012420D03*
X011285Y012610D03*
X013845Y012410D03*
X013845Y011910D03*
D15*
X013265Y011210D03*
X013505Y009720D03*
X013505Y009710D03*
X013505Y009700D03*
X013505Y009690D03*
X013495Y009640D03*
X013175Y009440D03*
X013165Y009450D03*
X013155Y009460D03*
X013215Y009260D03*
X013205Y009250D03*
X013415Y008840D03*
X013415Y008830D03*
X013425Y008810D03*
X013425Y008800D03*
X013965Y008790D03*
X013965Y008780D03*
X013955Y009070D03*
X013955Y009080D03*
X013965Y009100D03*
X013965Y009110D03*
X013965Y009120D03*
X013975Y009150D03*
X014035Y009430D03*
X014045Y009470D03*
X014045Y009480D03*
X014045Y009490D03*
X014055Y009520D03*
X014055Y009530D03*
X014055Y009540D03*
X014055Y009550D03*
X014065Y009560D03*
X014065Y009570D03*
X014065Y009580D03*
X014065Y009590D03*
X014075Y009630D03*
X014075Y009640D03*
X014085Y009750D03*
X014085Y009760D03*
X014085Y009770D03*
X014665Y009530D03*
X014635Y009390D03*
X015155Y009120D03*
X015165Y009130D03*
X015565Y009200D03*
X015575Y009190D03*
X015575Y009180D03*
X015585Y009160D03*
X015605Y009060D03*
X015605Y008890D03*
X015585Y008760D03*
X015575Y008730D03*
X015495Y008540D03*
X015495Y008530D03*
X016395Y008960D03*
X016405Y008980D03*
X016405Y008990D03*
X016405Y009000D03*
X016415Y009050D03*
X016405Y009140D03*
X016395Y009160D03*
X016395Y009170D03*
X016385Y009180D03*
X016315Y009510D03*
X016105Y009490D03*
X015815Y009650D03*
X015695Y009830D03*
X015705Y009840D03*
X015715Y009850D03*
X016405Y010500D03*
X016405Y011200D03*
X016405Y011910D03*
X016405Y013120D03*
X014415Y013110D03*
X011285Y013120D03*
X011285Y011910D03*
X011285Y011200D03*
X011285Y010500D03*
X012125Y009480D03*
X012135Y009460D03*
X012135Y009390D03*
X012565Y009530D03*
X012565Y009540D03*
X012565Y009550D03*
X012565Y009560D03*
X012565Y009570D03*
X012565Y009580D03*
X012575Y009620D03*
X012575Y009630D03*
X012575Y009640D03*
X012575Y009650D03*
X012575Y009660D03*
X012585Y009720D03*
X012585Y009730D03*
X012585Y009740D03*
X012585Y009750D03*
X012525Y008710D03*
D16*
X012535Y008750D03*
X012535Y008760D03*
X012535Y008770D03*
X012565Y009400D03*
X012565Y009410D03*
X012565Y009420D03*
X012565Y009430D03*
X012565Y009440D03*
X012565Y009450D03*
X012565Y009460D03*
X012565Y009470D03*
X012565Y009480D03*
X012565Y009490D03*
X012115Y009490D03*
X012125Y009370D03*
X013105Y009510D03*
X013115Y009500D03*
X013515Y009760D03*
X013945Y009030D03*
X013945Y009020D03*
X013935Y009000D03*
X013985Y008750D03*
X013435Y008770D03*
X014735Y008790D03*
X014995Y008770D03*
X014995Y008760D03*
X015195Y009170D03*
X015205Y009180D03*
X015215Y009190D03*
X015595Y009560D03*
X015615Y009760D03*
X015645Y009790D03*
X015655Y009800D03*
X015795Y009660D03*
X016115Y009500D03*
X016215Y009580D03*
X016365Y009200D03*
X016385Y008940D03*
X016385Y008930D03*
X016375Y008920D03*
X015885Y008880D03*
X015885Y008870D03*
X015875Y008810D03*
X015875Y008800D03*
X015555Y008710D03*
X015495Y008560D03*
X015495Y008550D03*
X013265Y011700D03*
X014415Y012620D03*
X016405Y013320D03*
X016405Y013820D03*
X011285Y013820D03*
X011285Y013320D03*
D17*
X012630Y009900D03*
X013100Y009520D03*
X013190Y009240D03*
X013450Y008760D03*
X013930Y008980D03*
X013930Y008990D03*
X013940Y009010D03*
X014110Y008610D03*
X014650Y009410D03*
X014670Y009520D03*
X015000Y008800D03*
X015000Y008790D03*
X015000Y008780D03*
X015500Y008580D03*
X015500Y008570D03*
X015540Y008680D03*
X015550Y008700D03*
X015890Y008890D03*
X015550Y009220D03*
X015620Y009770D03*
X015630Y009780D03*
X016180Y009360D03*
X016360Y009210D03*
X016370Y008910D03*
X016360Y008900D03*
X016360Y008890D03*
X016350Y008880D03*
X012540Y008800D03*
X012540Y008790D03*
X012540Y008780D03*
X012570Y009380D03*
X012570Y009390D03*
X012120Y009360D03*
X012110Y009500D03*
X011220Y009570D03*
D18*
X013265Y011200D03*
X013525Y009900D03*
X014075Y009860D03*
X014515Y009220D03*
X014785Y008830D03*
X014205Y008810D03*
X014115Y008590D03*
X014415Y013120D03*
D19*
X013845Y012400D03*
X011285Y012410D03*
X011285Y012620D03*
X011285Y011700D03*
X012635Y009890D03*
X013075Y009540D03*
X013085Y009530D03*
X012565Y009370D03*
X012565Y009360D03*
X012115Y009350D03*
X012105Y009340D03*
X012095Y009510D03*
X012545Y008840D03*
X012545Y008830D03*
X012545Y008820D03*
X012545Y008810D03*
X013785Y008790D03*
X013795Y008800D03*
X013925Y008960D03*
X013925Y008970D03*
X014515Y008630D03*
X015005Y008810D03*
X015005Y008820D03*
X015005Y008830D03*
X015225Y009200D03*
X015235Y009210D03*
X015415Y009370D03*
X015905Y008920D03*
X015905Y008910D03*
X015895Y008900D03*
X015545Y008690D03*
X015535Y008670D03*
X015505Y008600D03*
X015505Y008590D03*
X015625Y009750D03*
X016405Y011700D03*
X016405Y012410D03*
X016405Y012620D03*
D20*
X015730Y009870D03*
X015510Y009880D03*
X015830Y009640D03*
X015830Y009560D03*
X016090Y009470D03*
X016240Y009620D03*
X016260Y009650D03*
X016270Y009660D03*
X016280Y009670D03*
X016280Y009680D03*
X016290Y009690D03*
X015010Y009200D03*
X014620Y009370D03*
X014520Y009140D03*
X014520Y009130D03*
X014510Y009110D03*
X014510Y009100D03*
X014510Y009090D03*
X014500Y009080D03*
X014500Y009070D03*
X014500Y009060D03*
X014490Y009050D03*
X014490Y009040D03*
X014490Y009030D03*
X014480Y009020D03*
X014480Y009010D03*
X014480Y009000D03*
X014470Y008990D03*
X014470Y008980D03*
X014470Y008970D03*
X014460Y008960D03*
X014460Y008950D03*
X014460Y008940D03*
X014450Y008930D03*
X014450Y008920D03*
X014450Y008910D03*
X014440Y008890D03*
X014440Y008880D03*
X014440Y008870D03*
X014440Y008860D03*
X014430Y008850D03*
X014430Y008840D03*
X014430Y008830D03*
X014430Y008820D03*
X014430Y008810D03*
X014430Y008800D03*
X014110Y008600D03*
X013540Y008610D03*
X013230Y009300D03*
X013230Y009310D03*
X013230Y009320D03*
X013220Y009340D03*
X013220Y009350D03*
X013520Y009870D03*
X014080Y009820D03*
X012520Y008670D03*
D21*
X012550Y008850D03*
X012550Y008860D03*
X012550Y008870D03*
X012550Y008880D03*
X012550Y008890D03*
X012550Y008900D03*
X012550Y008910D03*
X012570Y009350D03*
X012100Y009330D03*
X011630Y008880D03*
X011620Y008860D03*
X011610Y008850D03*
X011600Y008840D03*
X011620Y008660D03*
X013050Y009560D03*
X013060Y009550D03*
X013770Y008780D03*
X013920Y008940D03*
X013920Y008950D03*
X013550Y008620D03*
X014720Y008780D03*
X015010Y008840D03*
X015010Y008850D03*
X015010Y008860D03*
X015510Y008630D03*
X015510Y008620D03*
X015510Y008610D03*
X015520Y008640D03*
X015520Y008650D03*
X015530Y008660D03*
X015910Y008930D03*
X016060Y008640D03*
X016330Y008860D03*
X016340Y008870D03*
X016340Y009220D03*
X016130Y009510D03*
X015770Y009670D03*
X013840Y011920D03*
D22*
X013265Y011220D03*
X012635Y009880D03*
X012995Y009600D03*
X013025Y009580D03*
X013035Y009570D03*
X013035Y009100D03*
X012565Y009100D03*
X012565Y009110D03*
X012565Y009120D03*
X012565Y009130D03*
X012565Y009090D03*
X012565Y009080D03*
X012565Y009070D03*
X012555Y009020D03*
X012555Y009010D03*
X012555Y009000D03*
X012555Y008990D03*
X012555Y008980D03*
X012555Y008970D03*
X012555Y008960D03*
X012555Y008950D03*
X012555Y008940D03*
X012555Y008930D03*
X012555Y008920D03*
X012085Y009520D03*
X011645Y008900D03*
X011635Y008890D03*
X011625Y008870D03*
X011285Y010510D03*
X011285Y011000D03*
X011285Y011210D03*
X011285Y011920D03*
X011285Y013110D03*
X013915Y008930D03*
X013915Y008920D03*
X014115Y008620D03*
X015015Y008870D03*
X015015Y008880D03*
X015015Y008890D03*
X015255Y009220D03*
X015525Y009230D03*
X016045Y009200D03*
X016045Y009190D03*
X016045Y009180D03*
X016325Y008850D03*
X016005Y009870D03*
X016155Y009960D03*
X015605Y009960D03*
X016405Y010510D03*
X016405Y011000D03*
X016405Y011210D03*
X016405Y011920D03*
X016405Y013110D03*
D23*
X015600Y009970D03*
X016100Y009480D03*
X016210Y009590D03*
X016400Y009150D03*
X016410Y009130D03*
X016410Y009120D03*
X016410Y009110D03*
X016420Y009070D03*
X016420Y009060D03*
X016410Y009040D03*
X016410Y009030D03*
X016410Y009020D03*
X016410Y009010D03*
X015610Y009010D03*
X015610Y009020D03*
X015610Y009030D03*
X015610Y009040D03*
X015610Y009050D03*
X015600Y009070D03*
X015600Y009080D03*
X015600Y009090D03*
X015600Y009100D03*
X015600Y009110D03*
X015600Y009120D03*
X015590Y009130D03*
X015590Y009140D03*
X015590Y009150D03*
X015580Y009170D03*
X015610Y009000D03*
X015610Y008990D03*
X015610Y008980D03*
X015610Y008970D03*
X015610Y008960D03*
X015610Y008950D03*
X015610Y008940D03*
X015610Y008930D03*
X015610Y008920D03*
X015610Y008910D03*
X015610Y008900D03*
X015600Y008880D03*
X015600Y008870D03*
X015600Y008860D03*
X015600Y008850D03*
X015600Y008840D03*
X015600Y008830D03*
X015600Y008820D03*
X015600Y008810D03*
X015590Y008800D03*
X015590Y008790D03*
X015590Y008780D03*
X015590Y008770D03*
X015580Y008750D03*
X015580Y008740D03*
X014990Y008720D03*
X014990Y008710D03*
X014750Y008800D03*
X014510Y008620D03*
X013960Y008800D03*
X013420Y008820D03*
X013410Y008850D03*
X013410Y008860D03*
X013410Y008870D03*
X013410Y008880D03*
X013410Y009000D03*
X013410Y009010D03*
X013410Y009020D03*
X013410Y009030D03*
X013410Y009040D03*
X013410Y009050D03*
X013410Y009060D03*
X013410Y009070D03*
X013410Y009080D03*
X013410Y009090D03*
X013420Y009110D03*
X013420Y009120D03*
X013420Y009130D03*
X013420Y009140D03*
X013420Y009150D03*
X013420Y009160D03*
X013420Y009170D03*
X013420Y009180D03*
X013420Y009190D03*
X013430Y009200D03*
X013430Y009210D03*
X013430Y009220D03*
X013430Y009230D03*
X013430Y009240D03*
X013430Y009250D03*
X013430Y009260D03*
X013430Y009270D03*
X013440Y009280D03*
X013440Y009290D03*
X013440Y009300D03*
X013440Y009310D03*
X013440Y009320D03*
X013440Y009330D03*
X013440Y009340D03*
X013450Y009360D03*
X013450Y009370D03*
X013450Y009380D03*
X013450Y009390D03*
X013460Y009430D03*
X013460Y009440D03*
X013460Y009450D03*
X013470Y009490D03*
X013470Y009500D03*
X013470Y009510D03*
X013480Y009550D03*
X013480Y009560D03*
X013480Y009570D03*
X013490Y009600D03*
X013490Y009610D03*
X013490Y009620D03*
X013490Y009630D03*
X013500Y009650D03*
X013500Y009660D03*
X013500Y009670D03*
X013500Y009680D03*
X013520Y009840D03*
X013520Y009850D03*
X013180Y009430D03*
X013190Y009420D03*
X013190Y009410D03*
X013200Y009400D03*
X013220Y009270D03*
X012580Y009670D03*
X012580Y009680D03*
X012580Y009690D03*
X012580Y009700D03*
X012580Y009710D03*
X012590Y009760D03*
X012570Y009610D03*
X012570Y009600D03*
X012570Y009590D03*
X012630Y009920D03*
X012140Y009450D03*
X012140Y009440D03*
X012140Y009430D03*
X012140Y009420D03*
X012140Y009410D03*
X012140Y009400D03*
X012520Y008700D03*
X012520Y008690D03*
X011600Y008650D03*
X011290Y011010D03*
X013970Y009140D03*
X013970Y009130D03*
X013980Y009160D03*
X013980Y009170D03*
X013980Y009180D03*
X013980Y009190D03*
X013990Y009200D03*
X013990Y009210D03*
X013990Y009220D03*
X013990Y009230D03*
X014000Y009250D03*
X014000Y009260D03*
X014000Y009270D03*
X014010Y009300D03*
X014010Y009310D03*
X014010Y009320D03*
X014020Y009340D03*
X014020Y009350D03*
X014020Y009360D03*
X014020Y009370D03*
X014030Y009390D03*
X014030Y009400D03*
X014030Y009410D03*
X014030Y009420D03*
X014040Y009440D03*
X014040Y009450D03*
X014040Y009460D03*
X014050Y009500D03*
X014050Y009510D03*
X014090Y009780D03*
X014090Y009790D03*
X014630Y009380D03*
D24*
X014685Y009490D03*
X015055Y009030D03*
X015045Y009010D03*
X015045Y009000D03*
X015605Y009950D03*
X016045Y009130D03*
X015965Y009000D03*
X015955Y008990D03*
X016285Y008820D03*
X016405Y010520D03*
X016405Y010990D03*
X016405Y011220D03*
X016405Y011930D03*
X016405Y012630D03*
X016405Y013100D03*
X014415Y013090D03*
X013265Y011230D03*
X012655Y009850D03*
X012845Y009710D03*
X012595Y009320D03*
X012065Y009290D03*
X011785Y009030D03*
X011775Y009020D03*
X011285Y010520D03*
X011285Y010990D03*
X011285Y011220D03*
X011285Y011690D03*
X011285Y011930D03*
X011285Y012630D03*
X011285Y013100D03*
X013895Y008870D03*
X013895Y008860D03*
X013555Y008630D03*
D25*
X013900Y008880D03*
X014110Y008630D03*
X015040Y008970D03*
X015040Y008980D03*
X015040Y008990D03*
X015660Y009730D03*
X016030Y009880D03*
X016070Y009220D03*
X016050Y009140D03*
X015950Y008980D03*
X015940Y008970D03*
X016300Y008830D03*
X016400Y011690D03*
X013840Y011930D03*
X013840Y012390D03*
X012650Y009860D03*
X012800Y009750D03*
X012810Y009740D03*
X012820Y009730D03*
X012830Y009720D03*
X012860Y009700D03*
X012870Y009690D03*
X012890Y009680D03*
X012900Y009670D03*
X012910Y009660D03*
X012930Y009650D03*
X012050Y009540D03*
X011760Y009010D03*
X011750Y009000D03*
X011740Y008990D03*
D26*
X011570Y008640D03*
X012150Y008690D03*
X014510Y009230D03*
X014660Y009550D03*
X014970Y009260D03*
X016070Y009430D03*
D27*
X016075Y009440D03*
X015965Y009830D03*
X016335Y009830D03*
X016335Y009840D03*
X016335Y009850D03*
X014985Y008650D03*
X014615Y009340D03*
X014205Y008800D03*
X014205Y008790D03*
X012515Y008640D03*
X012335Y009120D03*
X011285Y013310D03*
X016405Y013310D03*
D28*
X015810Y013740D03*
X015800Y013770D03*
X015800Y013780D03*
X015790Y013790D03*
X015790Y013800D03*
X013840Y012380D03*
X013840Y011940D03*
X011870Y010600D03*
X011870Y010590D03*
X011880Y010560D03*
X011890Y010540D03*
X011890Y010530D03*
X011900Y010520D03*
X011900Y010510D03*
X012670Y009830D03*
X012610Y009300D03*
X013560Y008640D03*
X013880Y008830D03*
X014110Y008650D03*
X014530Y008650D03*
X015070Y009080D03*
X015070Y009090D03*
X014700Y009450D03*
X014700Y009460D03*
X015610Y009940D03*
X015700Y009700D03*
X015700Y009500D03*
X016150Y009950D03*
X015780Y010500D03*
X015790Y010520D03*
X015790Y010530D03*
X015800Y010540D03*
X015800Y010550D03*
X015810Y010580D03*
X016030Y009100D03*
X016020Y009080D03*
X016010Y009060D03*
X016000Y009050D03*
X016000Y009040D03*
X015990Y009030D03*
X011870Y013720D03*
X011870Y013730D03*
X011880Y013760D03*
X011890Y013780D03*
X011890Y013790D03*
X011900Y013800D03*
X011900Y013810D03*
D29*
X011860Y013680D03*
X011860Y013670D03*
X011860Y013660D03*
X011860Y013650D03*
X011850Y013600D03*
X011850Y013590D03*
X011850Y013580D03*
X011850Y013570D03*
X011850Y013560D03*
X011850Y013550D03*
X011850Y013540D03*
X011850Y013530D03*
X011850Y013520D03*
X011850Y013510D03*
X011850Y013500D03*
X011850Y013490D03*
X011850Y013480D03*
X011850Y013470D03*
X011850Y013460D03*
X011850Y013450D03*
X011850Y013440D03*
X011850Y013430D03*
X011850Y013420D03*
X011850Y013410D03*
X011850Y013400D03*
X011850Y013390D03*
X011850Y013380D03*
X011850Y013370D03*
X011850Y013360D03*
X011850Y013350D03*
X011850Y013340D03*
X011850Y013330D03*
X011850Y013320D03*
X011850Y013310D03*
X011850Y013300D03*
X011850Y013290D03*
X011850Y013280D03*
X011850Y013270D03*
X011850Y013260D03*
X011850Y013250D03*
X011850Y013240D03*
X011850Y013230D03*
X011850Y013220D03*
X011850Y013210D03*
X011850Y013200D03*
X011850Y013190D03*
X011850Y013180D03*
X011850Y013170D03*
X011850Y013160D03*
X011850Y013150D03*
X011850Y013140D03*
X011850Y013130D03*
X011850Y013120D03*
X011850Y013110D03*
X011850Y013100D03*
X011850Y013090D03*
X011850Y013080D03*
X011850Y013070D03*
X011850Y013060D03*
X011850Y013050D03*
X011850Y013040D03*
X011850Y013030D03*
X011850Y013020D03*
X011850Y013010D03*
X011850Y013000D03*
X011850Y012990D03*
X011850Y012980D03*
X011850Y012970D03*
X011850Y012960D03*
X011850Y012950D03*
X011850Y012940D03*
X011850Y012930D03*
X011850Y012920D03*
X011850Y012910D03*
X011850Y012900D03*
X011850Y012890D03*
X011850Y012880D03*
X011850Y012870D03*
X011850Y012860D03*
X011850Y012850D03*
X011850Y012840D03*
X011850Y012830D03*
X011850Y012820D03*
X011850Y012810D03*
X011850Y012800D03*
X011850Y012790D03*
X011850Y012780D03*
X011850Y012770D03*
X011850Y012760D03*
X011850Y012750D03*
X011850Y012740D03*
X011850Y012730D03*
X011850Y012720D03*
X011850Y012710D03*
X011850Y012700D03*
X011850Y012690D03*
X011850Y012680D03*
X011850Y012670D03*
X011850Y012660D03*
X011850Y012650D03*
X011850Y012640D03*
X011850Y012630D03*
X011850Y012620D03*
X011850Y012610D03*
X011850Y012600D03*
X011850Y012590D03*
X011850Y012580D03*
X011850Y012570D03*
X011850Y012560D03*
X011850Y012550D03*
X011850Y012540D03*
X011850Y012530D03*
X011850Y012520D03*
X011850Y012510D03*
X011850Y012500D03*
X011850Y012490D03*
X011850Y012480D03*
X011850Y012470D03*
X011850Y012460D03*
X011850Y012450D03*
X011850Y012440D03*
X011850Y012430D03*
X011850Y012420D03*
X011850Y012410D03*
X011850Y012400D03*
X011850Y012390D03*
X011850Y012380D03*
X011850Y012370D03*
X011850Y012360D03*
X011850Y012350D03*
X011850Y012340D03*
X011850Y012330D03*
X011850Y012320D03*
X011850Y012310D03*
X011850Y012300D03*
X011850Y012290D03*
X011850Y012280D03*
X011850Y012270D03*
X011850Y012260D03*
X011850Y012250D03*
X011850Y012240D03*
X011850Y012230D03*
X011850Y012220D03*
X011850Y012210D03*
X011850Y012200D03*
X011850Y012190D03*
X011850Y012180D03*
X011850Y012170D03*
X011850Y012160D03*
X011850Y012150D03*
X011850Y012140D03*
X011850Y012130D03*
X011850Y012120D03*
X011850Y012110D03*
X011850Y012100D03*
X011850Y012090D03*
X011850Y012080D03*
X011850Y012070D03*
X011850Y012060D03*
X011850Y012050D03*
X011850Y012040D03*
X011850Y012030D03*
X011850Y012020D03*
X011850Y012010D03*
X011850Y012000D03*
X011850Y011990D03*
X011850Y011980D03*
X011850Y011970D03*
X011850Y011960D03*
X011850Y011950D03*
X011850Y011940D03*
X011850Y011930D03*
X011850Y011920D03*
X011850Y011910D03*
X011850Y011900D03*
X011850Y011890D03*
X011850Y011880D03*
X011850Y011870D03*
X011850Y011860D03*
X011850Y011850D03*
X011850Y011840D03*
X011850Y011830D03*
X011850Y011820D03*
X011850Y011810D03*
X011850Y011800D03*
X011850Y011790D03*
X011850Y011780D03*
X011850Y011770D03*
X011850Y011760D03*
X011850Y011750D03*
X011850Y011740D03*
X011850Y011730D03*
X011850Y011720D03*
X011850Y011710D03*
X011850Y011700D03*
X011850Y011690D03*
X011850Y011680D03*
X011850Y011670D03*
X011850Y011660D03*
X011850Y011650D03*
X011850Y011640D03*
X011850Y011630D03*
X011850Y011620D03*
X011850Y011610D03*
X011850Y011600D03*
X011850Y011590D03*
X011850Y011580D03*
X011850Y011570D03*
X011850Y011560D03*
X011850Y011550D03*
X011850Y011540D03*
X011850Y011530D03*
X011850Y011520D03*
X011850Y011510D03*
X011850Y011500D03*
X011850Y011490D03*
X011850Y011480D03*
X011850Y011470D03*
X011850Y011460D03*
X011850Y011450D03*
X011850Y011440D03*
X011850Y011430D03*
X011850Y011420D03*
X011850Y011410D03*
X011850Y011400D03*
X011850Y011390D03*
X011850Y011380D03*
X011850Y011370D03*
X011850Y011360D03*
X011850Y011350D03*
X011850Y011340D03*
X011850Y011330D03*
X011850Y011320D03*
X011850Y011310D03*
X011850Y011300D03*
X011850Y011290D03*
X011850Y011280D03*
X011850Y011270D03*
X011850Y011260D03*
X011850Y011250D03*
X011850Y011240D03*
X011850Y011230D03*
X011850Y011220D03*
X011850Y011210D03*
X011850Y011200D03*
X011850Y011190D03*
X011850Y011180D03*
X011850Y011170D03*
X011850Y011160D03*
X011850Y011150D03*
X011850Y011140D03*
X011850Y011130D03*
X011850Y011120D03*
X011850Y011110D03*
X011850Y011100D03*
X011850Y011090D03*
X011850Y011080D03*
X011850Y011070D03*
X011850Y011060D03*
X011850Y011050D03*
X011850Y011040D03*
X011850Y011030D03*
X011850Y011020D03*
X011850Y011010D03*
X011850Y011000D03*
X011850Y010990D03*
X011850Y010980D03*
X011850Y010970D03*
X011850Y010960D03*
X011850Y010950D03*
X011850Y010940D03*
X011850Y010930D03*
X011850Y010920D03*
X011850Y010910D03*
X011850Y010900D03*
X011850Y010890D03*
X011850Y010880D03*
X011850Y010870D03*
X011850Y010860D03*
X011850Y010850D03*
X011850Y010840D03*
X011850Y010830D03*
X011850Y010820D03*
X011850Y010810D03*
X011850Y010800D03*
X011850Y010790D03*
X011850Y010780D03*
X011850Y010770D03*
X011850Y010760D03*
X011850Y010750D03*
X011850Y010740D03*
X011850Y010730D03*
X011850Y010720D03*
X011860Y010670D03*
X011860Y010660D03*
X011860Y010650D03*
X011860Y010640D03*
X012660Y009840D03*
X012600Y009310D03*
X011810Y009050D03*
X011800Y009040D03*
X011640Y008670D03*
X013730Y008760D03*
X013890Y008850D03*
X014110Y008640D03*
X015050Y009020D03*
X015060Y009040D03*
X015060Y009050D03*
X015410Y009350D03*
X015720Y009690D03*
X015670Y009720D03*
X016240Y009560D03*
X016040Y009120D03*
X014690Y009480D03*
X015820Y010630D03*
X015830Y010680D03*
X015830Y010690D03*
X015830Y010700D03*
X015830Y010710D03*
X015830Y010720D03*
X015830Y010730D03*
X015830Y010740D03*
X015830Y010750D03*
X015830Y010760D03*
X015830Y010770D03*
X015830Y010780D03*
X015830Y010790D03*
X015830Y010800D03*
X015830Y010810D03*
X015830Y010820D03*
X015830Y010830D03*
X015830Y010840D03*
X015830Y010850D03*
X015830Y010860D03*
X015830Y010870D03*
X015830Y010880D03*
X015830Y010890D03*
X015830Y010900D03*
X015830Y010910D03*
X015830Y010920D03*
X015830Y010930D03*
X015830Y010940D03*
X015830Y010950D03*
X015830Y010960D03*
X015830Y010970D03*
X015830Y010980D03*
X015830Y010990D03*
X015830Y011000D03*
X015830Y011010D03*
X015830Y011020D03*
X015830Y011030D03*
X015830Y011040D03*
X015830Y011050D03*
X015830Y011060D03*
X015830Y011070D03*
X015830Y011080D03*
X015830Y011090D03*
X015830Y011100D03*
X015830Y011110D03*
X015830Y011120D03*
X015830Y011130D03*
X015830Y011140D03*
X015830Y011150D03*
X015830Y011160D03*
X015830Y011170D03*
X015830Y011180D03*
X015830Y011190D03*
X015830Y011200D03*
X015830Y011210D03*
X015830Y011220D03*
X015830Y011230D03*
X015830Y011240D03*
X015830Y011250D03*
X015830Y011260D03*
X015830Y011270D03*
X015830Y011280D03*
X015830Y011290D03*
X015830Y011300D03*
X015830Y011310D03*
X015830Y011320D03*
X015830Y011330D03*
X015830Y011340D03*
X015830Y011350D03*
X015830Y011360D03*
X015830Y011370D03*
X015830Y011380D03*
X015830Y011390D03*
X015830Y011400D03*
X015830Y011410D03*
X015830Y011420D03*
X015830Y011430D03*
X015830Y011440D03*
X015830Y011450D03*
X015830Y011460D03*
X015830Y011470D03*
X015830Y011480D03*
X015830Y011490D03*
X015830Y011500D03*
X015830Y011510D03*
X015830Y011520D03*
X015830Y011530D03*
X015830Y011540D03*
X015830Y011550D03*
X015830Y011560D03*
X015830Y011570D03*
X015830Y011580D03*
X015830Y011590D03*
X015830Y011600D03*
X015830Y011610D03*
X015830Y011620D03*
X015830Y011630D03*
X015830Y011640D03*
X015830Y011650D03*
X015830Y011660D03*
X015830Y011670D03*
X015830Y011680D03*
X015830Y011690D03*
X015830Y011700D03*
X015830Y011710D03*
X015830Y011720D03*
X015830Y011730D03*
X015830Y011740D03*
X015830Y011750D03*
X015830Y011760D03*
X015830Y011770D03*
X015830Y011780D03*
X015830Y011790D03*
X015830Y011800D03*
X015830Y011810D03*
X015830Y011820D03*
X015830Y011830D03*
X015830Y011840D03*
X015830Y011850D03*
X015830Y011860D03*
X015830Y011870D03*
X015830Y011880D03*
X015830Y011890D03*
X015830Y011900D03*
X015830Y011910D03*
X015830Y011920D03*
X015830Y011930D03*
X015830Y011940D03*
X015830Y011950D03*
X015830Y011960D03*
X015830Y011970D03*
X015830Y011980D03*
X015830Y011990D03*
X015830Y012000D03*
X015830Y012010D03*
X015830Y012020D03*
X015830Y012030D03*
X015830Y012040D03*
X015830Y012050D03*
X015830Y012060D03*
X015830Y012070D03*
X015830Y012080D03*
X015830Y012090D03*
X015830Y012100D03*
X015830Y012110D03*
X015830Y012120D03*
X015830Y012130D03*
X015830Y012140D03*
X015830Y012150D03*
X015830Y012160D03*
X015830Y012170D03*
X015830Y012180D03*
X015830Y012190D03*
X015830Y012200D03*
X015830Y012210D03*
X015830Y012220D03*
X015830Y012230D03*
X015830Y012240D03*
X015830Y012250D03*
X015830Y012260D03*
X015830Y012270D03*
X015830Y012280D03*
X015830Y012290D03*
X015830Y012300D03*
X015830Y012310D03*
X015830Y012320D03*
X015830Y012330D03*
X015830Y012340D03*
X015830Y012350D03*
X015830Y012360D03*
X015830Y012370D03*
X015830Y012380D03*
X015830Y012390D03*
X015830Y012400D03*
X015830Y012410D03*
X015830Y012420D03*
X015830Y012430D03*
X015830Y012440D03*
X015830Y012450D03*
X015830Y012460D03*
X015830Y012470D03*
X015830Y012480D03*
X015830Y012490D03*
X015830Y012500D03*
X015830Y012510D03*
X015830Y012520D03*
X015830Y012530D03*
X015830Y012540D03*
X015830Y012550D03*
X015830Y012560D03*
X015830Y012570D03*
X015830Y012580D03*
X015830Y012590D03*
X015830Y012600D03*
X015830Y012610D03*
X015830Y012620D03*
X015830Y012630D03*
X015830Y012640D03*
X015830Y012650D03*
X015830Y012660D03*
X015830Y012670D03*
X015830Y012680D03*
X015830Y012690D03*
X015830Y012700D03*
X015830Y012710D03*
X015830Y012720D03*
X015830Y012730D03*
X015830Y012740D03*
X015830Y012750D03*
X015830Y012760D03*
X015830Y012770D03*
X015830Y012780D03*
X015830Y012790D03*
X015830Y012800D03*
X015830Y012810D03*
X015830Y012820D03*
X015830Y012830D03*
X015830Y012840D03*
X015830Y012850D03*
X015830Y012860D03*
X015830Y012870D03*
X015830Y012880D03*
X015830Y012890D03*
X015830Y012900D03*
X015830Y012910D03*
X015830Y012920D03*
X015830Y012930D03*
X015830Y012940D03*
X015830Y012950D03*
X015830Y012960D03*
X015830Y012970D03*
X015830Y012980D03*
X015830Y012990D03*
X015830Y013000D03*
X015830Y013010D03*
X015830Y013020D03*
X015830Y013030D03*
X015830Y013040D03*
X015830Y013050D03*
X015830Y013060D03*
X015830Y013070D03*
X015830Y013080D03*
X015830Y013090D03*
X015830Y013100D03*
X015830Y013110D03*
X015830Y013120D03*
X015830Y013130D03*
X015830Y013140D03*
X015830Y013150D03*
X015830Y013160D03*
X015830Y013170D03*
X015830Y013180D03*
X015830Y013190D03*
X015830Y013200D03*
X015830Y013210D03*
X015830Y013220D03*
X015830Y013230D03*
X015830Y013240D03*
X015830Y013250D03*
X015830Y013260D03*
X015830Y013270D03*
X015830Y013280D03*
X015830Y013290D03*
X015830Y013300D03*
X015830Y013310D03*
X015830Y013320D03*
X015830Y013330D03*
X015830Y013340D03*
X015830Y013350D03*
X015830Y013360D03*
X015830Y013370D03*
X015830Y013380D03*
X015830Y013390D03*
X015830Y013400D03*
X015830Y013410D03*
X015830Y013420D03*
X015830Y013430D03*
X015830Y013440D03*
X015830Y013450D03*
X015830Y013460D03*
X015830Y013470D03*
X015830Y013480D03*
X015830Y013490D03*
X015830Y013500D03*
X015830Y013510D03*
X015830Y013520D03*
X015830Y013530D03*
X015830Y013540D03*
X015830Y013550D03*
X015830Y013560D03*
X015830Y013570D03*
X015830Y013580D03*
X015830Y013590D03*
X015830Y013600D03*
X015830Y013610D03*
X015830Y013620D03*
X015830Y013630D03*
X015830Y013640D03*
X015820Y013690D03*
X014420Y012640D03*
X013270Y011680D03*
D30*
X013265Y011690D03*
X012645Y009870D03*
X012785Y009760D03*
X012945Y009640D03*
X012955Y009630D03*
X012585Y009330D03*
X012085Y009310D03*
X012075Y009300D03*
X011725Y008980D03*
X011715Y008970D03*
X011705Y008960D03*
X011915Y008840D03*
X011245Y009580D03*
X013755Y008770D03*
X013905Y008890D03*
X013905Y008900D03*
X014525Y008640D03*
X014695Y008770D03*
X015025Y008920D03*
X015025Y008930D03*
X015035Y008950D03*
X015035Y008960D03*
X015275Y009230D03*
X015415Y009360D03*
X015705Y009490D03*
X016185Y009350D03*
X016235Y009570D03*
X015935Y008960D03*
X014685Y009500D03*
X016405Y012400D03*
X016405Y013330D03*
X016405Y013810D03*
X011285Y013810D03*
X011285Y013330D03*
X011285Y012400D03*
D31*
X011285Y011900D03*
X011285Y011190D03*
X011165Y009540D03*
X012355Y009110D03*
X013045Y009090D03*
X014995Y008640D03*
X015965Y009820D03*
X016405Y011190D03*
X016405Y011900D03*
X011285Y013130D03*
D32*
X011285Y013080D03*
X011285Y012650D03*
X011285Y012380D03*
X011285Y011670D03*
X011285Y011240D03*
X011285Y010970D03*
X011285Y010540D03*
X011925Y010460D03*
X011935Y010450D03*
X011935Y010440D03*
X011945Y010430D03*
X011955Y010420D03*
X011525Y009760D03*
X012025Y009250D03*
X011835Y009080D03*
X011655Y008680D03*
X012675Y009810D03*
X013565Y008650D03*
X013875Y008810D03*
X015735Y010430D03*
X015745Y010440D03*
X015755Y010450D03*
X016405Y010540D03*
X016405Y010970D03*
X016405Y011240D03*
X016405Y011670D03*
X016405Y012380D03*
X016405Y012650D03*
X016405Y013080D03*
X016405Y013790D03*
X015745Y013880D03*
X015735Y013890D03*
X013845Y012370D03*
X013845Y011950D03*
X013265Y011250D03*
X011925Y013860D03*
X011935Y013870D03*
X011935Y013880D03*
X011945Y013890D03*
X011955Y013900D03*
X011285Y013790D03*
X016235Y009540D03*
X016235Y008800D03*
D33*
X016265Y008810D03*
X016065Y008650D03*
X015975Y009010D03*
X015985Y009020D03*
X016025Y009090D03*
X016035Y009110D03*
X016185Y009340D03*
X015685Y009710D03*
X015805Y010560D03*
X015805Y010570D03*
X015815Y010590D03*
X015815Y010600D03*
X015815Y010610D03*
X015815Y010620D03*
X015825Y010640D03*
X015825Y010650D03*
X015825Y010660D03*
X015825Y010670D03*
X016405Y011680D03*
X016405Y012390D03*
X016405Y012640D03*
X016405Y013340D03*
X016405Y013800D03*
X015825Y013680D03*
X015825Y013670D03*
X015825Y013660D03*
X015825Y013650D03*
X015815Y013700D03*
X015815Y013710D03*
X015815Y013720D03*
X015815Y013730D03*
X015805Y013750D03*
X015805Y013760D03*
X011885Y013770D03*
X011875Y013750D03*
X011875Y013740D03*
X011865Y013710D03*
X011865Y013700D03*
X011865Y013690D03*
X011855Y013640D03*
X011855Y013630D03*
X011855Y013620D03*
X011855Y013610D03*
X011285Y013800D03*
X011285Y013340D03*
X011285Y012640D03*
X011285Y012390D03*
X011285Y011680D03*
X011855Y010710D03*
X011855Y010700D03*
X011855Y010690D03*
X011855Y010680D03*
X011865Y010630D03*
X011865Y010620D03*
X011865Y010610D03*
X011875Y010580D03*
X011875Y010570D03*
X011885Y010550D03*
X012035Y009550D03*
X012055Y009280D03*
X012045Y009270D03*
X011825Y009060D03*
X013885Y008840D03*
X014695Y009470D03*
X015065Y009070D03*
X015065Y009060D03*
D34*
X015410Y009320D03*
X015700Y009520D03*
X016230Y009530D03*
X015690Y010370D03*
X015700Y010380D03*
X016400Y010550D03*
X014110Y008690D03*
X013570Y008660D03*
X012640Y009270D03*
X012690Y009790D03*
X011990Y010380D03*
X011980Y010390D03*
X011290Y010550D03*
X011840Y009090D03*
X014420Y013060D03*
X015700Y013940D03*
X011990Y013940D03*
X011980Y013930D03*
D35*
X011920Y013850D03*
X014420Y012650D03*
X015760Y013850D03*
X015760Y013860D03*
X015750Y013870D03*
X015770Y013840D03*
X016400Y013350D03*
X015770Y010480D03*
X015760Y010470D03*
X015760Y010460D03*
X015610Y009930D03*
X016190Y009330D03*
X014540Y008660D03*
X014110Y008660D03*
X013880Y008820D03*
X013020Y009110D03*
X012620Y009290D03*
X012670Y009820D03*
X012010Y009560D03*
X011830Y009070D03*
X011920Y010470D03*
D36*
X011960Y010410D03*
X011970Y010400D03*
X012630Y009280D03*
X014110Y008670D03*
X015410Y009330D03*
X015700Y009510D03*
X015610Y009920D03*
X015720Y010410D03*
X015730Y010420D03*
X016060Y008660D03*
X014420Y012660D03*
X014420Y013070D03*
X015720Y013910D03*
X015730Y013900D03*
X011970Y013920D03*
X011960Y013910D03*
D37*
X012010Y013960D03*
X013840Y012350D03*
X013840Y011970D03*
X014420Y013050D03*
X015680Y013960D03*
X015680Y010360D03*
X016140Y009930D03*
X015700Y009530D03*
X015400Y009310D03*
X014090Y008730D03*
X013580Y008670D03*
X012010Y010360D03*
X011680Y008690D03*
D38*
X011975Y009570D03*
X012685Y009800D03*
X014105Y008680D03*
X014545Y008670D03*
X015615Y009910D03*
X015705Y010390D03*
X015715Y010400D03*
X016145Y009940D03*
X016185Y009320D03*
X016405Y010960D03*
X016405Y011660D03*
X016405Y011950D03*
X016405Y012370D03*
X016405Y012660D03*
X016405Y013360D03*
X016405Y013780D03*
X015715Y013920D03*
X015705Y013930D03*
X013845Y012360D03*
X013845Y011960D03*
X013265Y011660D03*
X011285Y011660D03*
X011285Y011950D03*
X011285Y012370D03*
X011285Y012660D03*
X011285Y013360D03*
X011285Y013780D03*
X011285Y010960D03*
D39*
X012640Y009930D03*
X013520Y009880D03*
X014080Y009840D03*
X014660Y009540D03*
X014790Y009410D03*
X014620Y009360D03*
X014530Y009180D03*
X015000Y009220D03*
X014990Y008670D03*
X015850Y009580D03*
X015850Y009590D03*
X015850Y009600D03*
X015850Y009610D03*
X015970Y009840D03*
X016170Y009970D03*
X016320Y009870D03*
X016320Y009760D03*
X016320Y009750D03*
X016310Y009730D03*
X016330Y009500D03*
X016180Y009370D03*
X014420Y012610D03*
D40*
X014415Y012670D03*
X013265Y011650D03*
X013265Y011260D03*
X011995Y010370D03*
X012695Y009780D03*
X011295Y009590D03*
X011285Y011250D03*
X011285Y011650D03*
X011285Y011960D03*
X011285Y012360D03*
X011285Y012670D03*
X011285Y013070D03*
X011285Y013370D03*
X011285Y013770D03*
X011995Y013950D03*
X015685Y013950D03*
X016405Y013770D03*
X016405Y013370D03*
X016405Y013070D03*
X016405Y012670D03*
X016405Y012360D03*
X016405Y011960D03*
X016405Y011650D03*
X016405Y011250D03*
X015615Y009900D03*
X015615Y009890D03*
X016185Y009310D03*
X016225Y009520D03*
X016065Y008670D03*
X014555Y008680D03*
X014105Y008700D03*
X014095Y008710D03*
X014095Y008720D03*
D41*
X014560Y008690D03*
X015400Y009300D03*
X015700Y009540D03*
X015700Y009550D03*
X016190Y009300D03*
X015650Y010340D03*
X013840Y011980D03*
X013840Y012340D03*
X014420Y013040D03*
X015650Y013980D03*
X012030Y013980D03*
X012020Y013970D03*
X012030Y010340D03*
X011940Y009580D03*
X013010Y009120D03*
X013580Y008680D03*
D42*
X014565Y008700D03*
X016065Y008680D03*
X016135Y009920D03*
X016405Y010570D03*
X016405Y010940D03*
X016405Y011270D03*
X016405Y011630D03*
X016405Y011640D03*
X016405Y011980D03*
X016405Y012340D03*
X016405Y012350D03*
X016405Y012680D03*
X016405Y013050D03*
X016405Y013390D03*
X016405Y013750D03*
X014415Y012690D03*
X013265Y011630D03*
X013265Y011280D03*
X012045Y010330D03*
X011285Y010570D03*
X011285Y010940D03*
X011285Y011270D03*
X011285Y011640D03*
X011285Y011980D03*
X011285Y012340D03*
X011285Y012350D03*
X011285Y012680D03*
X011285Y013050D03*
X011285Y013390D03*
X011285Y013750D03*
X012045Y013990D03*
D43*
X011290Y012690D03*
X011290Y011630D03*
X012660Y009250D03*
X011860Y009110D03*
X013580Y008690D03*
X015400Y009290D03*
X016190Y009290D03*
X015640Y010330D03*
X013840Y011990D03*
X013840Y012330D03*
X014420Y012700D03*
X014420Y013030D03*
X015640Y013990D03*
D44*
X015620Y014000D03*
X014420Y013020D03*
X014420Y012710D03*
X013270Y011610D03*
X015620Y010320D03*
X016400Y010590D03*
X016190Y009280D03*
X016070Y008690D03*
X015400Y009270D03*
X015400Y009280D03*
X014580Y008720D03*
X013590Y008700D03*
X012030Y009230D03*
X011700Y008700D03*
D45*
X011880Y009120D03*
X012680Y009240D03*
X013590Y008710D03*
X014580Y008740D03*
X015400Y009260D03*
X016190Y009260D03*
X016190Y009270D03*
X016070Y008700D03*
X015600Y010310D03*
X013840Y012020D03*
X013840Y012300D03*
X014420Y012720D03*
X014420Y013010D03*
X015600Y014010D03*
X012080Y014010D03*
X012080Y010310D03*
D46*
X011285Y010660D03*
X011285Y010670D03*
X011285Y010680D03*
X011285Y010830D03*
X011285Y010840D03*
X011285Y010850D03*
X011285Y011360D03*
X011285Y011370D03*
X011285Y011380D03*
X011285Y011520D03*
X011285Y011530D03*
X011285Y011540D03*
X011285Y011550D03*
X011285Y012070D03*
X011285Y012080D03*
X011285Y012090D03*
X011285Y012230D03*
X011285Y012240D03*
X011285Y012250D03*
X011285Y012260D03*
X011285Y012770D03*
X011285Y012780D03*
X011285Y012790D03*
X011285Y012800D03*
X011285Y012940D03*
X011285Y012950D03*
X011285Y012960D03*
X011285Y013480D03*
X011285Y013490D03*
X011285Y013500D03*
X011285Y013640D03*
X011285Y013650D03*
X011285Y013660D03*
X012565Y011540D03*
X012565Y011370D03*
X013265Y011390D03*
X013265Y011400D03*
X013265Y011410D03*
X013265Y011500D03*
X013265Y011510D03*
X013265Y011520D03*
X013845Y012100D03*
X013845Y012220D03*
X014415Y012800D03*
X014415Y012920D03*
X015125Y012780D03*
X016405Y012780D03*
X016405Y012790D03*
X016405Y012800D03*
X016405Y012770D03*
X016405Y012940D03*
X016405Y012950D03*
X016405Y012960D03*
X016405Y013480D03*
X016405Y013490D03*
X016405Y013500D03*
X016405Y013640D03*
X016405Y013650D03*
X016405Y013660D03*
X016405Y012260D03*
X016405Y012250D03*
X016405Y012240D03*
X016405Y012230D03*
X016405Y012090D03*
X016405Y012080D03*
X016405Y012070D03*
X016405Y011550D03*
X016405Y011540D03*
X016405Y011530D03*
X016405Y011520D03*
X016405Y011380D03*
X016405Y011370D03*
X016405Y011360D03*
X016405Y010850D03*
X016405Y010840D03*
X016405Y010830D03*
X016405Y010680D03*
X016405Y010670D03*
X016405Y010660D03*
X016075Y008730D03*
X011745Y008710D03*
D47*
X012090Y008710D03*
X012530Y008720D03*
X012530Y008730D03*
X012530Y008740D03*
X012130Y009380D03*
X012130Y009470D03*
X012570Y009500D03*
X012570Y009510D03*
X012570Y009520D03*
X012630Y009910D03*
X013130Y009490D03*
X013140Y009480D03*
X013150Y009470D03*
X013510Y009730D03*
X013510Y009740D03*
X013510Y009750D03*
X013520Y009770D03*
X013520Y009780D03*
X013520Y009790D03*
X013520Y009800D03*
X013520Y009810D03*
X013520Y009820D03*
X013520Y009830D03*
X014080Y009700D03*
X014080Y009690D03*
X014080Y009680D03*
X014080Y009670D03*
X014080Y009660D03*
X014080Y009650D03*
X014070Y009620D03*
X014070Y009610D03*
X014070Y009600D03*
X014090Y009710D03*
X014090Y009720D03*
X014090Y009730D03*
X014090Y009740D03*
X014640Y009400D03*
X015170Y009140D03*
X015180Y009150D03*
X015190Y009160D03*
X015560Y009210D03*
X015700Y009480D03*
X015670Y009810D03*
X015680Y009820D03*
X015990Y009860D03*
X016380Y009190D03*
X016400Y008970D03*
X016390Y008950D03*
X015880Y008860D03*
X015880Y008850D03*
X015880Y008840D03*
X015880Y008830D03*
X015880Y008820D03*
X015570Y008720D03*
X014990Y008730D03*
X014990Y008740D03*
X014990Y008750D03*
X014440Y008770D03*
X013980Y008760D03*
X013970Y008770D03*
X013950Y009040D03*
X013950Y009050D03*
X013950Y009060D03*
X013960Y009090D03*
X013430Y008790D03*
X013430Y008780D03*
D48*
X014575Y008710D03*
X016135Y009910D03*
X016405Y010580D03*
X016405Y010920D03*
X016405Y010930D03*
X016405Y011280D03*
X016405Y011620D03*
X016405Y011990D03*
X016405Y012330D03*
X016405Y012690D03*
X016405Y012700D03*
X016405Y013040D03*
X016405Y013400D03*
X016405Y013740D03*
X013845Y012320D03*
X013845Y012000D03*
X013265Y011620D03*
X013265Y011300D03*
X013265Y011290D03*
X012065Y010320D03*
X011285Y010580D03*
X011285Y010590D03*
X011285Y010920D03*
X011285Y010930D03*
X011285Y011280D03*
X011285Y011620D03*
X011285Y011990D03*
X011285Y012330D03*
X011285Y012700D03*
X011285Y013040D03*
X011285Y013400D03*
X011285Y013740D03*
X012065Y014000D03*
D49*
X013840Y012280D03*
X013840Y012040D03*
X013270Y011580D03*
X014420Y012740D03*
X014420Y012990D03*
X016400Y011590D03*
X016190Y009250D03*
X016070Y008710D03*
X013600Y008730D03*
X011890Y009590D03*
X011290Y011590D03*
D50*
X012005Y009160D03*
X011815Y008750D03*
X011815Y008740D03*
X011825Y008730D03*
X011825Y008720D03*
D51*
X012985Y009130D03*
X013595Y008720D03*
X014585Y008750D03*
X014585Y008760D03*
X015395Y009250D03*
X016135Y009890D03*
X016405Y010610D03*
X016405Y010900D03*
X016405Y011310D03*
X016405Y011600D03*
X016405Y012020D03*
X016405Y012300D03*
X016405Y012310D03*
X016405Y012720D03*
X016405Y013010D03*
X016405Y013420D03*
X016405Y013430D03*
X016405Y013710D03*
X016405Y013720D03*
X015125Y012960D03*
X014415Y013000D03*
X014415Y012730D03*
X013845Y012290D03*
X013845Y012030D03*
X013265Y011590D03*
X013265Y011330D03*
X013265Y011320D03*
X012565Y011360D03*
X011285Y011310D03*
X011285Y011600D03*
X011285Y012020D03*
X011285Y012300D03*
X011285Y012310D03*
X011285Y012720D03*
X011285Y013010D03*
X011285Y013420D03*
X011285Y013430D03*
X011285Y013710D03*
X011285Y013720D03*
X011285Y010900D03*
X011285Y010610D03*
D52*
X011285Y010640D03*
X011285Y010650D03*
X011285Y010860D03*
X011285Y010870D03*
X011285Y011340D03*
X011285Y011350D03*
X011285Y011560D03*
X011285Y011570D03*
X011285Y012050D03*
X011285Y012060D03*
X011285Y012270D03*
X011285Y012280D03*
X011285Y012750D03*
X011285Y012760D03*
X011285Y012970D03*
X011285Y012980D03*
X011285Y013460D03*
X011285Y013470D03*
X011285Y013670D03*
X011285Y013680D03*
X012565Y011550D03*
X013265Y011550D03*
X013265Y011560D03*
X013265Y011540D03*
X013265Y011370D03*
X013265Y011360D03*
X013845Y012070D03*
X013845Y012250D03*
X014415Y012770D03*
X014415Y012950D03*
X014415Y012960D03*
X015125Y012770D03*
X016405Y012760D03*
X016405Y012750D03*
X016405Y012970D03*
X016405Y012980D03*
X016405Y013460D03*
X016405Y013470D03*
X016405Y013670D03*
X016405Y013680D03*
X015565Y014020D03*
X016405Y012280D03*
X016405Y012270D03*
X016405Y012060D03*
X016405Y012050D03*
X016405Y011570D03*
X016405Y011560D03*
X016405Y011350D03*
X016405Y011340D03*
X016405Y010870D03*
X016405Y010860D03*
X016405Y010650D03*
X016405Y010640D03*
X015565Y010300D03*
X016195Y009230D03*
X016075Y008720D03*
X013605Y008750D03*
X012115Y010300D03*
D53*
X011525Y009750D03*
X011285Y010600D03*
X011285Y010910D03*
X011285Y011290D03*
X011285Y011300D03*
X011285Y011610D03*
X011285Y012000D03*
X011285Y012010D03*
X011285Y012320D03*
X011285Y012710D03*
X011285Y013020D03*
X011285Y013030D03*
X011285Y013410D03*
X011285Y013730D03*
X013265Y011600D03*
X013265Y011310D03*
X013845Y012010D03*
X013845Y012310D03*
X016405Y012320D03*
X016405Y012010D03*
X016405Y012000D03*
X016405Y011610D03*
X016405Y011300D03*
X016405Y011290D03*
X016405Y010910D03*
X016405Y010600D03*
X016135Y009900D03*
X014585Y008730D03*
X016405Y012710D03*
X016405Y013020D03*
X016405Y013030D03*
X016405Y013410D03*
X016405Y013730D03*
D54*
X014420Y012970D03*
X014420Y012760D03*
X013840Y012270D03*
X013840Y012260D03*
X013840Y012060D03*
X013840Y012050D03*
X013270Y011350D03*
X012700Y009230D03*
X012030Y009220D03*
X011900Y009130D03*
X013600Y008740D03*
D55*
X014085Y008740D03*
X012645Y009260D03*
X012705Y009770D03*
X012025Y009240D03*
X011855Y009100D03*
X012015Y010350D03*
X011285Y010560D03*
X011285Y010950D03*
X011285Y011260D03*
X011285Y011970D03*
X011285Y013060D03*
X011285Y013380D03*
X011285Y013760D03*
X013265Y011640D03*
X013265Y011270D03*
X014415Y012680D03*
X015665Y013970D03*
X016405Y013760D03*
X016405Y013380D03*
X016405Y013060D03*
X016405Y011970D03*
X016405Y011260D03*
X016405Y010950D03*
X016405Y010560D03*
X015665Y010350D03*
D56*
X016405Y010690D03*
X016405Y010700D03*
X016405Y010710D03*
X016405Y010720D03*
X016405Y010730D03*
X016405Y010740D03*
X016405Y010750D03*
X016405Y010760D03*
X016405Y010770D03*
X016405Y010780D03*
X016405Y010790D03*
X016405Y010800D03*
X016405Y010810D03*
X016405Y011390D03*
X016405Y011400D03*
X016405Y011410D03*
X016405Y011420D03*
X016405Y011430D03*
X016405Y011440D03*
X016405Y011450D03*
X016405Y011460D03*
X016405Y011470D03*
X016405Y011480D03*
X016405Y011490D03*
X016405Y011500D03*
X016405Y011510D03*
X016405Y012100D03*
X016405Y012110D03*
X016405Y012120D03*
X016405Y012130D03*
X016405Y012140D03*
X016405Y012150D03*
X016405Y012160D03*
X016405Y012170D03*
X016405Y012180D03*
X016405Y012190D03*
X016405Y012200D03*
X016405Y012210D03*
X016405Y012220D03*
X016405Y012810D03*
X016405Y012820D03*
X016405Y012830D03*
X016405Y012840D03*
X016405Y012850D03*
X016405Y012860D03*
X016405Y012870D03*
X016405Y012880D03*
X016405Y012890D03*
X016405Y012900D03*
X016405Y012910D03*
X016405Y012920D03*
X016405Y012930D03*
X016405Y013510D03*
X016405Y013520D03*
X016405Y013530D03*
X016405Y013540D03*
X016405Y013550D03*
X016405Y013560D03*
X016405Y013570D03*
X016405Y013580D03*
X016405Y013590D03*
X016405Y013600D03*
X016405Y013610D03*
X016405Y013620D03*
X016405Y013630D03*
X015125Y012940D03*
X013845Y012160D03*
X013265Y011480D03*
X013265Y011470D03*
X013265Y011460D03*
X013265Y011450D03*
X013265Y011440D03*
X012565Y011380D03*
X011285Y011390D03*
X011285Y011400D03*
X011285Y011410D03*
X011285Y011420D03*
X011285Y011430D03*
X011285Y011440D03*
X011285Y011450D03*
X011285Y011460D03*
X011285Y011470D03*
X011285Y011480D03*
X011285Y011490D03*
X011285Y011500D03*
X011285Y011510D03*
X011285Y012100D03*
X011285Y012110D03*
X011285Y012120D03*
X011285Y012130D03*
X011285Y012140D03*
X011285Y012150D03*
X011285Y012160D03*
X011285Y012170D03*
X011285Y012180D03*
X011285Y012190D03*
X011285Y012200D03*
X011285Y012210D03*
X011285Y012220D03*
X011285Y012810D03*
X011285Y012820D03*
X011285Y012830D03*
X011285Y012840D03*
X011285Y012850D03*
X011285Y012860D03*
X011285Y012870D03*
X011285Y012880D03*
X011285Y012890D03*
X011285Y012900D03*
X011285Y012910D03*
X011285Y012920D03*
X011285Y012930D03*
X011285Y013510D03*
X011285Y013520D03*
X011285Y013530D03*
X011285Y013540D03*
X011285Y013550D03*
X011285Y013560D03*
X011285Y013570D03*
X011285Y013580D03*
X011285Y013590D03*
X011285Y013600D03*
X011285Y013610D03*
X011285Y013620D03*
X011285Y013630D03*
X011285Y010820D03*
X011285Y010810D03*
X011285Y010800D03*
X011285Y010790D03*
X011285Y010780D03*
X011285Y010770D03*
X011285Y010760D03*
X011285Y010750D03*
X011285Y010740D03*
X011285Y010730D03*
X011285Y010720D03*
X011285Y010710D03*
X011285Y010700D03*
X011285Y010690D03*
X016075Y008740D03*
D57*
X016075Y008750D03*
X012565Y011390D03*
X015125Y012930D03*
D58*
X011995Y009180D03*
X011815Y008760D03*
D59*
X011780Y008830D03*
X012560Y011520D03*
X015120Y012800D03*
X015120Y012920D03*
X016080Y008760D03*
D60*
X011810Y008770D03*
D61*
X012565Y011400D03*
X012565Y011410D03*
X012565Y011510D03*
X015125Y012810D03*
X015125Y012910D03*
X016085Y008770D03*
D62*
X011805Y008780D03*
X011535Y009720D03*
D63*
X011785Y008820D03*
X012565Y011420D03*
X012565Y011430D03*
X012565Y011440D03*
X012565Y011450D03*
X012565Y011470D03*
X012565Y011480D03*
X012565Y011490D03*
X015125Y012830D03*
X015125Y012840D03*
X015125Y012850D03*
X015125Y012870D03*
X015125Y012880D03*
X015125Y012890D03*
X015125Y012900D03*
X016085Y008780D03*
D64*
X012000Y009190D03*
X011800Y008790D03*
D65*
X012560Y011460D03*
X015120Y012860D03*
X016090Y008790D03*
D66*
X011800Y008800D03*
D67*
X011795Y008810D03*
X012005Y009200D03*
D68*
X012090Y009320D03*
X012070Y009530D03*
X012570Y009140D03*
X012560Y009060D03*
X012560Y009050D03*
X012560Y009040D03*
X012560Y009030D03*
X012580Y009340D03*
X012970Y009620D03*
X012980Y009610D03*
X013010Y009590D03*
X013170Y009230D03*
X013910Y008910D03*
X014680Y009510D03*
X015030Y008940D03*
X015020Y008910D03*
X015020Y008900D03*
X015920Y008940D03*
X015930Y008950D03*
X016050Y009150D03*
X016050Y009160D03*
X016050Y009170D03*
X016060Y009210D03*
X015750Y009680D03*
X015640Y009740D03*
X016310Y008840D03*
X014420Y012630D03*
X014420Y013100D03*
X011700Y008950D03*
X011690Y008940D03*
X011680Y008930D03*
X011670Y008920D03*
X011660Y008910D03*
D69*
X012035Y009260D03*
X011915Y010480D03*
X011905Y010490D03*
X011905Y010500D03*
X011285Y010530D03*
X011285Y010980D03*
X011285Y011230D03*
X011285Y011940D03*
X011285Y013090D03*
X011285Y013350D03*
X011905Y013820D03*
X011905Y013830D03*
X011915Y013840D03*
X013265Y011670D03*
X013265Y011240D03*
X014415Y013080D03*
X015775Y013820D03*
X015775Y013830D03*
X015785Y013810D03*
X016405Y013090D03*
X016405Y011940D03*
X016405Y011230D03*
X016405Y010980D03*
X016405Y010530D03*
X015785Y010510D03*
X015775Y010490D03*
X016235Y009550D03*
X016015Y009070D03*
X015405Y009340D03*
X015085Y009110D03*
X015075Y009100D03*
X014705Y009420D03*
X014705Y009430D03*
X014705Y009440D03*
D70*
X012010Y009140D03*
X012000Y009150D03*
D71*
X011530Y009740D03*
X012960Y009140D03*
X013270Y011420D03*
X013270Y011430D03*
X013270Y011490D03*
X013840Y012110D03*
X013840Y012120D03*
X013840Y012130D03*
X013840Y012140D03*
X013840Y012150D03*
X013840Y012170D03*
X013840Y012180D03*
X013840Y012190D03*
X013840Y012200D03*
X013840Y012210D03*
X014420Y012810D03*
X014420Y012820D03*
X014420Y012830D03*
X014420Y012840D03*
X014420Y012850D03*
X014420Y012860D03*
X014420Y012870D03*
X014420Y012880D03*
X014420Y012890D03*
X014420Y012900D03*
X014420Y012910D03*
X016400Y010820D03*
D72*
X012845Y009150D03*
D73*
X012850Y009160D03*
D74*
X012000Y009170D03*
D75*
X012855Y009170D03*
D76*
X012860Y009180D03*
X012860Y009190D03*
X011540Y009690D03*
D77*
X012865Y009210D03*
X012865Y009200D03*
D78*
X012020Y009210D03*
X012560Y011530D03*
X015120Y012790D03*
D79*
X012870Y009220D03*
D80*
X014500Y009240D03*
X014610Y009330D03*
X016400Y013130D03*
D81*
X016405Y013000D03*
X016405Y012990D03*
X016405Y012740D03*
X016405Y012730D03*
X016405Y012290D03*
X016405Y012040D03*
X016405Y012030D03*
X016405Y011580D03*
X016405Y011330D03*
X016405Y011320D03*
X016405Y010890D03*
X016405Y010880D03*
X016405Y010630D03*
X016405Y010620D03*
X016195Y009240D03*
X015395Y009240D03*
X013265Y011340D03*
X013265Y011570D03*
X014415Y012750D03*
X014415Y012980D03*
X016405Y013440D03*
X016405Y013450D03*
X016405Y013690D03*
X016405Y013700D03*
X011285Y013700D03*
X011285Y013690D03*
X011285Y013450D03*
X011285Y013440D03*
X011285Y013000D03*
X011285Y012990D03*
X011285Y012740D03*
X011285Y012730D03*
X011285Y012290D03*
X011285Y012040D03*
X011285Y012030D03*
X011285Y011580D03*
X011285Y011330D03*
X011285Y011320D03*
X011285Y010890D03*
X011285Y010880D03*
X011285Y010630D03*
X011285Y010620D03*
D82*
X011615Y009600D03*
D83*
X011600Y009610D03*
D84*
X011595Y009620D03*
D85*
X011585Y009630D03*
D86*
X011570Y009640D03*
D87*
X011565Y009650D03*
D88*
X011555Y009660D03*
D89*
X011545Y009670D03*
D90*
X011540Y009680D03*
D91*
X011535Y009700D03*
D92*
X011535Y009710D03*
D93*
X011530Y009730D03*
X012560Y011500D03*
X015120Y012820D03*
D94*
X013845Y013450D03*
X013845Y014270D03*
X013845Y010870D03*
X013845Y010630D03*
X013845Y010050D03*
D95*
X013840Y010060D03*
X013840Y014260D03*
D96*
X013840Y014250D03*
X013840Y010070D03*
D97*
X013840Y010080D03*
X013840Y014240D03*
D98*
X013845Y010090D03*
D99*
X013840Y010100D03*
X013840Y014220D03*
D100*
X013840Y010110D03*
D101*
X013845Y010120D03*
X013845Y014200D03*
D102*
X013845Y010130D03*
D103*
X013840Y010140D03*
X013840Y014180D03*
D104*
X013840Y014170D03*
X013840Y010150D03*
D105*
X013845Y010160D03*
X013845Y014160D03*
D106*
X013840Y014150D03*
X013840Y010170D03*
D107*
X013840Y010180D03*
X013840Y014140D03*
D108*
X013840Y014130D03*
X013840Y010190D03*
D109*
X013845Y010200D03*
X013845Y014120D03*
D110*
X013845Y014110D03*
X013845Y010210D03*
D111*
X013840Y010220D03*
D112*
X013840Y010230D03*
X013840Y014090D03*
D113*
X013840Y014080D03*
X013840Y010240D03*
D114*
X013840Y010250D03*
X013840Y014070D03*
D115*
X013840Y014060D03*
X013840Y010260D03*
D116*
X013845Y010270D03*
X013845Y014050D03*
D117*
X013845Y014040D03*
X013845Y010280D03*
D118*
X013845Y010290D03*
D119*
X013840Y010560D03*
X013840Y013760D03*
D120*
X013845Y010570D03*
D121*
X013845Y010580D03*
D122*
X013840Y010590D03*
X013840Y013730D03*
D123*
X013845Y013720D03*
X013845Y010600D03*
D124*
X013845Y010610D03*
X013845Y013710D03*
D125*
X013845Y013700D03*
X013845Y010620D03*
D126*
X013840Y010640D03*
X013840Y013680D03*
D127*
X013840Y013670D03*
X013840Y013470D03*
X013840Y010850D03*
X013840Y010650D03*
D128*
X013845Y010660D03*
X013845Y013660D03*
D129*
X013845Y013490D03*
X013845Y010830D03*
X013845Y010670D03*
D130*
X013840Y010680D03*
X013840Y010690D03*
X013840Y010810D03*
X013840Y010820D03*
X013840Y013500D03*
X013840Y013510D03*
X013840Y013620D03*
X013840Y013630D03*
X013840Y013640D03*
D131*
X013845Y013610D03*
X013845Y013530D03*
X013845Y013520D03*
X013845Y010800D03*
X013845Y010790D03*
X013845Y010710D03*
X013845Y010700D03*
D132*
X013840Y010720D03*
X013840Y010730D03*
X013840Y010740D03*
X013840Y010770D03*
X013840Y010780D03*
X013840Y013540D03*
X013840Y013550D03*
X013840Y013580D03*
X013840Y013590D03*
X013840Y013600D03*
D133*
X013845Y013570D03*
X013845Y013560D03*
X013845Y010760D03*
X013845Y010750D03*
D134*
X013840Y010840D03*
X013840Y013480D03*
X013840Y013650D03*
D135*
X013845Y013460D03*
X013845Y010860D03*
D136*
X013840Y010880D03*
X013840Y013440D03*
X013840Y013690D03*
D137*
X013840Y013430D03*
X013840Y010890D03*
D138*
X013845Y010900D03*
X013845Y013420D03*
D139*
X013845Y010910D03*
D140*
X013840Y010920D03*
X013840Y013400D03*
D141*
X013840Y010930D03*
D142*
X013840Y010940D03*
D143*
X014545Y011360D03*
D144*
X014545Y011370D03*
X013145Y012950D03*
D145*
X013840Y012240D03*
X013840Y012230D03*
X013840Y012090D03*
X013840Y012080D03*
X013270Y011530D03*
X013270Y011380D03*
X014420Y012780D03*
X014420Y012790D03*
X014420Y012930D03*
X014420Y012940D03*
X015120Y012950D03*
X012120Y014020D03*
D146*
X014545Y011380D03*
D147*
X014540Y011390D03*
X013140Y012800D03*
X013140Y012930D03*
D148*
X014545Y011520D03*
X014545Y011400D03*
D149*
X014545Y011410D03*
X014545Y011500D03*
D150*
X014540Y011490D03*
X014540Y011420D03*
X013140Y012820D03*
X013140Y012830D03*
X013140Y012840D03*
X013140Y012850D03*
X013140Y012880D03*
X013140Y012890D03*
X013140Y012900D03*
D151*
X014545Y011480D03*
X014545Y011470D03*
X014545Y011460D03*
X014545Y011450D03*
X014545Y011440D03*
X014545Y011430D03*
D152*
X014540Y011510D03*
X013140Y012810D03*
X013140Y012910D03*
X013140Y012920D03*
D153*
X014545Y011530D03*
D154*
X014540Y011540D03*
X013140Y012780D03*
D155*
X014545Y011550D03*
D156*
X012860Y012060D03*
D157*
X012860Y012070D03*
X012860Y012250D03*
D158*
X014825Y012250D03*
X014825Y012070D03*
D159*
X012860Y012080D03*
D160*
X014825Y012080D03*
X014825Y012240D03*
D161*
X014820Y012230D03*
X012860Y012230D03*
X012860Y012090D03*
D162*
X014825Y012090D03*
D163*
X012860Y012100D03*
X012860Y012110D03*
X012860Y012210D03*
D164*
X012855Y012220D03*
X014825Y012220D03*
X014825Y012100D03*
D165*
X014825Y012110D03*
X014825Y012120D03*
X014825Y012200D03*
X014825Y012210D03*
D166*
X014820Y012130D03*
X012860Y012130D03*
X012860Y012140D03*
X012860Y012150D03*
X012860Y012170D03*
X012860Y012180D03*
X012860Y012190D03*
X012860Y012200D03*
X012860Y012120D03*
D167*
X014825Y012140D03*
X014825Y012150D03*
X014825Y012160D03*
X014825Y012170D03*
X014825Y012180D03*
X014825Y012190D03*
D168*
X012860Y012160D03*
D169*
X012860Y012240D03*
D170*
X014825Y012260D03*
D171*
X013140Y012770D03*
D172*
X013140Y012790D03*
X013140Y012940D03*
D173*
X013140Y012870D03*
X013140Y012860D03*
D174*
X013140Y012960D03*
D175*
X013845Y013380D03*
D176*
X013845Y013390D03*
D177*
X013840Y013410D03*
D178*
X013840Y013740D03*
D179*
X013840Y013750D03*
D180*
X013840Y014030D03*
D181*
X013845Y014100D03*
D182*
X013840Y014190D03*
D183*
X013845Y014210D03*
D184*
X013840Y014230D03*
D185*
X024160Y018390D02*
X024162Y018413D01*
X024168Y018434D01*
X024177Y018455D01*
X024190Y018474D01*
X024206Y018490D01*
X024225Y018503D01*
X024246Y018512D01*
X024267Y018518D01*
X024290Y018520D01*
X024313Y018518D01*
X024334Y018512D01*
X024355Y018503D01*
X024374Y018490D01*
X024390Y018474D01*
X024403Y018455D01*
X024412Y018434D01*
X024418Y018413D01*
X024420Y018390D01*
X024418Y018367D01*
X024412Y018346D01*
X024403Y018325D01*
X024390Y018306D01*
X024374Y018290D01*
X024355Y018277D01*
X024334Y018268D01*
X024313Y018262D01*
X024290Y018260D01*
X024267Y018262D01*
X024246Y018268D01*
X024225Y018277D01*
X024206Y018290D01*
X024190Y018306D01*
X024177Y018325D01*
X024168Y018346D01*
X024162Y018367D01*
X024160Y018390D01*
X025140Y001650D02*
X025142Y001673D01*
X025148Y001694D01*
X025157Y001715D01*
X025170Y001734D01*
X025186Y001750D01*
X025205Y001763D01*
X025226Y001772D01*
X025247Y001778D01*
X025270Y001780D01*
X025293Y001778D01*
X025314Y001772D01*
X025335Y001763D01*
X025354Y001750D01*
X025370Y001734D01*
X025383Y001715D01*
X025392Y001694D01*
X025398Y001673D01*
X025400Y001650D01*
X025398Y001627D01*
X025392Y001606D01*
X025383Y001585D01*
X025370Y001566D01*
X025354Y001550D01*
X025335Y001537D01*
X025314Y001528D01*
X025293Y001522D01*
X025270Y001520D01*
X025247Y001522D01*
X025226Y001528D01*
X025205Y001537D01*
X025186Y001550D01*
X025170Y001566D01*
X025157Y001585D01*
X025148Y001606D01*
X025142Y001627D01*
X025140Y001650D01*
X003290Y018680D02*
X003292Y018703D01*
X003298Y018724D01*
X003307Y018745D01*
X003320Y018764D01*
X003336Y018780D01*
X003355Y018793D01*
X003376Y018802D01*
X003397Y018808D01*
X003420Y018810D01*
X003443Y018808D01*
X003464Y018802D01*
X003485Y018793D01*
X003504Y018780D01*
X003520Y018764D01*
X003533Y018745D01*
X003542Y018724D01*
X003548Y018703D01*
X003550Y018680D01*
X003548Y018657D01*
X003542Y018636D01*
X003533Y018615D01*
X003520Y018596D01*
X003504Y018580D01*
X003485Y018567D01*
X003464Y018558D01*
X003443Y018552D01*
X003420Y018550D01*
X003397Y018552D01*
X003376Y018558D01*
X003355Y018567D01*
X003336Y018580D01*
X003320Y018596D01*
X003307Y018615D01*
X003298Y018636D01*
X003292Y018657D01*
X003290Y018680D01*
D186*
X005850Y025750D02*
X005600Y026000D01*
X005600Y026500D01*
X005850Y026750D01*
X006350Y026750D01*
X006600Y026500D01*
X006850Y026750D01*
X007350Y026750D01*
X007600Y026500D01*
X007850Y026750D01*
X008350Y026750D01*
X008600Y026500D01*
X008600Y026000D01*
X008350Y025750D01*
X007850Y025750D01*
X007600Y026000D01*
X007350Y025750D01*
X006850Y025750D01*
X006600Y026000D01*
X006350Y025750D01*
X005850Y025750D01*
X006600Y026000D02*
X006600Y026500D01*
X007600Y026500D02*
X007600Y026000D01*
D187*
X002800Y002250D02*
X003050Y002000D01*
X003800Y002000D01*
X003800Y003000D01*
X003800Y004000D01*
X003800Y005000D01*
X003800Y006000D01*
X003800Y007000D01*
X002800Y007000D01*
X002800Y008000D01*
X002800Y009000D01*
X002800Y010000D01*
X003050Y010000D01*
X003800Y010000D01*
X003800Y011000D01*
X003800Y012000D01*
X003800Y013000D01*
X003800Y014000D01*
X003800Y015000D01*
X002800Y015000D01*
X002800Y016000D01*
X002800Y017000D01*
X002800Y018000D01*
X003800Y018000D01*
X003800Y017000D01*
X003800Y016000D01*
X003800Y015000D01*
X002800Y015000D02*
X002800Y014000D01*
X003050Y014000D01*
X003800Y014000D01*
X003050Y014000D02*
X002800Y013750D01*
X002800Y013250D01*
X003050Y013000D01*
X003800Y013000D01*
X003050Y013000D02*
X002800Y012750D01*
X002800Y012250D01*
X003050Y012000D01*
X003800Y012000D01*
X003050Y012000D02*
X002800Y011750D01*
X002800Y011250D01*
X003050Y011000D01*
X003800Y011000D01*
X003050Y011000D02*
X002800Y010750D01*
X002800Y010250D01*
X003050Y010000D01*
X002800Y010000D02*
X002050Y010000D01*
X001800Y009750D01*
X001800Y009250D01*
X002050Y009000D01*
X002800Y009000D01*
X003800Y009000D01*
X003800Y010000D01*
X003800Y009000D02*
X003800Y008000D01*
X003800Y007000D01*
X002800Y007000D02*
X002800Y006000D01*
X003050Y006000D01*
X003800Y006000D01*
X003050Y006000D02*
X002800Y005750D01*
X002800Y005250D01*
X003050Y005000D01*
X003800Y005000D01*
X003050Y005000D02*
X002800Y004750D01*
X002800Y004250D01*
X003050Y004000D01*
X003800Y004000D01*
X003050Y004000D02*
X002800Y003750D01*
X002800Y003250D01*
X003050Y003000D01*
X003800Y003000D01*
X003050Y003000D02*
X002800Y002750D01*
X002800Y002250D01*
X002800Y006000D02*
X002050Y006000D01*
X001800Y006250D01*
X001800Y006750D01*
X002050Y007000D01*
X002800Y007000D01*
X002050Y007000D02*
X001800Y007250D01*
X001800Y007750D01*
X002050Y008000D01*
X001800Y008250D01*
X001800Y008750D01*
X002050Y009000D01*
X001545Y009061D02*
X001545Y009151D01*
X001500Y009196D01*
X001410Y009196D01*
X001410Y009106D01*
X001500Y009016D02*
X001545Y009061D01*
X001500Y009016D02*
X001320Y009016D01*
X001275Y009061D01*
X001275Y009151D01*
X001320Y009196D01*
X001275Y009311D02*
X001545Y009491D01*
X001275Y009491D01*
X001275Y009605D02*
X001275Y009740D01*
X001320Y009786D01*
X001500Y009786D01*
X001545Y009740D01*
X001545Y009605D01*
X001275Y009605D01*
X001275Y009311D02*
X001545Y009311D01*
X001500Y008886D02*
X001545Y008840D01*
X001545Y008750D01*
X001500Y008705D01*
X001410Y008705D02*
X001365Y008795D01*
X001365Y008840D01*
X001410Y008886D01*
X001500Y008886D01*
X001410Y008705D02*
X001275Y008705D01*
X001275Y008886D01*
X001275Y008591D02*
X001455Y008591D01*
X001545Y008501D01*
X001455Y008411D01*
X001275Y008411D01*
X001320Y008296D02*
X001275Y008251D01*
X001275Y008161D01*
X001320Y008116D01*
X001320Y008296D02*
X001365Y008296D01*
X001545Y008116D01*
X001545Y008296D01*
X001500Y007886D02*
X001545Y007840D01*
X001545Y007750D01*
X001500Y007705D01*
X001455Y007591D02*
X001275Y007591D01*
X001320Y007705D02*
X001275Y007750D01*
X001275Y007840D01*
X001320Y007886D01*
X001365Y007886D01*
X001410Y007840D01*
X001455Y007886D01*
X001500Y007886D01*
X001410Y007840D02*
X001410Y007795D01*
X001455Y007591D02*
X001545Y007501D01*
X001455Y007411D01*
X001275Y007411D01*
X001320Y007296D02*
X001365Y007296D01*
X001410Y007251D01*
X001455Y007296D01*
X001500Y007296D01*
X001545Y007251D01*
X001545Y007161D01*
X001500Y007116D01*
X001410Y007206D02*
X001410Y007251D01*
X001320Y007296D02*
X001275Y007251D01*
X001275Y007161D01*
X001320Y007116D01*
X001275Y006686D02*
X001455Y006686D01*
X001545Y006595D01*
X001455Y006505D01*
X001275Y006505D01*
X001275Y006391D02*
X001275Y006211D01*
X001410Y006211D01*
X001365Y006301D01*
X001365Y006346D01*
X001410Y006391D01*
X001500Y006391D01*
X001545Y006346D01*
X001545Y006256D01*
X001500Y006211D01*
X002050Y008000D02*
X002800Y008000D01*
X003800Y008000D01*
X002800Y014000D02*
X002050Y014000D01*
X001800Y014250D01*
X001800Y014750D01*
X002050Y015000D01*
X002800Y015000D01*
X002050Y015000D02*
X001800Y015250D01*
X001800Y015750D01*
X002050Y016000D01*
X002800Y016000D01*
X003800Y016000D01*
X003800Y017000D02*
X002800Y017000D01*
X002050Y017000D01*
X001800Y017250D01*
X001800Y017750D01*
X002050Y018000D01*
X002800Y018000D01*
X002050Y017000D02*
X001800Y016750D01*
X001800Y016250D01*
X002050Y016000D01*
X001545Y016116D02*
X001365Y016296D01*
X001320Y016296D01*
X001275Y016251D01*
X001275Y016161D01*
X001320Y016116D01*
X001545Y016116D02*
X001545Y016296D01*
X001455Y016411D02*
X001545Y016501D01*
X001455Y016591D01*
X001275Y016591D01*
X001275Y016705D02*
X001410Y016705D01*
X001365Y016795D01*
X001365Y016840D01*
X001410Y016886D01*
X001500Y016886D01*
X001545Y016840D01*
X001545Y016750D01*
X001500Y016705D01*
X001275Y016705D02*
X001275Y016886D01*
X001320Y017116D02*
X001500Y017116D01*
X001545Y017161D01*
X001545Y017251D01*
X001500Y017296D01*
X001410Y017296D01*
X001410Y017206D01*
X001320Y017116D02*
X001275Y017161D01*
X001275Y017251D01*
X001320Y017296D01*
X001275Y017411D02*
X001545Y017591D01*
X001275Y017591D01*
X001275Y017705D02*
X001275Y017840D01*
X001320Y017886D01*
X001500Y017886D01*
X001545Y017840D01*
X001545Y017705D01*
X001275Y017705D01*
X001275Y017411D02*
X001545Y017411D01*
X001455Y016411D02*
X001275Y016411D01*
X001320Y015886D02*
X001365Y015886D01*
X001410Y015840D01*
X001455Y015886D01*
X001500Y015886D01*
X001545Y015840D01*
X001545Y015750D01*
X001500Y015705D01*
X001455Y015591D02*
X001275Y015591D01*
X001320Y015705D02*
X001275Y015750D01*
X001275Y015840D01*
X001320Y015886D01*
X001410Y015840D02*
X001410Y015795D01*
X001455Y015591D02*
X001545Y015501D01*
X001455Y015411D01*
X001275Y015411D01*
X001320Y015296D02*
X001365Y015296D01*
X001410Y015251D01*
X001455Y015296D01*
X001500Y015296D01*
X001545Y015251D01*
X001545Y015161D01*
X001500Y015116D01*
X001410Y015206D02*
X001410Y015251D01*
X001320Y015296D02*
X001275Y015251D01*
X001275Y015161D01*
X001320Y015116D01*
X001275Y014686D02*
X001455Y014686D01*
X001545Y014595D01*
X001455Y014505D01*
X001275Y014505D01*
X001275Y014391D02*
X001275Y014211D01*
X001410Y014211D01*
X001365Y014301D01*
X001365Y014346D01*
X001410Y014391D01*
X001500Y014391D01*
X001545Y014346D01*
X001545Y014256D01*
X001500Y014211D01*
X013300Y023250D02*
X015000Y023250D01*
X015000Y023300D01*
X015600Y023300D01*
X015600Y023250D01*
X016150Y023250D01*
X016300Y023450D01*
X016500Y023450D01*
X017100Y023450D01*
X017300Y023450D01*
X017450Y023250D01*
X018000Y023250D01*
X018000Y023650D01*
X017100Y023650D01*
X017100Y023750D01*
X016500Y023750D01*
X013800Y023750D01*
X013800Y026250D01*
X023800Y026250D01*
X023800Y023750D01*
X022100Y023750D01*
X021500Y023750D01*
X019600Y023750D01*
X019600Y023650D01*
X019600Y023250D01*
X018000Y023250D01*
X018000Y023650D02*
X018000Y023750D01*
X017100Y023750D01*
X017100Y023650D02*
X017100Y023450D01*
X016500Y023450D02*
X016500Y023650D01*
X016500Y023750D01*
X016500Y023650D02*
X013700Y023650D01*
X013300Y023250D02*
X013300Y026750D01*
X013800Y026750D01*
X013800Y026850D01*
X014300Y026850D01*
X014300Y026750D01*
X018550Y026750D01*
X018550Y026850D01*
X019050Y026850D01*
X019050Y026750D01*
X023300Y026750D01*
X023300Y026850D01*
X023800Y026850D01*
X023800Y026750D01*
X024300Y026750D01*
X024300Y023250D01*
X022450Y023250D01*
X022300Y023450D01*
X022100Y023450D01*
X021500Y023450D01*
X021300Y023450D01*
X021150Y023250D01*
X019600Y023250D01*
X019186Y023500D02*
X019186Y023575D01*
X019111Y023650D01*
X018885Y023650D01*
X018885Y023500D01*
X018960Y023425D01*
X019111Y023425D01*
X019186Y023500D01*
X019036Y023800D02*
X018885Y023650D01*
X019036Y023800D02*
X019186Y023875D01*
X019600Y023750D02*
X019600Y024050D01*
X018000Y024050D01*
X018000Y023750D01*
X018425Y023725D02*
X018575Y023875D01*
X018575Y023425D01*
X018425Y023425D02*
X018725Y023425D01*
X021500Y023450D02*
X021500Y023650D01*
X021500Y023750D01*
X022100Y023750D02*
X022100Y023650D01*
X022100Y023450D01*
X023050Y018000D02*
X023800Y018000D01*
X023800Y017000D01*
X023800Y016000D01*
X023800Y015000D01*
X023800Y014000D01*
X024050Y014000D01*
X024800Y014000D01*
X025550Y014000D01*
X025800Y014000D01*
X025800Y013000D01*
X025800Y012000D01*
X025800Y011000D01*
X025800Y010000D01*
X026550Y010000D01*
X026800Y010250D01*
X026800Y010750D01*
X026550Y011000D01*
X025800Y011000D01*
X024800Y011000D01*
X024800Y012000D01*
X025800Y012000D01*
X026550Y012000D01*
X026800Y012250D01*
X026800Y012750D01*
X026550Y013000D01*
X025800Y013000D01*
X024800Y013000D01*
X024800Y014000D01*
X024800Y015000D01*
X023800Y015000D01*
X023050Y015000D01*
X022800Y015250D01*
X022800Y015750D01*
X023050Y016000D01*
X023800Y016000D01*
X024800Y016000D01*
X025550Y016000D01*
X025800Y016250D01*
X025800Y016750D01*
X025550Y017000D01*
X024800Y017000D01*
X024800Y018000D01*
X025550Y018000D01*
X025800Y017750D01*
X025800Y017250D01*
X025550Y017000D01*
X024800Y017000D02*
X024800Y016000D01*
X024800Y015000D01*
X025550Y015000D01*
X025800Y015250D01*
X025800Y015750D01*
X025550Y016000D01*
X024800Y017000D02*
X023800Y017000D01*
X023050Y017000D01*
X022800Y017250D01*
X022800Y017750D01*
X023050Y018000D01*
X022545Y017840D02*
X022500Y017886D01*
X022320Y017886D01*
X022275Y017840D01*
X022275Y017705D01*
X022545Y017705D01*
X022545Y017840D01*
X022545Y017591D02*
X022275Y017591D01*
X022275Y017411D02*
X022545Y017591D01*
X022545Y017411D02*
X022275Y017411D01*
X022320Y017296D02*
X022275Y017251D01*
X022275Y017161D01*
X022320Y017116D01*
X022500Y017116D01*
X022545Y017161D01*
X022545Y017251D01*
X022500Y017296D01*
X022410Y017296D01*
X022410Y017206D01*
X022410Y016886D02*
X022500Y016886D01*
X022545Y016840D01*
X022545Y016750D01*
X022500Y016705D01*
X022410Y016705D02*
X022365Y016795D01*
X022365Y016840D01*
X022410Y016886D01*
X022275Y016886D02*
X022275Y016705D01*
X022410Y016705D01*
X022455Y016591D02*
X022275Y016591D01*
X022455Y016591D02*
X022545Y016501D01*
X022455Y016411D01*
X022275Y016411D01*
X022320Y016296D02*
X022275Y016251D01*
X022275Y016161D01*
X022320Y016116D01*
X022320Y016296D02*
X022365Y016296D01*
X022545Y016116D01*
X022545Y016296D01*
X022800Y016250D02*
X022800Y016750D01*
X023050Y017000D01*
X022800Y016250D02*
X023050Y016000D01*
X022545Y015840D02*
X022545Y015750D01*
X022500Y015705D01*
X022455Y015591D02*
X022275Y015591D01*
X022320Y015705D02*
X022275Y015750D01*
X022275Y015840D01*
X022320Y015886D01*
X022365Y015886D01*
X022410Y015840D01*
X022455Y015886D01*
X022500Y015886D01*
X022545Y015840D01*
X022410Y015840D02*
X022410Y015795D01*
X022455Y015591D02*
X022545Y015501D01*
X022455Y015411D01*
X022275Y015411D01*
X022320Y015296D02*
X022365Y015296D01*
X022410Y015251D01*
X022455Y015296D01*
X022500Y015296D01*
X022545Y015251D01*
X022545Y015161D01*
X022500Y015116D01*
X022410Y015206D02*
X022410Y015251D01*
X022320Y015296D02*
X022275Y015251D01*
X022275Y015161D01*
X022320Y015116D01*
X022275Y014686D02*
X022455Y014686D01*
X022545Y014595D01*
X022455Y014505D01*
X022275Y014505D01*
X022275Y014391D02*
X022275Y014211D01*
X022410Y014211D01*
X022365Y014301D01*
X022365Y014346D01*
X022410Y014391D01*
X022500Y014391D01*
X022545Y014346D01*
X022545Y014256D01*
X022500Y014211D01*
X022800Y014250D02*
X022800Y014750D01*
X023050Y015000D01*
X022800Y014250D02*
X023050Y014000D01*
X023800Y014000D01*
X023800Y013750D02*
X024050Y014000D01*
X023800Y013750D02*
X023800Y013250D01*
X024050Y013000D01*
X024800Y013000D01*
X024800Y012000D01*
X024050Y012000D01*
X023800Y012250D01*
X023800Y012750D01*
X024050Y013000D01*
X024050Y012000D02*
X023800Y011750D01*
X023800Y011250D01*
X024050Y011000D01*
X024800Y011000D01*
X024800Y010000D01*
X025550Y010000D01*
X025800Y010000D01*
X025800Y009750D02*
X025800Y009250D01*
X025550Y009000D01*
X025800Y008750D01*
X025800Y008250D01*
X025550Y008000D01*
X025800Y007750D01*
X025800Y007250D01*
X025550Y007000D01*
X025800Y006750D01*
X025800Y006250D01*
X025550Y006000D01*
X025800Y006000D01*
X025800Y005000D01*
X025800Y004000D01*
X025800Y003000D01*
X025800Y002000D01*
X026550Y002000D01*
X026800Y002250D01*
X026800Y002750D01*
X026550Y003000D01*
X025800Y003000D01*
X024800Y003000D01*
X024800Y004000D01*
X025800Y004000D01*
X026550Y004000D01*
X026800Y004250D01*
X026800Y004750D01*
X026550Y005000D01*
X025800Y005000D01*
X024800Y005000D01*
X024800Y006000D01*
X025550Y006000D01*
X025800Y006000D02*
X026550Y006000D01*
X026800Y005750D01*
X026800Y005250D01*
X026550Y005000D01*
X027050Y004840D02*
X027095Y004886D01*
X027140Y004886D01*
X027185Y004840D01*
X027230Y004886D01*
X027275Y004886D01*
X027320Y004840D01*
X027320Y004750D01*
X027275Y004705D01*
X027230Y004591D02*
X027050Y004591D01*
X027095Y004705D02*
X027050Y004750D01*
X027050Y004840D01*
X027185Y004840D02*
X027185Y004795D01*
X027230Y004591D02*
X027320Y004501D01*
X027230Y004411D01*
X027050Y004411D01*
X027095Y004296D02*
X027140Y004296D01*
X027185Y004251D01*
X027230Y004296D01*
X027275Y004296D01*
X027320Y004251D01*
X027320Y004161D01*
X027275Y004116D01*
X027185Y004206D02*
X027185Y004251D01*
X027095Y004296D02*
X027050Y004251D01*
X027050Y004161D01*
X027095Y004116D01*
X027050Y003886D02*
X027050Y003705D01*
X027185Y003705D01*
X027140Y003795D01*
X027140Y003840D01*
X027185Y003886D01*
X027275Y003886D01*
X027320Y003840D01*
X027320Y003750D01*
X027275Y003705D01*
X027230Y003591D02*
X027050Y003591D01*
X027230Y003591D02*
X027320Y003501D01*
X027230Y003411D01*
X027050Y003411D01*
X027095Y003296D02*
X027050Y003251D01*
X027050Y003161D01*
X027095Y003116D01*
X027095Y003296D02*
X027140Y003296D01*
X027320Y003116D01*
X027320Y003296D01*
X027275Y002886D02*
X027095Y002886D01*
X027050Y002840D01*
X027050Y002705D01*
X027320Y002705D01*
X027320Y002840D01*
X027275Y002886D01*
X027320Y002591D02*
X027050Y002591D01*
X027050Y002411D02*
X027320Y002591D01*
X027320Y002411D02*
X027050Y002411D01*
X027095Y002296D02*
X027050Y002251D01*
X027050Y002161D01*
X027095Y002116D01*
X027275Y002116D01*
X027320Y002161D01*
X027320Y002251D01*
X027275Y002296D01*
X027185Y002296D01*
X027185Y002206D01*
X026550Y003000D02*
X026800Y003250D01*
X026800Y003750D01*
X026550Y004000D01*
X027050Y005211D02*
X027185Y005211D01*
X027140Y005301D01*
X027140Y005346D01*
X027185Y005391D01*
X027275Y005391D01*
X027320Y005346D01*
X027320Y005256D01*
X027275Y005211D01*
X027050Y005211D02*
X027050Y005391D01*
X027050Y005505D02*
X027230Y005505D01*
X027320Y005595D01*
X027230Y005686D01*
X027050Y005686D01*
X025540Y007000D02*
X024800Y007000D01*
X023800Y007000D01*
X023800Y008000D01*
X023800Y009000D01*
X023800Y010000D01*
X024050Y010000D01*
X024800Y010000D01*
X024800Y009000D01*
X025540Y009000D01*
X024800Y009000D02*
X024800Y008000D01*
X025540Y008000D01*
X024800Y008000D02*
X024800Y007000D01*
X024800Y006000D01*
X024050Y006000D01*
X023800Y006000D01*
X023050Y006000D01*
X022800Y006250D01*
X022800Y006750D01*
X023050Y007000D01*
X023800Y007000D01*
X023800Y006000D01*
X023800Y005750D02*
X024050Y006000D01*
X023800Y005750D02*
X023800Y005250D01*
X024050Y005000D01*
X024800Y005000D01*
X024800Y004000D01*
X024050Y004000D01*
X023800Y004250D01*
X023800Y004750D01*
X024050Y005000D01*
X024050Y004000D02*
X023800Y003750D01*
X023800Y003250D01*
X024050Y003000D01*
X024800Y003000D01*
X024800Y002000D01*
X025800Y002000D01*
X024800Y002000D02*
X024050Y002000D01*
X023800Y002250D01*
X023800Y002750D01*
X024050Y003000D01*
X022500Y006211D02*
X022545Y006256D01*
X022545Y006346D01*
X022500Y006391D01*
X022410Y006391D01*
X022365Y006346D01*
X022365Y006301D01*
X022410Y006211D01*
X022275Y006211D01*
X022275Y006391D01*
X022275Y006505D02*
X022455Y006505D01*
X022545Y006595D01*
X022455Y006686D01*
X022275Y006686D01*
X022320Y007116D02*
X022275Y007161D01*
X022275Y007251D01*
X022320Y007296D01*
X022365Y007296D01*
X022410Y007251D01*
X022455Y007296D01*
X022500Y007296D01*
X022545Y007251D01*
X022545Y007161D01*
X022500Y007116D01*
X022410Y007206D02*
X022410Y007251D01*
X022455Y007411D02*
X022545Y007501D01*
X022455Y007591D01*
X022275Y007591D01*
X022320Y007705D02*
X022275Y007750D01*
X022275Y007840D01*
X022320Y007886D01*
X022365Y007886D01*
X022410Y007840D01*
X022455Y007886D01*
X022500Y007886D01*
X022545Y007840D01*
X022545Y007750D01*
X022500Y007705D01*
X022410Y007795D02*
X022410Y007840D01*
X022320Y008116D02*
X022275Y008161D01*
X022275Y008251D01*
X022320Y008296D01*
X022365Y008296D01*
X022545Y008116D01*
X022545Y008296D01*
X022455Y008411D02*
X022545Y008501D01*
X022455Y008591D01*
X022275Y008591D01*
X022275Y008705D02*
X022410Y008705D01*
X022365Y008795D01*
X022365Y008840D01*
X022410Y008886D01*
X022500Y008886D01*
X022545Y008840D01*
X022545Y008750D01*
X022500Y008705D01*
X022275Y008705D02*
X022275Y008886D01*
X022320Y009016D02*
X022500Y009016D01*
X022545Y009061D01*
X022545Y009151D01*
X022500Y009196D01*
X022410Y009196D01*
X022410Y009106D01*
X022320Y009016D02*
X022275Y009061D01*
X022275Y009151D01*
X022320Y009196D01*
X022275Y009311D02*
X022545Y009491D01*
X022275Y009491D01*
X022275Y009605D02*
X022275Y009740D01*
X022320Y009786D01*
X022500Y009786D01*
X022545Y009740D01*
X022545Y009605D01*
X022275Y009605D01*
X022275Y009311D02*
X022545Y009311D01*
X022800Y009250D02*
X022800Y009750D01*
X023050Y010000D01*
X023800Y010000D01*
X023800Y010250D02*
X023800Y010750D01*
X024050Y011000D01*
X023800Y010250D02*
X024050Y010000D01*
X023800Y009000D02*
X023050Y009000D01*
X022800Y009250D01*
X023050Y009000D02*
X022800Y008750D01*
X022800Y008250D01*
X023050Y008000D01*
X022800Y007750D01*
X022800Y007250D01*
X023050Y007000D01*
X022455Y007411D02*
X022275Y007411D01*
X023050Y008000D02*
X023800Y008000D01*
X024800Y008000D01*
X024800Y009000D02*
X023800Y009000D01*
X022455Y008411D02*
X022275Y008411D01*
X025550Y010000D02*
X025800Y009750D01*
X027050Y010161D02*
X027095Y010116D01*
X027275Y010116D01*
X027320Y010161D01*
X027320Y010251D01*
X027275Y010296D01*
X027185Y010296D01*
X027185Y010206D01*
X027095Y010296D02*
X027050Y010251D01*
X027050Y010161D01*
X027050Y010411D02*
X027320Y010591D01*
X027050Y010591D01*
X027050Y010705D02*
X027050Y010840D01*
X027095Y010886D01*
X027275Y010886D01*
X027320Y010840D01*
X027320Y010705D01*
X027050Y010705D01*
X027050Y010411D02*
X027320Y010411D01*
X027320Y011116D02*
X027140Y011296D01*
X027095Y011296D01*
X027050Y011251D01*
X027050Y011161D01*
X027095Y011116D01*
X027320Y011116D02*
X027320Y011296D01*
X027230Y011411D02*
X027050Y011411D01*
X027050Y011591D02*
X027230Y011591D01*
X027320Y011501D01*
X027230Y011411D01*
X027275Y011705D02*
X027320Y011750D01*
X027320Y011840D01*
X027275Y011886D01*
X027185Y011886D01*
X027140Y011840D01*
X027140Y011795D01*
X027185Y011705D01*
X027050Y011705D01*
X027050Y011886D01*
X027095Y012116D02*
X027050Y012161D01*
X027050Y012251D01*
X027095Y012296D01*
X027140Y012296D01*
X027185Y012251D01*
X027230Y012296D01*
X027275Y012296D01*
X027320Y012251D01*
X027320Y012161D01*
X027275Y012116D01*
X027185Y012206D02*
X027185Y012251D01*
X027230Y012411D02*
X027050Y012411D01*
X027050Y012591D02*
X027230Y012591D01*
X027320Y012501D01*
X027230Y012411D01*
X027275Y012705D02*
X027320Y012750D01*
X027320Y012840D01*
X027275Y012886D01*
X027230Y012886D01*
X027185Y012840D01*
X027185Y012795D01*
X027185Y012840D02*
X027140Y012886D01*
X027095Y012886D01*
X027050Y012840D01*
X027050Y012750D01*
X027095Y012705D01*
X027050Y013211D02*
X027185Y013211D01*
X027140Y013301D01*
X027140Y013346D01*
X027185Y013391D01*
X027275Y013391D01*
X027320Y013346D01*
X027320Y013256D01*
X027275Y013211D01*
X027050Y013211D02*
X027050Y013391D01*
X027050Y013505D02*
X027230Y013505D01*
X027320Y013595D01*
X027230Y013686D01*
X027050Y013686D01*
X026800Y013750D02*
X026800Y013250D01*
X026550Y013000D01*
X026800Y013750D02*
X026550Y014000D01*
X025800Y014000D01*
X025800Y014250D02*
X025550Y014000D01*
X025800Y014250D02*
X025800Y014750D01*
X025550Y015000D01*
X026550Y012000D02*
X026800Y011750D01*
X026800Y011250D01*
X026550Y011000D01*
X024800Y018000D02*
X023800Y018000D01*
X014625Y024275D02*
X014325Y024275D01*
X014475Y024275D02*
X014475Y024725D01*
X014325Y024575D01*
X014325Y025275D02*
X014625Y025575D01*
X014625Y025650D01*
X014550Y025725D01*
X014400Y025725D01*
X014325Y025650D01*
X014325Y025275D02*
X014625Y025275D01*
X014550Y010250D02*
X014300Y010000D01*
X014050Y009750D01*
X014300Y010000D02*
X014050Y010250D01*
X014300Y010000D02*
X014550Y009750D01*
D188*
X004611Y022240D02*
X004611Y022673D01*
X003627Y021965D02*
X002564Y021965D01*
X001420Y023909D02*
X001420Y023909D01*
X002564Y025035D02*
X003627Y025035D01*
X004611Y024760D02*
X004611Y024327D01*
X006050Y024000D02*
X006052Y024013D01*
X006057Y024026D01*
X006066Y024037D01*
X006077Y024044D01*
X006090Y024049D01*
X006103Y024050D01*
X006117Y024047D01*
X006129Y024041D01*
X006139Y024032D01*
X006146Y024020D01*
X006150Y024007D01*
X006150Y023993D01*
X006146Y023980D01*
X006139Y023968D01*
X006129Y023959D01*
X006117Y023953D01*
X006103Y023950D01*
X006090Y023951D01*
X006077Y023956D01*
X006066Y023963D01*
X006057Y023974D01*
X006052Y023987D01*
X006050Y024000D01*
X006513Y024150D02*
X006650Y024287D01*
X007950Y024287D02*
X008087Y024287D01*
X008087Y024150D01*
X008087Y022850D02*
X008087Y022713D01*
X007950Y022713D01*
X006650Y022713D02*
X006513Y022713D01*
X006513Y022850D01*
D189*
X005750Y022000D02*
X005350Y022000D01*
X002300Y019500D02*
X001900Y019500D01*
X017250Y021550D02*
X017250Y021950D01*
X026600Y016500D02*
X027000Y016500D01*
X002100Y003500D02*
X001700Y003500D01*
D190*
X013700Y023650D02*
X013700Y026350D01*
X023900Y026350D01*
X023900Y023650D01*
X022100Y023650D01*
X021500Y023650D02*
X019600Y023650D01*
M02*
