G75*
G70*
%OFA0B0*%
%FSLAX24Y24*%
%IPPOS*%
%LPD*%
%AMOC8*
5,1,8,0,0,1.08239X$1,22.5*
%
%ADD10C,0.0000*%
%ADD11C,0.0640*%
%ADD12OC8,0.0640*%
%ADD13C,0.0680*%
%ADD14OC8,0.0595*%
%ADD15R,0.0595X0.0595*%
%ADD16C,0.0474*%
%ADD17C,0.0480*%
D10*
X000800Y000500D02*
X000800Y027470D01*
X027792Y027470D01*
X027842Y000500D01*
X000800Y000500D01*
X002997Y022634D02*
X002999Y022661D01*
X003005Y022688D01*
X003014Y022714D01*
X003027Y022738D01*
X003043Y022761D01*
X003062Y022780D01*
X003084Y022797D01*
X003108Y022811D01*
X003133Y022821D01*
X003160Y022828D01*
X003187Y022831D01*
X003215Y022830D01*
X003242Y022825D01*
X003268Y022817D01*
X003292Y022805D01*
X003315Y022789D01*
X003336Y022771D01*
X003353Y022750D01*
X003368Y022726D01*
X003379Y022701D01*
X003387Y022675D01*
X003391Y022648D01*
X003391Y022620D01*
X003387Y022593D01*
X003379Y022567D01*
X003368Y022542D01*
X003353Y022518D01*
X003336Y022497D01*
X003315Y022479D01*
X003293Y022463D01*
X003268Y022451D01*
X003242Y022443D01*
X003215Y022438D01*
X003187Y022437D01*
X003160Y022440D01*
X003133Y022447D01*
X003108Y022457D01*
X003084Y022471D01*
X003062Y022488D01*
X003043Y022507D01*
X003027Y022530D01*
X003014Y022554D01*
X003005Y022580D01*
X002999Y022607D01*
X002997Y022634D01*
X002997Y024366D02*
X002999Y024393D01*
X003005Y024420D01*
X003014Y024446D01*
X003027Y024470D01*
X003043Y024493D01*
X003062Y024512D01*
X003084Y024529D01*
X003108Y024543D01*
X003133Y024553D01*
X003160Y024560D01*
X003187Y024563D01*
X003215Y024562D01*
X003242Y024557D01*
X003268Y024549D01*
X003292Y024537D01*
X003315Y024521D01*
X003336Y024503D01*
X003353Y024482D01*
X003368Y024458D01*
X003379Y024433D01*
X003387Y024407D01*
X003391Y024380D01*
X003391Y024352D01*
X003387Y024325D01*
X003379Y024299D01*
X003368Y024274D01*
X003353Y024250D01*
X003336Y024229D01*
X003315Y024211D01*
X003293Y024195D01*
X003268Y024183D01*
X003242Y024175D01*
X003215Y024170D01*
X003187Y024169D01*
X003160Y024172D01*
X003133Y024179D01*
X003108Y024189D01*
X003084Y024203D01*
X003062Y024220D01*
X003043Y024239D01*
X003027Y024262D01*
X003014Y024286D01*
X003005Y024312D01*
X002999Y024339D01*
X002997Y024366D01*
D11*
X004300Y018700D03*
X023300Y002650D03*
D12*
X023300Y001650D03*
X022300Y001650D03*
X021300Y001650D03*
X021300Y002650D03*
X022300Y002650D03*
X020300Y002650D03*
X019300Y002650D03*
X019300Y001650D03*
X020300Y001650D03*
X018300Y001650D03*
X018300Y002650D03*
X017300Y002650D03*
X016300Y002650D03*
X016300Y001650D03*
X017300Y001650D03*
X015300Y001650D03*
X014300Y001650D03*
X014300Y002650D03*
X015300Y002650D03*
X013300Y002650D03*
X012300Y002650D03*
X012300Y001650D03*
X013300Y001650D03*
X011300Y001650D03*
X011300Y002650D03*
X010300Y002650D03*
X009300Y002650D03*
X009300Y001650D03*
X010300Y001650D03*
X008300Y001650D03*
X007300Y001650D03*
X007300Y002650D03*
X008300Y002650D03*
X006300Y002650D03*
X006300Y001650D03*
X005300Y001650D03*
X004300Y001650D03*
X004300Y002650D03*
X005300Y002650D03*
X005300Y018700D03*
X005300Y019700D03*
X004300Y019700D03*
X006300Y019700D03*
X006300Y018700D03*
X007300Y018700D03*
X008300Y018700D03*
X008300Y019700D03*
X007300Y019700D03*
X009300Y019700D03*
X010300Y019700D03*
X010300Y018700D03*
X009300Y018700D03*
X011300Y018700D03*
X011300Y019700D03*
X012300Y019700D03*
X013300Y019700D03*
X013300Y018700D03*
X012300Y018700D03*
X014300Y018700D03*
X015300Y018700D03*
X015300Y019700D03*
X014300Y019700D03*
X016300Y019700D03*
X017300Y019700D03*
X017300Y018700D03*
X016300Y018700D03*
X018300Y018700D03*
X018300Y019700D03*
X019300Y019700D03*
X020300Y019700D03*
X020300Y018700D03*
X019300Y018700D03*
X021300Y018700D03*
X022300Y018700D03*
X022300Y019700D03*
X021300Y019700D03*
X023300Y019700D03*
X023300Y018700D03*
X022300Y024500D03*
X021300Y024500D03*
X021300Y025500D03*
X022300Y025500D03*
X020300Y025500D03*
X019300Y025500D03*
X019300Y024500D03*
X020300Y024500D03*
X018300Y024500D03*
X018300Y025500D03*
X017300Y025500D03*
X016300Y025500D03*
X016300Y024500D03*
X017300Y024500D03*
X015300Y024500D03*
X015300Y025500D03*
D13*
X008100Y025950D02*
X008100Y026550D01*
X007100Y026550D02*
X007100Y025950D01*
X006100Y025950D02*
X006100Y026550D01*
D14*
X003300Y017500D03*
X003300Y016500D03*
X003300Y015500D03*
X002300Y015500D03*
X002300Y016500D03*
X002300Y014500D03*
X003300Y014500D03*
X003300Y013500D03*
X003300Y012500D03*
X003300Y011500D03*
X003300Y010500D03*
X003300Y009500D03*
X003300Y008500D03*
X003300Y007500D03*
X002300Y007500D03*
X002300Y008500D03*
X002300Y006500D03*
X003300Y006500D03*
X003300Y005500D03*
X003300Y004500D03*
X003300Y003500D03*
X003300Y002500D03*
X023300Y006500D03*
X024300Y006500D03*
X024300Y005500D03*
X024300Y004500D03*
X024300Y003500D03*
X024300Y002500D03*
X025300Y002500D03*
X025300Y003500D03*
X025300Y004500D03*
X025300Y005500D03*
X025300Y006500D03*
X025300Y007500D03*
X025300Y008500D03*
X025300Y009500D03*
X025300Y010500D03*
X025300Y011500D03*
X025300Y012500D03*
X025300Y013500D03*
X025300Y014500D03*
X025300Y015500D03*
X025300Y016500D03*
X025300Y017500D03*
X024300Y017500D03*
X024300Y016500D03*
X024300Y015500D03*
X023300Y015500D03*
X023300Y016500D03*
X023300Y014500D03*
X024300Y014500D03*
X024300Y013500D03*
X024300Y012500D03*
X024300Y011500D03*
X024300Y010500D03*
X024300Y009500D03*
X024300Y008500D03*
X024300Y007500D03*
X023300Y007500D03*
X023300Y008500D03*
X026300Y011500D03*
X026300Y012500D03*
X026300Y013500D03*
X026300Y005500D03*
X026300Y004500D03*
X026300Y003500D03*
D15*
X026300Y002500D03*
X023300Y009500D03*
X026300Y010500D03*
X023300Y017500D03*
X002300Y017500D03*
X002300Y009500D03*
D16*
X003194Y022634D03*
X003194Y024366D03*
D17*
X005400Y023900D03*
X005700Y023150D03*
X005950Y024550D03*
X006700Y024900D03*
X007750Y024800D03*
X008550Y024800D03*
X008650Y022700D03*
X005800Y021050D03*
X003400Y020950D03*
X008300Y017650D03*
X005000Y014400D03*
X004350Y006550D03*
X001900Y004450D03*
X008300Y003850D03*
X009250Y004750D03*
X017150Y003750D03*
X017800Y001250D03*
X018800Y001250D03*
X020250Y004150D03*
X021050Y007500D03*
X021100Y008550D03*
X021600Y009600D03*
X017750Y013200D03*
X018350Y015500D03*
X016450Y017700D03*
X018300Y021750D03*
X018150Y022700D03*
X022000Y016500D03*
X025300Y018350D03*
X026800Y015300D03*
X026200Y014450D03*
X026300Y009750D03*
X026500Y008100D03*
M02*
